<svg version="1.1" xmlns="http://www.w3.org/2000/svg" xmlns:xlink="http://www.w3.org/1999/xlink" width="481.97818" height="357.06801" viewBox="0,0,481.97818,357.06801"><g transform="translate(129.97818,54.56801)"><g data-paper-data="{&quot;isPaintingLayer&quot;:true}" fill="#b6ff66" fill-rule="nonzero" stroke="none" stroke-width="0.5" stroke-linecap="butt" stroke-linejoin="miter" stroke-miterlimit="10" stroke-dasharray="" stroke-dashoffset="0" style="mix-blend-mode: normal"><path d="M114.99361,195.79192c1.6492,-1.55845 3.68737,-2.06799 3.68737,-2.06799c0.70302,-0.17575 1.38212,-0.34294 2.04416,-0.50975c0.14817,-0.17859 0.30447,-0.3502 0.46833,-0.51426c-0.12657,-0.54619 -0.19347,-1.11525 -0.19347,-1.69993c0,-4.14214 3.35786,-7.5 7.5,-7.5h3c4.3938,-1.88172 9.55267,-0.0212 14.33924,0.01825l0.77049,-0.11007c0.53465,-0.44644 1.08565,-0.75176 1.71689,-0.58637c0.26566,0.06961 0.52872,0.14591 0.78941,0.22833l1.38397,-0.19771v-0.35243h3c4.14214,0 7.5,3.35786 7.5,7.5c0,1.51969 -0.45199,2.93381 -1.22886,4.11528c-0.17485,0.74865 -0.44163,1.39322 -0.7714,1.94817c-0.00707,0.85375 -0.1568,1.67349 -0.4265,2.43656h2.92676c4.14214,0 7.5,3.35786 7.5,7.5c0,4.14214 -3.35786,7.5 -7.5,7.5h-3c-0.24952,0 -0.88387,0.00076 -1.72905,0.00119c-5.63013,3.22703 -11.61373,6.06621 -17.35458,6.94261c-3.51385,0.53643 -9.55852,0.4842 -12.73539,-1.16774c-3.34449,-1.73909 -8.68274,-2.57504 -9.40884,-6.27407c-0.10374,-0.52849 -0.13298,-1.0558 -0.09878,-1.57979l-3.88846,0.8641c-0.57205,0.13965 -1.16982,0.21369 -1.78489,0.21369c-4.14214,0 -7.5,-3.35786 -7.5,-7.5c0,-3.3738 2.22768,-6.22729 5.29236,-7.16981l2.73885,-0.91295c1.05526,-0.39363 2.03417,-0.76882 2.9624,-1.12531z"/><path d="M277.49749,299.57369c-0.50992,0.35063 -1.01611,0.70634 -1.51669,1.06966l-1.31007,-0.13116l0.20098,0.60294l-2.83392,0.94464c-0.7926,0.28496 -1.64706,0.44024 -2.53779,0.44024c-4.14214,0 -7.5,-3.35786 -7.5,-7.5c0,-1.71573 0.57612,-3.2969 1.54546,-4.56061l2.95454,-3.93939l0.07632,0.05724c0.08256,-0.15845 0.16841,-0.31557 0.25777,-0.47125c0.11297,-0.19682 0.22988,-0.39086 0.3505,-0.58227c-3.2282,-0.00136 -6.4564,-0.00372 -9.68459,-0.00372h-7c-4.14214,0 -7.5,-3.35786 -7.5,-7.5c0,-2.6446 1.36878,-4.9695 3.43654,-6.3049l2.90321,-1.93547l0.15973,0.23959c0.22598,-0.25294 0.46071,-0.49879 0.70539,-0.73658c1.69721,-1.64944 4.50373,-1.46274 6.71545,-2.30502c2.29576,-0.87428 4.54721,-1.87055 6.80866,-2.83754c3.34728,-3.3768 5.69821,-2.69 10.6371,-4.93392c4.89449,-2.22375 4.72759,-4.05337 10.41078,-5.48552c1.05894,-0.26685 10.79527,-0.20467 11.72315,-0.20063c4.37056,0.01901 9.5994,0.133 13.36814,1.95493c2.30577,-1.23146 4.76141,-2.33004 7.26015,-2.57006c3.47914,-0.33419 8.3024,-2.13153 10.46758,0.61221c0.90702,1.14939 1.56492,2.24918 2.0127,3.30339c1.55962,0.45602 2.9088,1.40506 3.86741,2.667c0.26375,0.22079 0.51408,0.45664 0.74959,0.70852c0.73312,0.78409 1.44978,1.65351 2.09255,2.58283c0.64924,-0.18688 1.30668,-0.26943 1.98052,-0.16198c0.40443,0.06449 0.80471,0.14398 1.20137,0.23655v-0.33339h5c4.14214,0 7.5,3.35786 7.5,7.5c0,1.26409 -0.31273,2.45514 -0.86505,3.5c0.55232,1.04486 0.86505,2.23591 0.86505,3.5c0,3.81981 -2.85561,6.97267 -6.5485,7.44022l-6.70009,0.95716c-4.53894,0.96508 -9.00891,2.36516 -13.60654,2.96003l-2.10708,0.70236c-0.7926,0.28496 -1.64706,0.44024 -2.53779,0.44024c-1.23262,0 -2.39579,-0.29735 -3.42169,-0.82424c-2.52593,-0.05369 -5.05573,-0.17929 -7.57831,-0.17576c-0.24539,0.00034 -0.49078,0.00067 -0.73617,0.00098c-1.20853,0.38948 -2.44014,0.70863 -3.67532,1.01686c-0.63546,0.39533 -1.25563,0.81106 -1.8336,1.28222c-2.02581,1.65141 -3.47335,3.97929 -5.62623,5.46124c-1.80753,1.24422 -3.99083,1.83938 -6.05626,2.58049c-4.34399,1.55869 -10.57574,4.64915 -14.07493,0.73189z"/><path d="M236.34675,175.71158c-0.27095,-4.42148 2.79561,-8.28034 6.67918,-11.49468c-0.54457,-1.27714 -0.89573,-2.61409 -0.98943,-3.95593c-0.26517,-3.79715 7.03932,-9.49617 10.29012,-10.43916c2.29877,-0.66682 4.78225,-0.21454 7.17338,-0.32181c1.44996,0.01376 2.90978,-0.07674 4.36685,-0.13814c0.76742,-0.63211 1.59746,-1.10497 2.57532,-1.2102c0.63451,-0.06828 1.26811,-0.0968 1.90098,-0.09275l-0.07615,-0.45687l5.86063,-0.97677c0.44493,-0.08227 0.90362,-0.12527 1.37237,-0.12527c0.5137,0 1.01534,0.05165 1.5,0.15003c0.48466,-0.09838 0.9863,-0.15003 1.5,-0.15003c2.61066,0 4.90978,1.33388 6.25301,3.35729c2.13096,1.18796 3.89005,3.14328 4.96844,6.1177c1.30123,3.58906 -2.46251,7.26769 -4.29247,10.61818c-2.21435,4.05428 -5.57556,7.39398 -9.5285,10.05203c-1.61782,2.26588 -3.61833,4.24862 -6.63603,5.84163c-2.14191,1.13069 -4.2285,3.00918 -6.64923,2.9298c-2.42688,-0.07958 -5.02427,-0.28075 -7.43415,-0.91586c-0.64838,0.32081 -1.28824,0.64844 -1.91662,0.98607c-4.58885,2.46554 -8.97024,7.04368 -15.06775,0.81648c-3.55465,-3.63026 -3.34925,-7.28992 -1.84995,-10.59172z"/><path d="M205.13664,125.39758c-1.00205,0.14454 -2.00979,0.18516 -3.01804,0.07687c-3.37485,-0.36249 -7.90575,-0.20967 -9.70292,-3.08912c-2.63112,-4.21559 -1.44231,-8.27063 0.90143,-11.61523c-1.24241,-0.64983 -2.48088,-1.30996 -3.74621,-1.89998l3.6258,-10.17343c8.2482,-7.95988 19.46832,-11.49852 30.83727,-12.18221c2.39287,-0.1439 5.0968,-0.98369 7.18918,0.18614c0.45688,0.25544 0.8957,0.53539 1.31961,0.83557l0.24073,-0.10317l0.07062,-0.14124l0.11951,0.05976l0.4196,-0.17983c0.94661,-0.43139 1.99863,-0.67172 3.10679,-0.67172c4.14214,0 7.5,3.35786 7.5,7.5c0,2.07107 -0.83947,3.94607 -2.1967,5.3033l-2,2l-0.3901,-0.3901c-0.03906,0.01648 -0.07829,0.03264 -0.11768,0.04847l-0.07011,0.03005l-0.34009,1.0926c-0.80721,0.41895 -1.56251,0.81513 -2.28311,1.19242c0.25158,0.77516 0.39779,1.67611 0.39779,2.72326c0,4.70246 -2.94841,6.4565 -5.14796,7.11077c-0.57427,0.49702 -1.15078,0.96607 -1.7312,1.41056c-1.77747,6.815 -6.3556,12.11851 -14.70446,12.92248c-2.58919,0.24933 -5.43673,0.60093 -7.7865,-0.51471c-0.94478,-0.44857 -1.77178,-0.96229 -2.49323,-1.53152z"/><path d="M107.53814,98.54405c-0.31668,0.71736 -0.69692,1.38598 -1.164,1.97051c0.44875,0.25598 0.86508,0.48982 1.19828,0.64364c0.92815,0.42846 1.66436,1.27384 2.65073,1.54243c1.20592,0.32838 2.56839,-0.25629 3.76699,0.01829c0.45545,-1.22365 1.11506,-2.36794 1.58077,-3.58905c0.44572,-1.16871 0.79807,-2.12324 1.08006,-2.97145c-1.42196,0.42076 -3.87335,0.79971 -6.07358,-0.57058c-0.5952,0.5686 -1.20458,1.12533 -1.77408,1.71546l-1,1c0,0 -0.09246,0.09246 -0.26516,0.24075zM132.82379,89.23635c-0.3252,5.32932 -1.18528,10.57251 -3.3947,15.63378c-2.70619,6.19927 -4.10699,9.91855 -10.75572,12.30806c-1.93916,0.69692 -4.1129,0.30082 -6.17338,0.32181c-5.78112,0.05889 -11.475,-1.90385 -16.49162,-4.86233c-2.03913,-1.20255 -4.3928,-2.30456 -5.639,-4.3173c-0.27915,-0.45086 -0.52769,-0.92011 -0.74878,-1.40368l-2.74824,0.45804c-0.44493,0.08227 -0.90362,0.12527 -1.37237,0.12527c-4.14214,0 -7.5,-3.35786 -7.5,-7.5c0,-2.07107 0.83947,-3.94607 2.1967,-5.3033l3,-3l0.09467,0.09467l0.11276,-0.29429c1.76926,-1.51827 3.51101,-3.06953 5.25097,-4.62283c-2.37836,-1.9829 -3.92412,-4.68995 -3.64061,-9.34028c0.42496,-6.97036 7.19622,-11.23872 13.4707,-11.14001c0.52365,-1.90141 1.11621,-3.77954 1.84984,-5.61054c1.35931,-3.3926 1.92295,-7.58808 4.77964,-9.86773c2.39417,-1.91056 6.07232,-0.81003 9.10847,-1.21505c5.52881,2.54416 12.37676,4.67708 15.65673,10.35638c2.43239,4.2117 3.03598,7.21995 3.15088,10.67288c1.05269,0.81962 1.99922,1.78184 2.77254,2.9668c1.71998,2.63551 5.10248,5.52155 4.09986,8.50467c-1.12038,3.33347 -3.79438,5.64509 -7.07936,7.03498z"/><path d="M-90.68043,-22.25257c2.21981,0.52405 5.68043,2.158 5.68043,7.25257c0,7.5 -7.5,7.5 -7.5,7.5l-5.5,-1.5c-12.71018,-9.53468 -27.40109,-20.08168 -31.77607,-36.18098c0,0 -1.81902,-7.27607 5.45705,-9.09509c7.27607,-1.81902 9.09509,5.45705 9.09509,5.45705c1.14818,5.48661 5.51263,9.71584 9.22685,13.72315c4.73202,5.10543 9.8711,8.80243 15.31666,12.8433z"/></g></g></svg>