<svg version="1.1" xmlns="http://www.w3.org/2000/svg" xmlns:xlink="http://www.w3.org/1999/xlink" width="335.24265" height="290.36513" viewBox="0,0,335.24265,290.36513"><g transform="translate(-62.9981,-72.88655)"><g data-paper-data="{&quot;isPaintingLayer&quot;:true}" fill-rule="nonzero" stroke="none" stroke-width="0.5" stroke-linecap="butt" stroke-linejoin="miter" stroke-miterlimit="10" stroke-dasharray="" stroke-dashoffset="0" style="mix-blend-mode: normal"><path d="M313.34027,234.75347c-3.50702,4.19132 -11.63152,8.51732 -17.29118,7.61297c-4.24289,2.52491 -10.05439,3.146 -13.34417,0.32619c-2.68343,-2.30008 -5.36803,-8.60453 -2.44273,-11.69033c-0.1005,-0.66042 -0.10873,-1.31697 -0.00703,-1.93594l-0.39447,-0.29585l-0.93008,-0.46504l-0.23989,-0.20562l-0.29754,-0.10627l-0.56683,-0.37788l-1.18329,-0.47332l-0.172,-0.12422l-0.20711,-0.04603l-1.20191,-0.60096l-2.19828,-0.94212l-0.36828,-0.27989l-0.43562,-0.15558l-1.901,-1.26733l-1.39998,-0.83999l-1.16158,-0.58079l-0.30995,-0.26567l-0.24907,-0.01384l-0.64502,-0.75252l-0.75252,-0.64502l-0.01384,-0.24907l-0.26567,-0.30995l-0.00089,-0.00177l-0.14533,-0.0323l-0.4663,0.01227l-3,-0.66667l-0.3664,-0.1832l-0.4059,-0.05535l-1.24044,-0.49618l-1.21652,-0.2433l-0.28554,-0.13525l-0.31502,-0.02423l-2,-0.66667l-0.30362,-0.19321l-0.35131,-0.07807l-1.14732,-0.57366l-0.93274,-0.3731l-0.0097,0.00265l-0.03262,-0.01957l-0.49851,-0.1994l-0.23441,-0.1693l-0.55634,0.09272l-1.13961,0.2849h-0.61553l-0.59715,0.14929h-1l-2.5,-0.625l-0.26154,-0.45769c-0.73359,0.17252 -1.23846,-0.50065 -1.23846,-0.50065l-0.5,-0.66667c-0.94962,-1.2769 -2.34404,-2.71367 -2.41559,-4.46861c-0.01093,-0.26811 0.0531,-0.47197 0.14598,-0.64027l-0.03586,-0.07172l-0.07807,-0.35131l-0.19321,-0.30362l-0.04406,-0.13217l-0.02099,-0.03499l-0.19153,-0.08065l-1.33333,-1l-0.05057,-0.06224l-0.0729,-0.03341l-1.66667,-1.33333l-0.17063,-0.22395l-0.24143,-0.14486l-1.50502,-1.50502c-0.18845,-0.11922 -0.39277,-0.30648 -0.49243,-0.58856l-0.13368,-0.10862l-1,-1.33333l-0.02038,-0.0484l-0.10309,-0.04725l-1.66667,-1.33333l-0.17063,-0.22395l-0.24143,-0.14486l-1,-1l-0.18516,-0.3086l-0.27931,-0.22694l-0.92313,-1.23084l-1.58465,-1.90157l-0.25272,-0.52349l-0.37831,-0.44136l-0.63714,-1.27427l-0.09293,-0.09293l-0.18516,-0.3086l-0.27931,-0.22694l-0.95314,-1.27085l-0.88801,-1.11001l-0.7145,-0.53587l-1.88453,-1.25635l-0.335,-0.3685l-0.42704,-0.25622l-1,-1l-0.18516,-0.3086l-0.27931,-0.22694l-1,-1.33333l-0.25605,-0.60813l-0.38633,-0.53492l-0.73344,-1.83361c-0.36113,-0.1895 -0.70989,-0.37635 -1.04329,-0.56006c-0.77504,-0.42706 -1.46711,-0.83718 -2.03879,-1.22432c-1.28687,-0.87146 -3.1141,-2.8327 -3.52578,-4.3934l-0.42199,-0.31649l-0.05608,-0.00312l-0.09346,-0.10904l-0.11146,-0.08359l-0.72447,-0.89165l-0.74767,-0.87228l-0.06231,-0.12461l-0.09056,-0.11146l0.00697,-0.05573l-0.18744,-0.37487l-0.55902,-2.51558l0.32301,-0.48452l-0.15322,-0.5618l1.32583,-2.20971l1.10265,-1.10265l0.01101,-0.05507l0.12116,-0.0771l0.09851,-0.09851l0.98514,-0.59109l0.74968,-0.47707l1.59851,-1.59851l0.68921,-0.41353l0.40354,-0.34589l0.0099,-0.0099l0.01101,-0.05507l0.12116,-0.0771l0.09851,-0.09851l0.98514,-0.59109l0.96925,-0.6168l0.13217,-0.04406l0.12314,-0.07389l0.05418,0.01478l0.05527,-0.01842l0.44287,-0.29524l0.91492,-0.32676l0.878,-0.41589l1.36142,-0.27228l0.70469,-0.2349l0.39543,-0.03042l0.36371,-0.15814l1.11331,-0.18555l0.17847,-0.2677l0.00425,-0.07653l0.98207,-0.84178l0.95709,-0.87008l0.07646,0.00527l0.31581,-0.15791l0.02786,-0.04876l0.13932,-0.03483l0.12461,-0.06231l1.12151,-0.24922l1.11456,-0.27864h0.13932l0.14019,-0.03115l0.04673,0.03115h0.60269l0.86887,-0.86887l0.68921,-0.41353l0.61025,-0.52307l0.37487,-0.18744l0.02786,-0.04876l0.13932,-0.03483l0.12461,-0.06231l0.23891,-0.05309l0.00466,-0.0028l0.00356,0.00097l0.87437,-0.1943l1.11456,-0.27864l0.13932,0l0.14019,-0.03115l0.04673,0.03115h0.01419l0.04673,-0.03115l0.14019,0.03115h0.13932l1.11456,0.27864l1.12151,0.24922l0.12461,0.06231l0.13932,0.03483l0.02786,0.04876l2.05705,1.02852l0.6629,0.22097l0.67809,0.43151l0.74077,0.3119l2.46032,1.84524l1.44549,0.86729l0.08621,0.08621l0.11481,0.04101l0.74099,0.49399l0.38824,0.19412l0.23989,0.20562l0.29754,0.10627l0.74099,0.49399l1.40375,0.70187l0.6629,0.22097l0.56343,0.35855l0.62893,0.22462l0.44287,0.29524l0.36477,0.12159l0.63013,0.40099l0.69492,0.27376l2.33333,1.66667l0.271,0.31812l0.35835,0.21501l1,1l0.50751,0.84584l0.33196,0.18969l0.15582,0.62327l0.33054,0.5509l-0.1006,0.36886l0.18368,0.73474l0.09722,0.05556l0.27316,1.09265l0.37881,1.06066l-0.07576,0.15152l0.04879,0.19516v0.93533l0.1388,0.16194l0.19412,0.38824l0.2691,0.40366l0.3949,0.33848l0.64587,0.30594l0.11558,0.34673l0.76759,0.65794l0.10966,1.97381l0.60062,1.80186l-0.47051,0.54021l0.03974,0.71528l-0.00353,0.00236l0.65487,0.5239l0.17063,0.22395l0.24143,0.14486l0.98799,0.98799l0.47648,-0.11912l4.0071,0l0.04673,-0.03115l0.14019,0.03115h0.13932l1.11456,0.27864l1.12151,0.24922l0.12461,0.06231l0.13932,0.03483l0.02786,0.04876l3.39038,1.69519l0.6629,0.22097l0.30362,0.19321l0.35131,0.07807l2.66667,1.33333l0.30995,0.26567l0.24907,0.01384l0.58068,0.67746l0.19364,0.04303l0.66667,0.33333l0.74894,0.64195l0.37491,0.07498l0.34492,0.54202l0.48779,0.4181l0.02121,0.38175l0.52958,0.8322l0.17141,0.51424l0.02055,0.01463l0.01227,0.08381l0.1291,0.38731l0.08025,1.0433l0.15152,1.03536l-0.04062,0.40624l0.0065,0.08446l-0.01682,0.0188l-0.28238,2.82384l-0.05657,0.15758l0.01335,0.16689l-0.05746,0.34478l0.69797,0.21243l1.66667,1l0.03305,0.03305l0.04446,0.01442l2.46522,1.54076l1.78752,0.89376l0.14885,0.12759l0.18756,0.05708l1.66667,1l0.08621,0.08621l0.11481,0.04101l1,0.66667l0.09556,0.10512l0.13093,0.05513l1.33333,1l0.22694,0.27931l0.3086,0.18516l0.09293,0.09293l0.60761,0.3038l0.23989,0.20562l0.29754,0.10627l1.85671,1.23781l2.06332,1.17904l1.2092,0.6046l0.23989,0.20562l0.29754,0.10627l0.44287,0.29524l0.36477,0.12159l0.8322,0.52958l0.38175,0.02121l0.4181,0.48779l0.54202,0.34492l0.07498,0.37491l0.07146,0.08337l0.08337,0.07146l0.37491,0.07498l0.34492,0.54202l0.48779,0.4181l0.02121,0.38175l0.52958,0.8322l0.22097,0.6629l0.36186,0.72371l0.04876,0.02786l0.03483,0.13932l0.06231,0.12461l0.24922,1.12151l0.27864,1.11456v0.13932l0.00752,0.03383c3.92977,5.02523 6.44275,13.96106 3.83276,17.08032z" fill="#03b100"/><path d="M238.93369,153.99431c5.23736,1.95156 10.1994,3.3139 14.93047,6.46838c2.7475,1.83192 5.58998,3.56455 6.47487,6.93696c1.48185,2.96369 2.34434,6.23904 3.65844,9.31009c0.60766,1.42012 1.20056,3.474 2.56676,4.44287c1.50201,1.06519 3.31892,0.60993 4.98704,1.15802c4.91656,1.61542 9.94194,2.14601 12.934,7.08677c1.57104,1.64357 1.92395,3.52275 1.93141,5.76926c0.00196,0.58993 -0.39742,3.39793 -0.18669,3.67617c0.97978,1.29366 5.35166,2.63402 6.84125,3.44495c5.32641,2.89974 10.01787,6.03354 14.31266,10.32833c0.69348,0.73043 1.03986,1.7255 1.5372,2.60134c0.5285,0.93072 1.52067,1.62759 1.79548,2.66202c2.35853,8.8778 -5.53998,14.7117 -10.99935,20.17107c0,0 -0.88388,0.88388 -1.76776,0c-0.88389,-0.88388 0,-1.76776 0,-1.76776c4.94228,-4.94228 12.11347,-9.83139 10.33399,-17.82892c-0.26067,-1.17156 -0.91422,-0.91949 -1.53785,-2.00465c-0.39097,-0.68032 -0.55185,-1.53424 -1.12947,-2.06532c-4.1295,-4.1295 -8.61916,-7.11183 -13.74035,-9.90044c-1.87009,-1.0183 -6.57678,-2.45861 -7.77241,-4.32628c-1.75417,-2.74014 1.17041,-6.61868 -1.58861,-9.22123c-2.44308,-4.11217 -8.29497,-6.00278 -12.83414,-6.52863c-1.70639,-0.19768 -3.06934,-0.14408 -4.57816,-1.22658c-4.29978,-3.08485 -4.86329,-10.42403 -7.10814,-14.91371c-0.66707,-2.83227 -3.24837,-4.21208 -5.52513,-5.7297c-4.56633,-3.04379 -9.35629,-4.2953 -14.40286,-6.19828c-1.39206,-0.52492 -2.75761,-1.12178 -4.11816,-1.7369c0.33017,-0.50776 0.80965,-1.26949 1.33488,-2.12709c1.20596,0.54029 2.41787,1.05991 3.65064,1.51928z" fill="#03b100"/><path d="M292.25,212.5c0,-0.69036 0.55964,-1.25 1.25,-1.25c0.69036,0 1.25,0.55964 1.25,1.25c0,0.69036 -0.55964,1.25 -1.25,1.25c-0.69036,0 -1.25,-0.55964 -1.25,-1.25z" fill="#04d700"/><path d="M303.25,221.16667c0,-0.69036 0.55964,-1.25 1.25,-1.25c0.69036,0 1.25,0.55964 1.25,1.25c0,0.69036 -0.55964,1.25 -1.25,1.25c-0.69036,0 -1.25,-0.55964 -1.25,-1.25z" fill="#04d700"/><path d="M295.91667,218.5c0,-0.69036 0.55964,-1.25 1.25,-1.25c0.69036,0 1.25,0.55964 1.25,1.25c0,0.69036 -0.55964,1.25 -1.25,1.25c-0.69036,0 -1.25,-0.55964 -1.25,-1.25z" fill="#04d700"/><path d="M289.58333,221.83334c0,-0.69036 0.55964,-1.25 1.25,-1.25c0.69036,0 1.25,0.55964 1.25,1.25c0,0.69036 -0.55964,1.25 -1.25,1.25c-0.69036,0 -1.25,-0.55964 -1.25,-1.25z" fill="#04d700"/><path d="M274.25,193.5c0,-0.69036 0.55964,-1.25 1.25,-1.25c0.69036,0 1.25,0.55964 1.25,1.25c0,0.69036 -0.55964,1.25 -1.25,1.25c-0.69036,0 -1.25,-0.55964 -1.25,-1.25z" fill="#04d700"/><path d="M263.58333,189.5c0,-0.69036 0.55964,-1.25 1.25,-1.25c0.69036,0 1.25,0.55964 1.25,1.25c0,0.69036 -0.55964,1.25 -1.25,1.25c-0.69036,0 -1.25,-0.55964 -1.25,-1.25z" fill="#04d700"/><path d="M273.58333,202.16667c0,-0.69036 0.55964,-1.25 1.25,-1.25c0.69036,0 1.25,0.55964 1.25,1.25c0,0.69036 -0.55964,1.25 -1.25,1.25c-0.69036,0 -1.25,-0.55964 -1.25,-1.25z" fill="#04d700"/><path d="M268.91667,192.16667c0,-0.69036 0.55964,-1.25 1.25,-1.25c0.69036,0 1.25,0.55964 1.25,1.25c0,0.69036 -0.55964,1.25 -1.25,1.25c-0.69036,0 -1.25,-0.55964 -1.25,-1.25z" fill="#04d700"/><path d="M263.91667,200.5c0,-0.69036 0.55964,-1.25 1.25,-1.25c0.69036,0 1.25,0.55964 1.25,1.25c0,0.69036 -0.55964,1.25 -1.25,1.25c-0.69036,0 -1.25,-0.55964 -1.25,-1.25z" fill="#04d700"/><path d="M250.25,173.5c0,-0.69036 0.55964,-1.25 1.25,-1.25c0.69036,0 1.25,0.55964 1.25,1.25c0,0.69036 -0.55964,1.25 -1.25,1.25c-0.69036,0 -1.25,-0.55964 -1.25,-1.25z" fill="#04d700"/><path d="M235.25,163.5c0,-0.69036 0.55964,-1.25 1.25,-1.25c0.69036,0 1.25,0.55964 1.25,1.25c0,0.69036 -0.55964,1.25 -1.25,1.25c-0.69036,0 -1.25,-0.55964 -1.25,-1.25z" fill="#04d700"/><path d="M240.58334,166.16667c0,-0.69036 0.55964,-1.25 1.25,-1.25c0.69036,0 1.25,0.55964 1.25,1.25c0,0.69036 -0.55964,1.25 -1.25,1.25c-0.69036,0 -1.25,-0.55964 -1.25,-1.25z" fill="#04d700"/><path d="M237.05055,172.71722c-0.88388,0.88388 -1.76776,0 -1.76776,0l-0.24702,-0.38995c-0.55555,-0.22222 -1.11111,-0.44445 -1.66667,-0.66667c0,0 -0.96388,-0.38555 -0.78347,-1.33234c-0.17514,-0.97127 0.8174,-1.33519 0.8174,-1.33519l0.97286,-0.33802c0.72353,-0.41345 1.44707,-0.8269 2.17061,-1.24035c0,0 1.0853,-0.62017 1.70548,0.46513c0.62017,1.08531 -0.46513,1.70548 -0.46513,1.70548c-0.46383,0.26505 -0.92767,0.53009 -1.3915,0.79514l0.65521,0.569c0,0 0.88388,0.88388 0,1.76776z" fill="#04d700"/><path d="M240.58334,174.16667c0,-0.69036 0.55964,-1.25 1.25,-1.25c0.69036,0 1.25,0.55964 1.25,1.25c0,0.69036 -0.55964,1.25 -1.25,1.25c-0.69036,0 -1.25,-0.55964 -1.25,-1.25z" fill="#04d700"/><path d="M248.83334,179.58334c0.69036,0 1.25,0.55964 1.25,1.25c0,0.69036 -0.55964,1.25 -1.25,1.25c-0.52224,0 -0.96968,-0.32027 -1.15663,-0.77511c-0.15575,0.06969 -0.32837,0.10844 -0.51004,0.10844c-0.69036,0 -1.25,-0.55964 -1.25,-1.25c0,-0.69036 0.55964,-1.25 1.25,-1.25c0.52224,0 0.96968,0.32027 1.15663,0.77511c0.15575,-0.06969 0.32837,-0.10844 0.51004,-0.10844z" fill="#04d700"/><path d="M244.25,167.5c0,-0.69036 0.55964,-1.25 1.25,-1.25c0.69036,0 1.25,0.55964 1.25,1.25c0,0.69036 -0.55964,1.25 -1.25,1.25c-0.69036,0 -1.25,-0.55964 -1.25,-1.25z" fill="#04d700"/><path d="M240.58334,169.83334c0,-0.69036 0.55964,-1.25 1.25,-1.25c0.69036,0 1.25,0.55964 1.25,1.25c0,0.69036 -0.55964,1.25 -1.25,1.25c-0.69036,0 -1.25,-0.55964 -1.25,-1.25z" fill="#04d700"/><path d="M243.91667,171.5c0,-0.69036 0.55964,-1.25 1.25,-1.25c0.69036,0 1.25,0.55964 1.25,1.25c0,0.69036 -0.55964,1.25 -1.25,1.25c-0.69036,0 -1.25,-0.55964 -1.25,-1.25z" fill="#04d700"/><path d="M258.58333,187.83334c0,-0.69036 0.55964,-1.25 1.25,-1.25c0.69036,0 1.25,0.55964 1.25,1.25c0,0.69036 -0.55964,1.25 -1.25,1.25c-0.69036,0 -1.25,-0.55964 -1.25,-1.25z" fill="#04d700"/><path d="M265.91667,195.5c0,-0.69036 0.55964,-1.25 1.25,-1.25c0.69036,0 1.25,0.55964 1.25,1.25c0,0.69036 -0.55964,1.25 -1.25,1.25c-0.69036,0 -1.25,-0.55964 -1.25,-1.25z" fill="#04d700"/><path d="M283.91667,207.83334c0,-0.69036 0.55964,-1.25 1.25,-1.25c0.69036,0 1.25,0.55964 1.25,1.25c0,0.69036 -0.55964,1.25 -1.25,1.25c-0.69036,0 -1.25,-0.55964 -1.25,-1.25z" fill="#04d700"/><path d="M288.91667,216.83334c0,-0.69036 0.55964,-1.25 1.25,-1.25c0.69036,0 1.25,0.55964 1.25,1.25c0,0.69036 -0.55964,1.25 -1.25,1.25c-0.69036,0 -1.25,-0.55964 -1.25,-1.25z" fill="#04d700"/><path d="M296.91667,222.16667c0,-0.69036 0.55964,-1.25 1.25,-1.25c0.69036,0 1.25,0.55964 1.25,1.25c0,0.69036 -0.55964,1.25 -1.25,1.25c-0.69036,0 -1.25,-0.55964 -1.25,-1.25z" fill="#04d700"/><path d="M234.88902,203.319c-0.57907,-0.66989 -0.8895,-1.64932 -1.67156,-2.06458c-2.38508,-1.26647 -4.3778,-2.63628 -6.36938,-4.65181c-0.87527,-1.44807 -1.81385,-3.53186 -2.73343,-4.76085c-1.76173,-2.35447 -4.75461,-4.04728 -6.83186,-6.12453c-4.2479,-4.2479 -6.61993,-10.10623 -9.23415,-15.32487c0,0 -0.09069,-0.18138 -0.12596,-0.43456c-0.10127,-0.05912 -0.20391,-0.13793 -0.30656,-0.24057c-0.88388,-0.88388 0,-1.76776 0,-1.76776l0.00454,0.24738c1.13742,-4.27174 4.38806,-3.9929 7.52456,-6.07371c1.75656,-1.16533 2.19444,-2.55928 4.38495,-3.16913c0,0 0.0385,-0.00963 0.10351,-0.01859c0.16057,-0.14674 0.30731,-0.2201 0.30731,-0.2201l0.3418,-0.09919c3.50625,-3.43683 7.50438,-5.21878 12.27611,-5.35735c0.70584,-0.32603 1.42202,-0.63027 2.14354,-0.91936c0,0 1.1606,-0.46424 1.62484,0.69636c0.46424,1.1606 -0.69636,1.62483 -0.69636,1.62483c-0.48235,0.19259 -0.96217,0.39246 -1.43763,0.60208c-0.35952,0.48733 -1.02661,0.48733 -1.02661,0.48733c-0.01042,0 -0.02084,0.00001 -0.03125,0.00002c-0.13709,0.06609 -0.27367,0.13319 -0.40973,0.20134l-1.22568,0.13197c0,0 -0.34705,0 -0.67541,-0.18286c-3.32908,0.44323 -6.23793,1.87896 -8.77404,4.48341l-0.57798,0.33079c0.17352,0.21462 0.27743,0.48784 0.27743,0.78532c0,0.69036 -0.55964,1.25 -1.25,1.25c-0.62634,0 -1.14508,-0.46066 -1.23591,-1.06166c-1.09211,0.58516 -1.51011,1.69706 -2.74265,2.52188c-2.34343,1.56823 -5.76054,1.44097 -6.47544,4.59295l-0.06044,0.08344c0.19942,0.18829 0.29913,0.38771 0.29913,0.38771c2.48482,4.97835 4.71481,10.6241 8.76585,14.67514c2.2039,2.2039 5.27493,4.02228 7.16815,6.54213c0.88609,1.17937 1.78158,3.19776 2.5999,4.57249c1.78532,1.75901 3.62884,2.81001 5.63062,4.01485c2.19686,1.32225 3.78334,4.01706 5.75844,5.8859c-0.99901,0.16333 -1.94824,0.47469 -2.82445,0.91082c-0.91925,-0.84847 -1.80389,-1.75808 -2.49418,-2.55663z" fill="#03b100"/><path d="M268.38389,222.71722c-0.88389,0.88388 -1.76777,0 -1.76777,0l0.0635,-0.06601c-4.06212,-1.71858 -8.12546,-3.4109 -12.11648,-5.28902c-0.95826,-0.45098 -1.88996,-0.9114 -2.79151,-1.41164c0.04077,-0.36678 0.06171,-0.73955 0.06171,-1.11721c0,-0.63099 -0.05844,-1.24833 -0.17021,-1.84691c1.2481,0.79694 2.56601,1.45566 3.9645,2.11371c3.96113,1.86406 7.99437,3.54293 12.02609,5.24866l0.73017,0.60066c0,0 0.88389,0.88388 0,1.76776z" fill="#03b100"/><path d="M228.15628,220.8541c-0.43179,-0.2159 -0.78021,-0.45959 -1.05955,-0.72034c-0.2974,0.07589 -0.60902,0.11624 -0.93007,0.11624c-1.115,0 -2.11635,-0.48663 -2.80324,-1.25909c-1.20197,0.5661 -2.44766,1.09645 -3.62892,1.75855c-7.89902,-4.78247 -15.57769,-9.86786 -22.69668,-16.08767c-3.16383,-2.76421 -5.78938,-6.12618 -8.23004,-9.54581c-1.53918,-2.15656 -3.71554,-3.98535 -4.59804,-6.48355c-0.0501,-0.14183 -0.09561,-0.2846 -0.13692,-0.42822l-0.05461,0.02185l-1.30175,-3.25437c-0.19298,-0.45184 -0.2998,-0.94929 -0.2998,-1.47168c0,-0.51237 0.10276,-1.00074 0.28879,-1.44563c-0.37157,-0.53297 -0.62212,-1.25173 -0.62212,-2.22104c0,-3.75 3.75,-3.75 3.75,-3.75h1c1.99907,0.0221 4.95472,-0.11819 7.00357,-1.21182c-0.14048,-0.41395 -0.28564,-0.82575 -0.43932,-1.23361l1.71405,0.29102c1.22467,-1.23993 2.05795,-2.8222 3.17421,-4.16294c0,0 2.30296,-2.76355 5.1044,-0.62163c2.94725,-0.76549 4.22322,2.21179 4.22322,2.21179c0.60287,1.56395 2.01944,2.67625 2.99179,4.04151c1.44758,2.03251 2.97278,4.56865 4.36413,6.71289c0.23756,0.36611 0.4687,0.73937 0.69492,1.11828c1.10256,0.58157 2.16725,1.22988 3.16397,1.99819c2.29551,1.76947 4.18721,4.03559 5.97503,6.31683c2.28626,2.91725 1.64319,3.81384 3.92729,5.88627c2.02958,1.8415 4.24527,3.68845 6.48869,5.4863c0.37357,0.19898 0.74779,0.39686 1.12273,0.59391c0.42123,-0.08329 2.31696,-0.36652 3.55892,0.97453l2.76582,0.69145c1.66995,0.37897 2.91659,1.87243 2.91659,3.65706c0,1.57701 -0.97345,2.92666 -2.35224,3.48084l-2.23118,0.95622c-0.70646,0.5794 -1.73435,0.61259 -2.51915,1.08047c-2.04954,1.22187 -4.00901,3.47662 -5.66244,5.13412l0.36912,-0.30793c0,0 -1.67705,3.3541 -5.03115,1.67705z" fill="#bbf5ba"/><path d="M255.56332,216.50623c1.85528,0.95705 4.1416,1.24111 5.66667,2.66667c0.03734,0.03491 0.07427,0.07016 0.11078,0.10575l0.01975,-0.03456l2.27013,1.29722c1.16358,0.63662 1.95268,1.87217 1.95268,3.29203c0,1.7754 -1.23378,3.26263 -2.89071,3.65109c-0.57813,1.35634 -2.19228,2.70202 -4.71487,4.25335c-0.98735,0.6072 -2.33473,-0.08768 -3.47532,0.11872c-1.00907,0.1826 -1.87617,0.9397 -2.89724,1.03445c-1.31271,0.12181 -2.62315,-0.267 -3.93472,-0.4005c-2.08316,-0.68498 -4.09236,-1.46465 -6.05397,-2.31297c1.73816,-1.77088 3.2799,-3.80746 4.61351,-6.24472c0.02779,-0.05079 0.05719,-0.10383 0.08806,-0.15901c3.27086,-1.64396 5.51526,-5.03007 5.51526,-8.94039c0,-0.11285 -0.00187,-0.22527 -0.00558,-0.33722c1.24936,0.70141 2.49984,1.37266 3.73557,2.01011z" fill="#bbf5ba"/><path d="M150.5,328.25c-3.75,0 -3.75,-3.75 -3.75,-3.75l0.02294,-2.08078c0.25775,-2.27739 0.03765,-4.69995 0.16448,-7.01236c-3.031,2.45172 -6.10154,4.86132 -9.03673,7.30731l-1.32057,0.90603c0,0 -3.12019,2.08013 -5.20031,-1.04006c-2.08013,-3.12019 1.04006,-5.20031 1.04006,-5.20031l0.67943,-0.42731c3.04417,-2.53681 5.9598,-5.24817 8.94538,-7.86549c-8.71139,1.30972 -17.3528,2.88657 -25.96851,5.05102l-1.57618,0.11197c0,0 -3.75,0 -3.75,-3.75c0,-3.75 3.75,-3.75 3.75,-3.75l-0.24284,0.11197c11.66383,-2.90319 23.36096,-4.80311 35.21405,-6.39597c-4.49755,-0.41788 -8.97754,-1.00652 -13.51192,-1.22173c-5.01429,-0.23799 -10.10378,0.00574 -15.12596,0.00574l-0.42382,0.22137c0,0 -3.63803,0.90951 -4.54754,-2.72853c-0.90951,-3.63803 2.72853,-4.54754 2.72853,-4.54754l2.24284,-0.4453c5.16084,0 10.38771,-0.24037 15.54071,0.00574c5.72131,0.27325 11.36193,1.16322 17.05813,1.51548c0.05189,-0.05858 0.08285,-0.08954 0.08285,-0.08954l0.87785,-0.86223c3.26836,-2.77375 6.64188,-4.27679 10.43008,-6.17356c0,0 0.30094,-0.15047 0.76761,-0.27113c4.79344,-4.9245 8.3354,-11.06285 14.89905,-14.39554c0,0 3.3541,-1.67705 5.03115,1.67705c0.57593,1.15186 0.55851,2.10594 0.28734,2.86223c1.02774,-0.40041 3.09688,-0.81269 4.53855,1.49399c1.9875,3.17999 -1.1925,5.16749 -1.1925,5.16749c-0.89159,0.55651 -1.76265,1.1427 -2.6182,1.75103c-0.18642,1.1639 -0.90844,2.14893 -1.90531,2.69434l-2.16997,1.23998c-0.43428,0.29839 -1.03694,0.71254 -1.72068,1.18228l-1.44886,2.11796c-0.89259,0.77162 -1.80335,1.52431 -2.73126,2.25613c-0.1282,1.1455 -0.77241,2.13502 -1.69482,2.73073l-2.3017,1.53446c-0.22026,1.0315 -1.9454,1.35501 -2.87071,2.02191c-2.64426,1.90582 -5.50858,3.45161 -8.26828,5.17642l-0.08168,0.00616l0.01782,0.03118l-0.97157,0.55518c-0.37362,0.30416 -0.78,0.51023 -1.13427,0.64815l-0.17032,0.09733c-0.56111,0.33456 -1.21696,0.52676 -1.9177,0.52676c-0.24918,0 -0.49269,-0.0243 -0.72828,-0.07067c-0.31057,0.29878 -0.62408,0.59593 -0.94028,0.89155c-0.15413,2.26136 -0.50605,4.26277 -0.96319,6.69647c-0.49476,2.63402 -0.01089,5.76348 -0.30785,8.4801l0.02294,1.25255c0,0 0,3.75 -3.75,3.75z" fill="#03b100"/><path d="M82.6091,185.98081c1.18585,-3.55756 4.74342,-2.37171 4.74342,-2.37171l1.67467,0.63498c3.94746,2.2822 8.47589,3.35564 12.40709,5.70993c2.7819,1.66601 5.58043,3.6576 8.1875,5.80607c0.18284,-0.00614 0.36453,-0.00968 0.54489,-0.01009c0,0 3.75,0 3.75,3.75c0,0.0388 -0.0004,0.0772 -0.0012,0.1152c0.04387,0.04307 0.08763,0.08616 0.13128,0.12928c1.25803,-0.93365 3.14213,-3.29773 3.66291,-3.74409c2.48223,-2.12754 5.10646,-4.12218 7.92982,-5.75629c0,0 2.01708,-1.15262 3.78321,-0.05579c1.002,-0.56196 2.69881,-1.03676 4.39563,0.66005c2.65165,2.65165 0,5.3033 0,5.3033c-0.73817,0.73276 -1.37322,1.56629 -2.01529,2.39153c0.48925,0.63348 0.78031,1.42783 0.78031,2.29016c0,1.16807 -0.53405,2.21141 -1.37131,2.89916l-1.80248,1.50207c-3.89587,4.39813 -9.41165,7.03996 -13.59123,11.25042c0,0 -0.50992,0.50992 -1.30615,0.85893c0.03702,-0.46089 0.03517,-1.00966 0.00616,-1.60563c-0.28199,0.23145 -0.49113,0.35096 -0.49113,0.35096c-1.33967,0.75468 -2.61821,1.63308 -3.79316,2.62492l-1.48402,1.11917c0,0 -3,2.25 -5.25,-0.75c-0.87881,-1.17175 -0.95671,-2.22908 -0.72527,-3.08262c-4.92347,0.95788 -10.12567,0.91596 -15.27473,0.91596h-0.66667c0,0 -3.75,0 -3.75,-3.75c0,-3.75 3.75,-3.75 3.75,-3.75h0.66667c6.29336,0 13.61768,0.52057 19.3646,-2.4964c-5.40078,0.04338 -10.99366,0.43511 -16.32841,0.97815c-5.38351,0.54801 -10.64499,3.16359 -15.89368,4.51385c0.19222,0.09373 0.37998,0.18529 0.5627,0.27465l-1.37187,0.22974c0,0 -0.40902,0 -0.95689,-0.13508l-0.30768,0.06226c0,0 -3.67718,0.73544 -4.41261,-2.94174c-0.73544,-3.67718 2.94174,-4.41261 2.94174,-4.41261l1.49259,-0.29419c4.54607,-1.13652 8.87671,-3.01491 13.42014,-4.02061c0.8736,-0.19337 1.76243,-0.36561 2.66303,-0.51901c-2.3739,-0.30641 -4.73153,-0.40509 -7.17365,-0.40568c-1.47081,-0.00036 -3.04456,-0.42768 -4.41087,0.11681c-2.46771,0.98342 -4.91579,3.30767 -7.07615,4.85136l-1.09952,0.73535c0,0 -3.12019,2.08013 -5.20031,-1.04006c-2.08013,-3.12019 1.04006,-5.20031 1.04006,-5.20031l0.90048,-0.59798c2.69544,-1.92464 5.79969,-4.68012 8.92385,-5.81531c1.89436,-0.68833 4.92704,-0.54943 6.92246,-0.54985c3.32833,-0.00071 6.5429,0.18219 9.79693,0.71436c-2.03901,-0.8163 -4.08134,-1.62753 -5.99078,-2.70845l-0.32533,-0.03168c0,0 -3.55756,-1.18585 -2.37171,-4.74342z" fill="#028b00"/><path d="M311.75725,355.56263c-0.3856,0.2155 -6.19311,0.24369 -7.78612,0.60007c-6.05947,1.35559 -11.49689,5.55426 -17.64927,6.6628c-2.90944,0.52422 -8.94834,1.25007 -10.78541,-2.53859c-0.88136,-1.81766 -0.87759,-3.41164 -0.35304,-4.81381c-0.14704,0.02148 -0.29417,0.04342 -0.44142,0.06584c-2.11005,0.32128 -4.20895,0.73402 -6.27948,1.2521c-1.48237,0.37092 -2.83876,1.53426 -4.36182,1.41054c-0.2013,-0.01635 -0.40149,-0.03862 -0.60068,-0.06617v0.11459c0,0 -4,0 -4,0c-2.07107,0 -3.75,-1.67893 -3.75,-3.75c0,-1.16807 0.53405,-2.21141 1.37131,-2.89916l1.978,-1.64833l0.15167,0.182l0.28954,-0.4985c0.57056,-0.25314 1.13192,-0.51325 1.68889,-0.7741c-0.42023,-0.13263 -0.8413,-0.25985 -1.26347,-0.38027c-3.18958,-0.90978 -5.47663,1.60989 -8.32813,1.34773c-0.13458,-0.01237 -0.26871,-0.02722 -0.40242,-0.04435l0.01208,0.10872l-2.94585,0.32732c-0.15341,0.01911 -0.30969,0.02895 -0.46827,0.02895c-2.07107,0 -3.75,-1.67893 -3.75,-3.75c0,-1.27603 0.63733,-2.40319 1.61103,-3.08055l2.29266,-1.63762l0.05491,0.07687l0.12113,-0.19524c2.79586,-1.54793 4.62841,-2.80428 7.87839,-3.49557c4.54803,-0.9674 9.34978,-0.24103 13.91668,-0.08249c6.65064,0.23088 13.16502,0.23074 19.66434,-1.15937c0.40719,-0.11381 0.7968,-0.15371 1.11087,-0.16187c0.38561,-0.01063 0.88751,0.02045 1.40271,0.17688l0.69728,0.14228c2.54363,0 6.09588,0.6256 8.18491,-1.39463c1.54572,-1.49481 2.2345,-3.70079 3.65281,-5.31699c0.8825,-1.00564 2.11469,-1.6635 3,-2.66667c2.31287,-2.62078 4.29705,-5.11066 6.77112,-7.19023c-0.35022,-2.47954 -1.44848,-4.96421 -1.0167,-7.42469c0.01513,-0.08621 0.03207,-0.1718 0.05072,-0.2568h-0.05953l0,-0.50781c-1.38871,-3.1644 -2.87584,-6.27529 -3.59384,-9.75675c0,0 -0.44654,-2.2327 1.09604,-3.56654c-0.42628,-0.7319 -0.76243,-1.51659 -0.98997,-2.35781c-1.69215,-6.25599 3.20125,-11.373 8.94194,-12.76879c3.17137,-0.77109 7.04874,0.21308 10.29584,0.20771c0,0 0.28334,0 0.69425,0.07788c0.8533,-0.14041 1.71988,-0.17274 2.60555,-0.02405c1.41482,0.23753 2.68778,1.04433 3.91577,1.78609c1.8017,1.08832 3.83241,2.02351 5.13206,3.67925c2.30967,2.9425 1.66512,6.87809 1.61009,10.19333c-1.68418,3.05495 -3.96217,6.72219 -7.46448,8.14404c-0.01156,0.00469 -0.02313,0.00935 -0.03471,0.01399c0.15394,4.04176 0.69322,7.93562 0.95091,11.97978c0.14177,2.22491 0.86591,4.24404 0.21495,6.52885c-1.21438,4.2624 -5.08837,6.37124 -8.263,8.95064c-4.7408,3.85191 -9.50151,6.97773 -14.58255,10.00654c2.90189,3.58065 1.96289,7.82301 -2.18824,10.14294zM318.32259,305.10422c0.00886,0.0241 0.01774,0.04819 0.02665,0.07226c0.01012,-0.01514 0.02026,-0.03028 0.03043,-0.04543c-0.01904,-0.00893 -0.03806,-0.01787 -0.05708,-0.02684z" fill="#028b00"/><path d="M321.25,295.5c0,-0.69036 0.55964,-1.25 1.25,-1.25c0.69036,0 1.25,0.55964 1.25,1.25c0,0.69036 -0.55964,1.25 -1.25,1.25c-0.69036,0 -1.25,-0.55964 -1.25,-1.25z" fill="#03c000"/><path d="M325.58333,295.5c0,-0.69036 0.55964,-1.25 1.25,-1.25c0.69036,0 1.25,0.55964 1.25,1.25c0,0.69036 -0.55964,1.25 -1.25,1.25c-0.69036,0 -1.25,-0.55964 -1.25,-1.25z" fill="#03c000"/><path d="M328.25,296.83333c0,-0.69036 0.55964,-1.25 1.25,-1.25c0.69036,0 1.25,0.55964 1.25,1.25c0,0.69036 -0.55964,1.25 -1.25,1.25c-0.69036,0 -1.25,-0.55964 -1.25,-1.25z" fill="#03c000"/><path d="M332.58333,300.5c0,-0.69036 0.55964,-1.25 1.25,-1.25c0.69036,0 1.25,0.55964 1.25,1.25c0,0.69036 -0.55964,1.25 -1.25,1.25c-0.69036,0 -1.25,-0.55964 -1.25,-1.25z" fill="#03c000"/><path d="M333.58333,295.5c0,-0.69036 0.55964,-1.25 1.25,-1.25c0.69036,0 1.25,0.55964 1.25,1.25c0,0.69036 -0.55964,1.25 -1.25,1.25c-0.69036,0 -1.25,-0.55964 -1.25,-1.25z" fill="#03c000"/><path d="M327.58333,291.5c0,-0.69036 0.55964,-1.25 1.25,-1.25c0.69036,0 1.25,0.55964 1.25,1.25c0,0.69036 -0.55964,1.25 -1.25,1.25c-0.69036,0 -1.25,-0.55964 -1.25,-1.25z" fill="#03c000"/><path d="M336.58333,293.5c0,-0.69036 0.55964,-1.25 1.25,-1.25c0.69036,0 1.25,0.55964 1.25,1.25c0,0.69036 -0.55964,1.25 -1.25,1.25c-0.69036,0 -1.25,-0.55964 -1.25,-1.25z" fill="#03c000"/><path d="M325.25,301.5c0,-0.69036 0.55964,-1.25 1.25,-1.25c0.69036,0 1.25,0.55964 1.25,1.25c0,0.69036 -0.55964,1.25 -1.25,1.25c-0.69036,0 -1.25,-0.55964 -1.25,-1.25z" fill="#03c000"/><path d="M326.25,300.5c0,-0.69036 0.55964,-1.25 1.25,-1.25c0.69036,0 1.25,0.55964 1.25,1.25c0,0.69036 -0.55964,1.25 -1.25,1.25c-0.69036,0 -1.25,-0.55964 -1.25,-1.25z" fill="#03c000"/><path d="M333.25,301.83333c0,-0.69036 0.55964,-1.25 1.25,-1.25c0.69036,0 1.25,0.55964 1.25,1.25c0,0.69036 -0.55964,1.25 -1.25,1.25c-0.69036,0 -1.25,-0.55964 -1.25,-1.25z" fill="#03c000"/><path d="M313.67857,296.77778c0,1.58782 1.35914,2.875 3.03571,2.875c1.67658,0 3.03571,-1.28718 3.03571,-2.875c0,-1.58782 -1.35914,-2.875 -3.03571,-2.875c-1.67658,0 -3.03571,1.28718 -3.03571,2.875z" fill="#03c000"/><path d="M329.25,306.27778c0,-1.15059 0.93274,-2.08333 2.08333,-2.08333c1.15059,0 2.08333,0.93274 2.08333,2.08333c0,1.15059 -0.93274,2.08333 -2.08333,2.08333c-1.15059,0 -2.08333,-0.93274 -2.08333,-2.08333z" fill="#03c000"/><path d="M342.81256,344.51038c-1.67705,-3.3541 1.67705,-5.03115 1.67705,-5.03115l0.86652,-0.42603c6.86381,-2.94136 13.12622,-6.7205 20,-9.66667c0,0 2.35498,-1.00928 4.00602,0.58726c2.73806,-1.8223 5.38621,-3.78723 8.31668,-5.41855c0,0 0.71161,-0.39534 1.65592,-0.48607c0.84214,-2.59607 1.88344,-5.11897 2.51806,-7.77462c0.62329,-2.60822 0.59255,-5.59026 0.92614,-8.25968c0,0 0.46513,-3.72104 4.18617,-3.25591c3.72104,0.46513 3.25591,4.18617 3.25591,4.18617c-0.0437,0.34955 -0.0827,0.70302 -0.1186,1.05939c0.46951,0.01251 0.96902,0.12557 1.46531,0.40563c0.59118,-0.80986 1.60871,-1.51695 3.34637,-1.32387c3.72706,0.41412 3.31295,4.14118 3.31295,4.14118c-0.96506,8.48563 -2.87744,17.2848 -8.53241,24.00979c-2.07685,2.46982 -4.64761,4.66165 -7.08752,6.75664l-2.36034,1.60631c0,0 -1.68922,1.12614 -3.41044,0.47832c-0.25028,0.43722 -0.53443,0.85162 -0.87096,1.23075c-0.78086,0.87969 -2.02351,1.20687 -2.97188,1.90272c-3.06363,2.24789 -5.55988,5.09548 -8.64721,7.31953l-4.99476,-6.11088c0,0 1.04515,-2.61288 3.58816,-2.40627c1.14737,-1.03699 2.26035,-2.11571 3.43014,-3.1272c-3.59194,2.15972 -7.24657,4.18042 -10.90958,6.26828c-0.27373,0.25788 -2.77616,2.47865 -5.27858,-0.02378c-2.65165,-2.65165 0,-5.3033 0,-5.3033l1.12446,-0.93759c1.33961,-0.76549 2.67837,-1.51987 4.01347,-2.27416c-2.29681,1.15759 -4.61603,2.28451 -7.00908,3.3102l-0.46681,0.24064c0,0 -3.3541,1.67705 -5.03115,-1.67705z" fill="#04d400"/><path d="M161.30452,103.35742c0.19992,0.04207 0.39978,0.08489 0.59958,0.12841c-0.06514,-0.1443 -0.12457,-0.28836 -0.1785,-0.43219c-0.13903,0.10411 -0.27942,0.2054 -0.42108,0.30378zM195.55268,92.88836c1.52761,3.18935 1.83558,7.65668 2.60802,11.13149c0,0 0.02811,0.12648 0.05036,0.33764c1.82562,4.83746 2.54335,11.66005 -0.70427,16.0501c-2.81191,3.80108 -10.46804,6.81616 -14.875,7.48013c0,0 -3.04733,0.38092 -3.9713,-2.30438h-0.49383c-6.73471,0 -13.48835,-0.29242 -20.20738,-0.67241c-7.16541,-0.40523 -13.61415,-0.36723 -20.57319,-2.39792l-0.46227,-0.04165c-5.9855,-1.61835 -10.93686,-6.18406 -15.73614,-10.01913c-2.58495,-2.06562 -4.20137,-2.37825 -5.03153,-6.2168c-1.44816,-6.69612 5.77342,-13.70605 10.81666,-16.65801c0,0 3.25591,-1.86052 5.11643,1.39539c0.02316,0.04054 0.04553,0.08086 0.06713,0.12096l1.38414,-1.12444c4.07998,-1.75189 7.44257,-1.42008 11.6528,-2.16432c3.02063,-0.53396 5.80012,-1.745 8.65664,-2.81626c0,0 1.45895,-0.5471 2.84863,0.00445c-0.29619,-1.95995 1.40072,-3.37404 1.40072,-3.37404c1.21087,-1.00906 2.58515,-1.84344 3.65214,-3.00358c0.76749,-0.83449 1.16875,-2.00773 2.0639,-2.70353c4.94556,-3.84415 15.52795,-4.70966 18.81587,1.48621c0.64245,1.21065 0.1903,2.73449 0.28545,4.10173v1.66667c0,0 0,0.79128 -0.36348,1.64689c5.19421,0.71974 10.56116,2.98403 12.9995,8.0748zM175.41667,83.16667v-1.66667c0.5078,-2.19096 -0.99648,-1.01015 -3.30197,-0.63406c-2.72912,0.4452 -4.41694,1.89938 -6.14706,3.60469c3.19042,-0.35555 6.38247,-0.58878 9.57013,-0.4053c-0.1211,-0.51837 -0.1211,-0.89866 -0.1211,-0.89866zM172.03361,94.38322c-0.13652,0.3969 -0.2777,0.64397 -0.2777,0.64397c-0.8854,1.54744 -1.62052,3.17837 -2.52066,4.71728c-0.14614,0.24985 -1.03654,0.48001 -0.75027,0.43721c1.95227,-0.29186 3.85003,1.61423 5.68411,1.96182c2.31201,0.43817 4.91814,-0.44949 7.32984,-0.72392c-0.36249,-0.47294 -0.70959,-0.96674 -1.08373,-1.37165c-1.82474,-1.97484 -2.57111,-3.47543 -5.05907,-4.43448c-1.13469,-0.48978 -2.22031,-0.89976 -3.32252,-1.23024z" fill="#03c500"/><path d="M155.25,120.16667c0,3.75 -3.75,3.75 -3.75,3.75h-0.66667c-6.63953,-0.04833 -11.92507,-2.58992 -17.50574,-5.81526c-2.51858,-1.45561 -5.30285,-2.17409 -7.81609,-3.75537c-2.95445,-1.85889 -5.6851,-4.10012 -8.52449,-6.12787c0,0 -3.0515,-2.17964 -0.87186,-5.23114c2.17964,-3.0515 5.23114,-0.87186 5.23114,-0.87186c2.71433,1.93917 5.32443,4.08446 8.14218,5.87213c2.40302,1.52455 5.07026,2.19334 7.51725,3.57796c4.42815,2.50565 8.52778,4.90398 13.82759,4.85141h0.66667c0,0 3.75,0 3.75,3.75z" fill="#03c800"/><path d="M156.19898,89.1165c-0.6165,3.69898 -4.31547,3.08248 -4.31547,3.08248l-0.474,-0.39428c-3.49311,0.8644 -6.47563,2.39637 -9.76564,3.80876c0,0 -3.44679,1.4772 -4.92399,-1.9696c-1.4772,-3.44679 1.9696,-4.92399 1.9696,-4.92399c3.66106,-1.56614 7.01323,-3.21083 10.90102,-4.19124l3.526,0.27239c0,0 3.69898,0.6165 3.08248,4.31547z" fill="#06c703"/><path d="M181.25,81.83333c0,3.75 -3.75,3.75 -3.75,3.75h-1.66667c-2.80757,-0.00425 -9.44804,1.32261 -11.86276,-0.19587c-0.05952,-0.03743 -0.11835,-0.07567 -0.17652,-0.1147c-0.82071,0.6169 -1.63776,1.26212 -2.43196,1.99632c-2.36264,2.18416 -3.82777,4.61029 -6.76554,6.20719c-6.4965,3.53135 -14.98708,2.77372 -22.09656,2.77372h-1c0,0 -3.75,0 -3.75,-3.75c0,-3.75 3.75,-3.75 3.75,-3.75h1c5.81204,0 13.18888,0.8775 18.57011,-1.89295c2.12097,-1.09195 3.50661,-3.55208 5.23446,-5.12614c0.80544,-0.73376 1.63591,-1.35821 2.46535,-1.95306c0.1658,-1.60953 1.34958,-2.91716 2.89668,-3.26825l1.71786,-0.42946c0.19313,-0.20657 0.38264,-0.42191 0.56805,-0.6475c0,0 2.40069,-2.88083 5.28152,-0.48014c0.25935,0.21613 0.4759,0.43614 0.65524,0.6576c0.62227,-0.04448 1.24354,-0.10036 1.86328,-0.1705c0,0 3.26296,-0.36255 4.02201,2.64386c0.01959,-0.00006 0.03919,-0.0001 0.05878,-0.00013h1.66667c0,0 3.75,0 3.75,3.75z" fill="#04c714"/><path d="M189.18744,117.15628c1.67705,3.3541 -1.67705,5.03115 -1.67705,5.03115l-3.67705,1.3959c-13.8708,-0.02769 -28.64934,-2.14298 -41.24447,-8.01475c-5.09627,-2.37585 -9.99781,-4.3218 -13.01144,-9.20806c0,0 -1.86052,-3.25591 1.39539,-5.11643c3.25591,-1.86052 5.11643,1.39539 5.11643,1.39539c1.78468,3.70208 8.10025,5.52296 11.84582,7.06264c11.09824,4.56212 23.85796,6.40931 35.89827,6.38121l0.32295,-0.6041c0,0 3.3541,-1.67705 5.03115,1.67705z" fill="#04c114"/><path d="M190.25,116.5c0,3.75 -3.75,3.75 -3.75,3.75l-1.1318,-0.02896c-1.70071,-0.21259 -3.40115,-0.42735 -5.10122,-0.64496c-6.502,0.01936 -12.95257,-0.28136 -19.38168,-1.37681c-2.98387,-0.50842 -5.60952,-1.72613 -8.54134,-2.37397c-4.20303,-0.92874 -8.13808,-1.40681 -12.10437,-3.26416c-3.66217,-1.71494 -6.66358,-4.35553 -9.91924,-6.67631c0,0 -3.0515,-2.17964 -0.87186,-5.23114c2.17964,-3.0515 5.23114,-0.87186 5.23114,-0.87186c2.86433,2.04969 5.51948,4.49065 8.74743,5.99035c3.46692,1.61073 6.87844,1.91332 10.5623,2.73584c2.78003,0.62072 5.31319,1.83693 8.12533,2.2927c6.20895,1.00631 12.34791,1.27419 18.61832,1.28986c1.85542,0.22725 3.7106,0.45652 5.56545,0.68838l0.20154,-0.02896c0,0 3.75,0 3.75,3.75z" fill="#04c614"/><path d="M198.7156,125.09603c-0.75328,1.23726 -1.36502,2.57267 -2.25983,3.71177c-0.05103,0.06497 -0.10245,0.12979 -0.15427,0.19441c2.26765,0.62414 4.13793,1.85116 4.56675,4.23044c0.39287,2.17983 -1.92352,4.09605 -3.50891,5.64284c-5.61609,5.47935 -14.54194,3.75791 -21.27433,5.36605l-0.63279,-0.31136l-0.03299,0.29688l-2.95503,-0.32834c-0.61575,-0.06016 -1.18784,-0.26925 -1.67977,-0.59078c-2.1057,2.8205 -5.4149,4.75024 -8.82622,5.24729c-5.05962,0.73721 -8.73824,0.32432 -11.28462,-4.69113c-0.54459,-1.07264 -0.37086,-2.34823 -0.35591,-3.58723c-2.30564,0.99465 -4.96094,1.50819 -7.21534,0.68711c-0.51964,-0.18926 -0.7811,-0.60108 -0.91821,-1.12736c-1.06858,0.55232 -2.09371,1.27174 -3.27492,1.39098c-2.78689,0.28133 -8.20876,-2.05951 -10.38365,-3.77184c-2.35703,-1.85573 -3.2608,-4.82927 -5.43447,-6.74849c-1.37703,-1.21585 -2.55298,-0.60766 -4.28892,-1.53032c-7.44391,-3.9565 -8.4327,-11.95984 -7.70021,-19.38343c0,0 0.37314,-3.73139 4.10453,-3.35825c2.92059,0.29206 3.32661,2.64149 3.36517,3.64873c0.89419,0.01675 1.71184,0.34649 2.34796,0.88426l1.98109,1.65091c3.1655,2.78417 8.33158,3.6114 12.07114,5.09841c5.48189,2.17984 10.89617,5.47128 16.93736,6.05481c6.24391,0.60311 11.97283,-2.27958 18.15901,-1.31243c1.44962,0.22664 4.64578,0.64154 6.40371,1.60306c2.85618,-0.13213 3.82742,0.06488 6.88967,0.78729c1.52793,0.36045 4.37124,1.82094 6.03607,0.54443c1.34924,-1.03453 2.07526,-2.77947 2.88676,-4.15744l0.96464,-1.60773c0.2379,-0.41259 0.55208,-0.77565 0.92328,-1.06991c0.84842,-0.72595 2.2748,-1.40542 4.14841,-0.33878c0.06699,0.03727 0.13271,0.07654 0.1971,0.11772c1.83418,1.14792 1.91349,2.72577 1.67465,3.81927c-0.08476,0.479 -0.26045,0.9266 -0.5086,1.32433z" fill="#bbf5ba"/><path d="M164.71314,96.41987c1.22828,-1.84242 2.81919,-1.87164 3.91622,-1.5866c1.41616,-2.54873 4.38982,-1.55751 4.38982,-1.55751c1.96851,0.65831 7.51018,2.13835 7.75878,4.5471c0.9692,9.3908 -8.26717,7.40156 -12.62168,5.36456l-2.40307,-1.56725c0,0 -3.12019,-2.08013 -1.04006,-5.20031z" fill="#f5f5f5"/><path d="M163.75,98.16667c0,-2.07107 1.67893,-3.75 3.75,-3.75c2.07107,0 3.75,1.67893 3.75,3.75c0,2.07107 -1.67893,3.75 -3.75,3.75c-2.07107,0 -3.75,-1.67893 -3.75,-3.75z" fill="#000000"/></g></g></svg>