<svg version="1.1" xmlns="http://www.w3.org/2000/svg" xmlns:xlink="http://www.w3.org/1999/xlink" width="666.44137" height="429.00779" viewBox="0,0,666.44137,429.00779"><g transform="translate(261.91667,79.25)"><g data-paper-data="{&quot;isPaintingLayer&quot;:true}" fill-rule="nonzero" stroke="none" stroke-linecap="butt" stroke-linejoin="miter" stroke-miterlimit="10" stroke-dasharray="" stroke-dashoffset="0" style="mix-blend-mode: normal"><path d="" fill="#d40000" stroke-width="0.5"/><path d="" fill="#ff0000" stroke-width="0.5"/><path d="" fill="#ff0000" stroke-width="0.5"/><path d="" fill="#ff0000" stroke-width="0.5"/><path d="" fill="#949494" stroke-width="0.5"/><path d="M-261.91667,-75.5c0,-2.07107 1.67893,-3.75 3.75,-3.75c2.07107,0 3.75,1.67893 3.75,3.75c0,2.07107 -1.67893,3.75 -3.75,3.75c-2.07107,0 -3.75,-1.67893 -3.75,-3.75z" fill="#949494" stroke-width="0.5"/><path d="M132.93625,240.06884c0.00716,-0.1328 0.06487,-0.27279 0.14576,-0.41644l0.43321,-1.23774c-0.11759,-2.3058 -0.21876,-4.61153 -0.21876,-6.9461c0,0 0,-0.51753 0.23155,-1.08948c0.0078,-0.08247 0.01887,-0.16738 0.03344,-0.25478c0.42503,-2.55018 2.97521,-2.12515 2.97521,-2.12515l1.2745,0.2146c3.32697,0.42585 6.94076,-0.00927 10.0437,1.52468c-0.01996,-0.1592 -0.04011,-0.31823 -0.06044,-0.47709l0.02317,0.37591c0,0 -1.1562,-2.31241 1.15621,-3.46862c2.31241,-1.1562 3.46862,1.15621 3.46862,1.15621l0.48279,1.29515c0.66169,5.40239 1.16901,10.9605 1.16901,16.40733c0,5.31467 0.5109,11.27182 -2.11602,16.10297c-0.62417,1.1479 -1.1273,2.49625 -2.19738,3.24605c-1.64479,1.1525 -3.21487,1.13139 -4.77688,0.78363l-0.05786,0.135c-0.38207,0.95058 -1.31256,1.6217 -2.39979,1.6217c-1.13101,0 -2.09241,-0.72626 -2.44325,-1.73786l-0.41251,-1.10525c-0.68684,0.05301 -1.37853,0.15181 -2.05631,0.06603c-1.92154,-0.24318 -3.70705,-1.36806 -5.65916,-1.35949c-2.66241,0.01169 -5.44922,2.14367 -7.97772,2.01437c-0.08223,-0.00421 -0.16419,-0.01009 -0.2459,-0.01752l0.00618,0.05563l-2.03096,0.22566c-0.10576,0.01317 -0.2135,0.01996 -0.32283,0.01996c-1.106,0 -2.04978,-0.69448 -2.41907,-1.67115l-1.15812,0.23162c-0.18013,0.03973 -0.36731,0.06068 -0.55938,0.06068c-1.42785,0 -2.58536,-1.15751 -2.58536,-2.58536c0,-0.42953 0.10475,-0.83459 0.29009,-1.19103c-0.54837,-0.43516 -0.91601,-1.08823 -0.97205,-1.82833c0.79866,-0.35627 1.55395,-0.90807 2.15493,-1.45475c0.08456,-0.07691 0.15362,-0.1748 0.21768,-0.27855c0.21085,-0.20875 0.40828,-0.43103 0.59091,-0.6654c0.14667,-0.04076 4.75444,-0.38637 5.88267,-0.53302c3.1725,-0.41238 6.14997,-2.31913 7.95679,-4.94401c0.4089,-0.05311 0.84596,-0.09884 1.27351,-0.12078c0.14021,-0.26262 0.27547,-0.52589 0.38326,-0.79375c0.40411,-1.00424 0.81543,-2.2067 1.31306,-3.40492c-0.46493,-0.13664 -0.87545,-0.40042 -1.19134,-0.75113c0.11099,-1.37844 0.08755,-2.76215 0.03044,-4.15252zM124.81531,256.41468c0.00022,0.0004 0.00044,0.00079 0.00066,0.00119l0.49074,-0.06135c-0.00456,-0.02206 -0.00883,-0.04422 -0.01283,-0.06648c-0.16127,0.03935 -0.3214,0.08142 -0.47857,0.12664z" fill="#949494" stroke-width="0.5"/><path d="M127.88823,198.19091c0.20405,-0.05567 0.40741,-0.11403 0.61014,-0.17439c-0.06244,-0.04064 -0.12301,-0.0839 -0.18157,-0.12963c-0.12842,0.11559 -0.27502,0.21314 -0.42857,0.30402zM145.36414,162.72073c0.03729,0.23931 0.03402,0.48874 0.00662,0.7443c0.06928,5.91541 0.54247,11.70182 1.98214,17.50922c0.63247,2.55131 1.88478,4.8235 2.53316,7.37534c0.91956,4.03277 1.41676,8.15206 0.75293,12.29903c-0.214,1.33686 -0.1423,3.02774 -1.19202,3.88277c-0.8265,0.67321 -4.85342,0.30572 -6.20893,0.06615c-3.42513,-0.60533 -7.43705,-2.7321 -10.94709,-2.2767c-2.52228,0.32724 -6.17592,2.8541 -8.76638,1.15414c-0.79366,-0.52082 -1.63811,-1.22904 -2.15029,-2.06165c-0.06609,0.00507 -0.13287,0.00764 -0.20025,0.00764c-1.42785,0 -2.58535,-1.1575 -2.58535,-2.58536c0,-0.1394 0.01103,-0.27623 0.03227,-0.40965l0.20042,-1.40292c-0.13196,0.02077 -0.26724,0.03154 -0.40504,0.03154c-1.42785,0 -2.58536,-1.1575 -2.58536,-2.58535c0,-0.43423 0.10706,-0.84346 0.29621,-1.20273l0.89598,-1.79196l0.09828,0.04914l0.05044,-0.30802c2.33169,-2.74552 5.85406,-4.74742 9.22727,-6.07844c-0.03052,-8.37632 -0.22998,-16.59683 2.18039,-24.73326c0,0 0.74289,-2.47632 3.21922,-1.73343c0.87655,0.26297 1.34975,0.74313 1.59531,1.25378c1.37526,-1.05414 2.65848,-1.51868 4.60843,-1.57564c0.17991,-0.55591 0.91413,-2.2655 3.0364,-1.79389c0.59292,0.13176 1.01559,0.37186 1.31528,0.66213c0.13732,-0.02254 0.27828,-0.03427 0.42198,-0.03427c1.42785,0 2.58535,1.1575 2.58535,2.58535v2.06829c0,0.29516 0.00087,0.58997 0.00268,0.88444zM131.56237,176.20771c-0.00398,0.17792 -0.00751,0.3559 -0.01065,0.53393c0.04559,-0.11158 0.09049,-0.22367 0.13475,-0.33621c-0.04423,-0.06387 -0.08565,-0.12984 -0.1241,-0.19772z" fill="#7f7f7f" stroke-width="0.5"/><path d="M218.35521,179.69433c-4.36891,-3.64815 -8.09829,-7.83202 -11.55626,-12.30421l-0.03259,-0.22006l-0.07481,0.04081l-1.35591,-2.48583c-0.2155,-0.37741 -0.33864,-0.81437 -0.33864,-1.28008c0,-1.42785 1.1575,-2.58536 2.58536,-2.58536c0.13727,0 0.27204,0.0107 0.40352,0.03131c-1.07288,-2.82873 -1.5226,-6.03545 2.61178,-6.42965c2.84256,-0.27103 5.34222,2.5897 7.34546,4.21758c2.44511,1.98694 5.2743,3.33546 7.75716,5.24123c1.61915,1.24281 2.89108,2.72234 4.18108,4.24623c2.52262,1.81859 4.4145,4.30008 6.89586,6.13131l0.03725,0.08588l0.02755,-0.03214l1.59591,1.36792c0.56005,0.47424 0.91559,1.18254 0.91559,1.97388c0,0.87357 -0.43326,1.64594 -1.09661,2.11396c0.80265,5.48266 1.44524,10.96627 0.35698,16.54801l-0.31227,0.99996c0,0 -0.14237,0.4271 -0.48651,0.86544c1.0274,0.342 1.76823,1.31127 1.76823,2.45357c0,0.99052 -0.55703,1.85094 -1.37493,2.28508l-0.63122,0.35068c-0.47568,1.29373 -1.82801,1.51335 -2.27344,1.55064c-0.69725,0.49595 -1.69466,0.73632 -2.42314,1.20568l-0.70146,0.36748c0,0 -2.11877,1.05938 -3.31414,-0.87808c-0.18316,0.21755 -0.40154,0.40447 -0.64635,0.55196l-1.80053,1.12532l-0.02182,-0.03492c-0.02792,0.0325 -0.05585,0.06499 -0.08376,0.09748l-0.13327,0.0078l0.02483,0.04968l-2.7112,1.3556c-0.35927,0.18915 -0.7685,0.2962 -1.20273,0.2962c-1.42785,0 -2.58535,-1.1575 -2.58535,-2.58536c0,-0.29093 0.04806,-0.57063 0.13666,-0.83161c-0.03378,0.01256 -0.0676,0.02557 -0.10146,0.03904c-1.14622,0.45612 -2.14533,1.64934 -3.37259,1.52401c-0.39459,-0.04029 -0.82169,-0.09974 -1.25236,-0.18721c-0.10542,0.07259 -0.21326,0.14206 -0.32379,0.20804c-4.30987,2.57283 -5.81929,1.48143 -7.03061,-3.33494c-0.2476,-0.9845 0.29626,-2.02228 0.64009,-2.97744c0.77464,-2.15198 2.46888,-3.41204 3.87342,-5.07358c1.21386,-1.43598 1.21399,-2.22624 2.93129,-3.37101c0.93124,-0.62078 1.91618,-1.33993 3.03035,-1.44578c0.41968,-0.03987 0.82336,0.06706 1.22146,0.22525c-0.0346,-2.1739 -0.09777,-4.36241 0.0217,-6.51984c0.07121,-1.28605 0.25315,-2.55217 0.46884,-3.8113c-0.5445,-0.33364 -1.06859,-0.73108 -1.59259,-1.16863z" fill="#6f6f6f" stroke-width="0.5"/><path d="M205.5834,224.48564c-0.75356,-0.23461 -1.73544,-0.846 -1.73544,-2.43927c0,-2.58535 2.58536,-2.58535 2.58536,-2.58535l2.44574,0.93025c0.79639,0.95875 1.59175,1.80235 2.32337,2.72206c0.4107,-0.27475 0.90451,-0.43498 1.43574,-0.43498c0.23653,0 0.46563,0.03176 0.68329,0.09125l1.78223,0.44556l-0.01655,0.06621c0.18623,0.02885 0.37078,0.07234 0.55335,0.13337c0.34728,0.11609 0.67839,0.26687 0.99583,0.44486c0.42613,-0.30938 0.9504,-0.49183 1.51728,-0.49183c0.80531,0 1.52461,0.3682 1.99877,0.94542l1.07954,1.29546c2.14352,2.13528 4.58646,3.96603 6.64392,6.18437c3.25498,3.5095 5.33554,8.06193 7.68991,12.18141c0,0 1.28269,2.24471 -0.96202,3.52741c-0.02588,0.01478 -0.05161,0.0291 -0.07724,0.04296c-0.31737,2.94123 -0.74993,5.89175 -1.18877,8.74086c-0.42558,2.763 -0.90749,6.64893 -3.62277,8.2568c-2.00782,1.18894 -3.94046,0.13989 -5.68548,-0.59255c-0.63521,-0.26662 -1.25655,-0.93973 -1.92169,-0.7604c-1.73408,0.46751 -2.64805,2.7442 -4.40909,3.09681c-0.21529,0.04311 -0.43107,0.06716 -0.64723,0.07576l0.00879,0.07916l-2.03095,0.22566c-0.10576,0.01317 -0.21351,0.01997 -0.32284,0.01997c-1.42785,0 -2.58535,-1.15751 -2.58535,-2.58536c0,-0.22642 0.0291,-0.44604 0.08378,-0.65533c-0.03438,0.00808 -0.06915,0.01507 -0.10437,0.0209c-0.13757,0.02277 -0.27543,0.04187 -0.41352,0.0577l0.02276,0.08347l-2.47077,0.67385c-0.23367,0.06941 -0.48117,0.10667 -0.73738,0.10667c-1.36076,0 -2.47598,-1.05128 -2.57778,-2.38596c-0.05698,0.15459 -0.1239,0.28586 -0.21703,0.36434c-0.0412,0.06947 -0.07969,0.1327 -0.11529,0.18905l-0.07449,0.03722l0.03257,0.02327l-1.12902,1.58062c-0.46699,0.67129 -1.24409,1.11069 -2.12382,1.11069c-1.42785,0 -2.58535,-1.1575 -2.58535,-2.58535c0,-0.48311 0.1325,-0.93527 0.36316,-1.32212l0.89672,-1.56925l0.01002,0.00573c0.20551,-0.66686 0.61771,-1.34335 1.40351,-2.22366c0.10728,-0.12018 0.23142,-0.252 0.37059,-0.39269c1.35437,-2.31454 2.90411,-4.79578 5.06085,-6.10973c0.9138,-0.55672 1.92824,-0.93026 2.91333,-1.34809c0.66864,-0.28361 1.69704,-0.1723 2.01696,-0.82435c0.47645,-0.97112 0.60028,-2.37421 0.70041,-3.76454c0.09595,0.02514 0.19119,0.0491 0.2856,0.07178c-1.03163,-1.01064 -1.92754,-2.20006 -2.54451,-3.13349c-2.53786,-3.83957 -5.30656,-7.62698 -7.73525,-11.51411l0.00317,-0.21732l-0.08837,0.03787l-0.66691,-1.55613c-0.14871,-0.32631 -0.23155,-0.68895 -0.23155,-1.07095c0,-1.42785 1.1575,-2.58535 2.58536,-2.58535c0.64773,0 1.23983,0.2382 1.69347,0.63178l0.06896,0.05911c-0.39558,-0.47499 -0.8105,-0.93251 -1.23349,-1.41151z" fill="#7b7b7b" stroke-width="0.5"/><path d="M312.81779,209.45278c-0.31372,0.08513 -0.64378,0.13056 -0.98445,0.13056c-0.67255,0 -1.30374,-0.17705 -1.84952,-0.48708c-0.65826,0.66986 -1.34031,1.32561 -2.08312,1.95124l-0.40069,0.70251c0,0 -1.46599,1.95465 -3.60908,1.52509c-0.01196,0.10198 -0.02802,0.2027 -0.04801,0.30201c-0.17842,1.10008 -0.82654,2.52994 -2.93148,2.93228c-0.07571,0.01525 -0.15224,0.02823 -0.22952,0.03885c-0.12765,0.01885 -0.25154,0.03248 -0.37178,0.04126c4.20444,-0.02132 8.42281,-0.17282 12.52321,-0.17282h1.33333c0,0 3.75,0 3.75,3.75c0,3.75 -3.75,3.75 -3.75,3.75h-1.33333c-5.54348,0 -11.0473,0.01228 -16.56635,-0.34058c-2.69671,-0.17242 -5.49234,0.31239 -8.17618,-0.01515c-2.98122,-0.36383 -5.43839,-1.67194 -8.38927,-2.00656c0,0 -3.72104,-0.46513 -3.25591,-4.18617c0.46513,-3.72104 4.18617,-3.25591 4.18617,-3.25591c0.20371,0.02717 0.40564,0.05883 0.60602,0.09434c-0.55919,-0.53638 -0.95251,-1.24436 -1.09529,-2.03931l-0.65304,-3.26522l0.10103,-0.02021l-0.14124,-0.22173c-0.26777,-3.9509 -1.7549,-10.47695 -0.01163,-14.22778l0.32429,-3.56715c0.05203,-0.6541 0.2719,-1.26093 0.61653,-1.7774c-0.70889,-0.54201 -1.29514,-1.43848 -1.29514,-2.92118c0,-3.75 3.75,-3.75 3.75,-3.75c8.22222,0 17.44445,0 25.66667,0c7.27632,0 14.36742,0.54274 21.42383,-1.22136c6.54611,-1.48936 10.41537,-7.77468 16.20784,-10.70365c5.27875,-2.66921 11.43435,-3.39306 16.8377,-5.74838c3.95415,-1.72361 6.93453,-4.27629 11.50495,-4.32652c5.28832,-0.05812 10.00419,2.30184 14.69943,4.39416c3.59346,1.99228 7.06602,3.79794 10.00966,6.73624c8.37757,8.36238 5.9384,20.49722 -0.70325,29.22908c-5.48857,7.21589 -14.72363,12.14814 -22.32599,16.90377c0,0 -0.87809,0.54881 -1.99982,0.60823c-0.70633,0.36242 -1.6378,0.50348 -2.8402,0.10268c-0.19837,-0.06612 -0.38199,-0.13962 -0.5519,-0.21947c-0.61512,1.62127 -2.40972,2.21947 -2.40972,2.21947l-0.86914,0.287c-6.06492,2.27435 -10.94047,4.22176 -17.46354,2.81614c0,0 -1.28987,-0.28664 -2.16814,-1.28528c-0.93124,0.52931 -2.28046,0.80766 -3.86468,-0.32392c-3.0515,-2.17964 -0.87186,-5.23114 -0.87186,-5.23114c1.91645,-2.65786 3.16853,-5.59524 5.15051,-8.11056c-0.2427,-0.29592 -0.441,-0.62964 -0.58475,-0.99098c-0.17239,-0.0223 -0.34112,-0.0563 -0.50535,-0.10119l-3.73859,-0.93465c-2.36226,0.07314 -4.67796,-0.69182 -7.02685,-0.95695c-3.60908,-0.40738 -7.25401,-0.62055 -10.87121,-1.02328c-2.19684,0.91141 -4.38397,1.84672 -6.57361,2.77589c-0.09415,0.1958 -0.20841,0.39639 -0.34513,0.60147c-1.60325,2.40488 -3.82434,1.72051 -4.75847,1.28032zM298.58333,200.91667v0.53379c0.17803,-0.18757 0.35912,-0.3654 0.5431,-0.53379zM294.63361,216.26519c-0.03418,0.08266 -0.07122,0.16384 -0.11102,0.2434c0.14186,0.00539 0.28381,0.01048 0.42584,0.01529c-0.10964,-0.08056 -0.21473,-0.16694 -0.31482,-0.25869zM287.43946,215.24911l-0.08072,-0.64577c-1.03026,0.64667 -2.19207,0.64667 -2.19207,0.64667l-0.11412,-0.20265c-0.0917,0.03151 -0.185,0.05956 -0.27974,0.084c0.92424,0.28083 1.84647,0.55797 2.79411,0.75629c-0.06025,-0.20605 -0.10329,-0.41945 -0.12745,-0.63854zM306.71993,192.3661c0.01504,-0.05419 0.03075,-0.1086 0.04714,-0.1632l-0.18546,0.18546c0.0461,-0.00749 0.0922,-0.01491 0.13832,-0.02227zM299.6964,216.59164c-0.1204,-0.00852 -0.23645,-0.02237 -0.34831,-0.04106c-0.0195,0.01397 -0.03915,0.02776 -0.05894,0.04137c0.13572,0.00005 0.27147,-0.00006 0.40725,-0.00032zM396.15622,180.5163c0.09495,0.14813 0.19157,0.29515 0.29011,0.44092c-0.10101,-0.29687 -0.21586,-0.5907 -0.34512,-0.88099zM364.84996,213.65543l1.13086,-0.37966c0,0 1.60715,-0.53571 3.0211,0.19321c0.82175,-2.4681 1.62034,-4.94393 2.40557,-7.4237c-3.29742,0.51036 -6.39455,1.68769 -9.51015,2.93466c-3.00889,1.20426 -6.03377,1.81648 -8.12932,4.5213c-0.66757,0.86166 -1.23422,1.7934 -1.77081,2.74763c4.74455,0.96807 8.3663,-0.91101 12.85276,-2.59343z" fill="#949494" stroke-width="0.5"/><path d="M358.41417,207.44017c3.4207,-0.29806 6.30238,-1.59297 9.68373,-2.28401c0,0 3.67718,-0.73543 4.41261,2.94174c0.73543,3.67718 -2.94174,4.41261 -2.94174,4.41261c-1.04184,0.20281 -2.0335,0.45308 -3.00583,0.7163c-0.17572,1.68519 -1.46749,3.0385 -3.12311,3.30773l-3.3832,0.61513l-4.03697,1.24215c-0.37284,0.12424 -0.77172,0.19152 -1.18632,0.19152c-2.07107,0 -3.75,-1.67893 -3.75,-3.75c0,-1.1625 0.52897,-2.20146 1.35935,-2.8893c-0.01718,-0.14562 -0.02601,-0.2938 -0.02601,-0.44404c0,-1.93053 1.45882,-3.52035 3.33423,-3.72721l2.61731,-0.32716l0.0027,0.02163z" fill="#ffffff" stroke-width="0.5"/><path d="M342.21313,212.56143c-0.40443,0.3307 -0.78202,0.70875 -1.22681,0.953c1.07169,0.37828 2.29824,0.68 2.5521,1.67763c0.57861,2.27383 0.33267,5.0665 -1.05343,6.95959c-1.03995,1.42032 -3.34963,1.13079 -5.08531,1.42444c-2.95884,0.50058 -5.56019,-1.10615 -8.44149,-0.68752c-1.57574,0.22894 -4.7679,1.64081 -6.23004,1.00237c-0.27715,-0.12102 -0.54514,-0.25748 -0.8056,-0.4066l-0.07259,0.19356l-2.5847,-0.96926c-1.46445,-0.51046 -2.51526,-1.9035 -2.51526,-3.54198c0,-0.54682 0.11703,-1.06629 0.32743,-1.53475c-0.50757,-0.20319 -0.96505,-0.42719 -1.35395,-0.67074c-0.13218,-0.08278 -0.26038,-0.17023 -0.38498,-0.26187l-0.03235,0.05661l-2.27013,-1.29721c-0.41301,-0.22597 -0.77884,-0.52739 -1.07895,-0.88573c0.00592,0.38812 -0.04942,0.81715 -0.18469,1.29057c-1.03021,3.60572 -4.63592,2.57551 -4.63592,2.57551l-4.74992,-2.79519c-0.31682,-1.79946 -1.85859,-3.81292 -0.95045,-5.39838c1.21377,-2.11902 6.54397,-3.3192 9.09055,-3.7738c7.27256,-1.29826 13.73879,-3.29049 21.39402,-2.31177c0.34474,0.04407 0.66041,0.19029 0.97003,0.35978c0.96898,-0.02855 1.99509,0.19867 3.09085,0.77017c1.05716,-0.03393 2.12881,-0.21223 3.18512,-0.20653c0.72652,0.00392 1.88295,-0.6296 2.1964,0.00215l0.04214,-0.01054l-0.037,-0.29599l2.60798,-0.326c0.17118,-0.02392 0.34605,-0.03629 0.52382,-0.03629c2.07107,0 3.75,1.67893 3.75,3.75c0,1.78463 -1.24664,3.27809 -2.91659,3.65706l-2.59057,0.64765l-0.04039,-0.16155c-0.13489,0.08477 -0.2718,0.16666 -0.41093,0.24542c-0.00392,0.00222 -0.03102,0.00428 -0.07839,0.00619z" fill="#ffffff" stroke-width="0.5"/><path d="M339.62407,78.5743c-1.46859,2.23817 -4.16944,5.20011 -6.04218,7.14344c-3.96386,4.11326 -9.61358,4.87567 -14.97558,5.5064c-4.71694,0.55485 -8.33512,0.97549 -12.95882,-0.49991l-0.14748,0.19243c0,0 -1.71374,0 -2.82419,-1.15851c-4.23762,1.99786 -8.34616,1.92779 -13.36282,2.46105c-1.01783,0.10819 -1.79683,0.22786 -2.48553,0.38825c-2.52179,1.80912 -5.03058,3.6437 -7.63002,5.38564l-0.95345,-0.20793l0.05448,0.43587l-2.60799,0.326c-0.17118,0.02393 -0.34605,0.0363 -0.52381,0.0363c-2.07107,0 -3.75,-1.67893 -3.75,-3.75c0,-0.51237 0.10276,-1.00075 0.28879,-1.44563c-0.37158,-0.53297 -0.62212,-1.25173 -0.62212,-2.22104c0,-3.75 3.75,-3.75 3.75,-3.75c3.42435,0.00704 5.68279,-0.85916 8.61187,-1.72164c3.07239,-2.18812 6.23769,-4.23731 9.5276,-6.1176c3.76651,-2.13219 7.82756,-3.15579 11.81639,-4.52499c4.55431,-4.3084 8.07516,-9.24372 13.91673,-12.03512c-2.28926,-0.81871 -2.28926,-3.51732 -2.28926,-3.51732c0.00399,-4.54295 -0.84501,-11.78644 2.10862,-15.61666c1.6896,-2.19106 6.40071,-4.59347 9.22938,-3.58388c1.47426,0.52618 4.42848,4.59433 5.41912,6.80163c0.71011,-0.9832 1.42149,-1.96419 1.87942,-3.07828c0,0 1.11061,-2.59141 3.65281,-2.31732c0.18382,-0.24164 0.41042,-0.48242 0.68685,-0.71937c2.84721,-2.44047 5.28768,0.40675 5.28768,0.40675c2.6556,3.14856 3.66193,3.89339 5.13581,8.5789c0.81966,2.60572 0.5208,6.52475 0.1333,9.83052c0.36919,0.22027 0.73888,0.53294 1.09785,0.96369c2.40069,2.88083 -0.48014,5.28152 -0.48014,5.28152c-0.20944,0.15498 -0.41546,0.30184 -0.61858,0.44084c-0.00662,1.67602 -1.35712,3.42546 -2.3332,4.85927c-1.30388,1.91533 -3.83265,3.06114 -6.46735,3.4741c-0.3539,1.23004 -0.73198,2.54526 -1.52418,3.75258zM323.74333,60.6023c-0.03524,0.12591 -0.07765,0.25746 -0.12867,0.39172l0.21485,-0.08066c-0.03481,-0.10465 -0.06335,-0.20839 -0.08617,-0.31106zM342.51699,51.69491c-0.43876,-1.35144 -0.90042,-2.22602 -1.46291,-3.0031c-0.82407,1.39137 -1.80725,2.6993 -2.67029,4.06836c-1.3343,2.11662 -1.8072,4.80091 -2.12458,7.38087c1.89081,0.23277 4.08066,0.91978 5.96029,1.10145c0.39602,-2.82433 1.08721,-7.11511 0.29749,-9.54758zM323.92553,58.64172c0.2457,-0.6265 0.60676,-1.09844 0.79618,-1.32014c0.63374,-1.21774 1.4547,-2.35999 1.79528,-3.68315c0.57096,-2.21818 -1.00626,-3.74433 -1.24734,-5.60508c-0.24284,0.16228 -0.61586,0.18129 -0.79493,0.41666c-0.55485,0.7293 -0.22705,3.84956 -0.22747,3.86058c-0.08157,2.11126 -0.27767,4.2194 -0.32171,6.33113z" fill="#949494" stroke-width="0.5"/><path d="M324.16667,59.58334c-3.75,0 -3.75,-3.75 -3.75,-3.75c0,-1 0,-4.66667 0,-5.66667c0,0 0,-3.75 3.75,-3.75c3.75,0 3.75,3.75 3.75,3.75c0,1 0,2 0,3v2.66667c0,0 0,3.75 -3.75,3.75z" fill="#606060" stroke-width="0.5"/><path d="M334.54114,58.20211c-0.20013,-0.35683 -0.12034,-0.71772 0.08913,-1.0805c0.20793,-2.97771 0.11973,-5.9561 0.11973,-8.95494c0,0 0,-3.75 3.75,-3.75c3.75,0 3.75,3.75 3.75,3.75c0,1.0094 0.00953,2.01725 0.0151,3.02389c1.11066,0.59361 1.88755,1.72998 1.97639,3.05481l0.3308,4.30036l-0.35998,3.15127c0,0 -0.42494,2.97458 -3.17671,3.21804c-0.68789,0.81634 -1.71785,1.33497 -2.86893,1.33497c-2.07107,0 -3.75,-1.67893 -3.75,-3.75v-3.33333h0.01964c0.03926,-0.32155 0.07404,-0.64307 0.10483,-0.96456z" fill="#606060" stroke-width="0.5"/><path d="M316.41667,71.83334c0,-2.07107 1.67893,-3.75 3.75,-3.75c2.07107,0 3.75,1.67893 3.75,3.75c0,2.07107 -1.67893,3.75 -3.75,3.75c-2.07107,0 -3.75,-1.67893 -3.75,-3.75z" fill="#ffffff" stroke-width="0.5"/><path d="M314.75,72.16667c0,-1.51878 1.23122,-2.75 2.75,-2.75c1.51878,0 2.75,1.23122 2.75,2.75c0,1.51878 -1.23122,2.75 -2.75,2.75c-1.51878,0 -2.75,-1.23122 -2.75,-2.75z" fill="#000000" stroke-width="0.5"/><path d="M273.83333,92.66667c0,2.11709 -1.71624,3.83334 -3.83333,3.83334c-2.11709,0 -3.83333,-1.71625 -3.83333,-3.83334c0,-2.11709 1.71624,-3.83333 3.83333,-3.83333c2.11709,0 3.83333,1.71624 3.83333,3.83333z" fill="#000000" stroke-width="0"/><path d="M277.66667,93.83334c0,0.5 -0.5,0.5 -0.5,0.5h-1c-1.58475,0 -3.10899,-0.33955 -4.66667,-0.33334c0,0 -0.5,0 -0.5,-0.5c0,-0.5 0.5,-0.5 0.5,-0.5c1.56679,0.00553 3.07749,0.33334 4.66667,0.33334h1c0,0 0.5,0 0.5,0.5z" fill="#000000" stroke-width="0.5"/><path d="M284.61388,89.94306c0.22361,0.44721 -0.22361,0.67082 -0.22361,0.67082l-0.66667,0.33334c-0.68364,0.32864 -1.42088,0.52699 -2.18645,0.62175c0.59679,0.14189 1.18487,0.29211 1.7606,0.44852l0.20225,-0.01749c0,0 0.5,0 0.5,0.5c0,0.5 -0.5,0.5 -0.5,0.5l-0.46442,-0.01749c-3.44875,-0.93694 -7.34387,-1.64917 -10.86891,-1.64917c0,0 -0.5,0 -0.5,-0.5c0,-0.5 0.5,-0.5 0.5,-0.5c0.87126,0 1.76448,0.04221 2.66787,0.11971c-0.6766,-0.26336 -1.3141,-0.55048 -1.89148,-0.83917c0,0 -0.44721,-0.2236 -0.22361,-0.67082c0.22361,-0.44721 0.67082,-0.22361 0.67082,-0.22361c2.60563,1.30281 6.98247,2.86298 9.88612,1.33333l0.66667,-0.33333c0,0 0.44721,-0.22361 0.67082,0.22361z" fill="#000000" stroke-width="0.5"/><path d="M270.33319,91.84524c-0.01191,0.49986 -0.51177,0.48795 -0.51177,0.48795l-0.79204,-0.02441c-1.03833,-0.35373 -2.10933,-0.80496 -2.7529,-1.59878c-0.09606,0.31425 -0.1965,0.62998 -0.30214,0.9481c0,0 -0.15812,0.47434 -0.63245,0.31623c-0.47434,-0.15811 -0.31622,-0.63245 -0.31622,-0.63245c0.70045,-2.09396 1.14628,-4.07011 1.64409,-6.23066l-0.00308,-0.94456c0,0 0,-0.5 0.5,-0.5c0.5,0 0.5,0.5 0.5,0.5l-0.00308,1.05544c-0.34078,1.5344 -0.67302,2.98249 -1.08066,4.4398c0.24286,0.0383 0.36429,0.28116 0.36429,0.28116c0.14046,0.43834 1.02468,0.90404 1.74159,1.1933c0.09673,-0.86696 0.49005,-1.12279 0.9815,-1.41105c0.03814,-2.34531 0.37405,-5.0977 0.92049,-7.31672l0.0908,-0.36319c0,0 0.12127,-0.48507 0.60634,-0.3638c0.48507,0.12127 0.36381,0.60634 0.36381,0.60634l-0.0908,0.36319c-0.48205,1.89599 -0.78189,4.21554 -0.86829,6.30081c0.03053,-0.03415 0.06095,-0.06977 0.09124,-0.10695c2.05182,-2.51895 2.88412,-5.68603 4.8312,-8.12437l0.07319,-0.36602c0,0 0.1454,-0.47839 0.62379,-0.33298c0.47839,0.14541 0.33298,0.6238 0.33298,0.6238l-0.25184,0.70331c-1.97089,2.41112 -2.70945,5.66041 -4.84377,8.13964c-0.2831,0.32885 -0.59532,0.51159 -0.88277,0.66241c0,0.0053 0,0.0106 0,0.0159c0,0 0,0.5 -0.5,0.5c-0.09422,0 -0.17069,-0.01775 -0.23274,-0.04657c-0.14953,0.16274 -0.24747,0.37936 -0.26511,0.71069l0.17642,0.00269c0,0 0.49986,0.0119 0.48795,0.51176z" fill="#000000" stroke-width="0.5"/><path d="M357.58302,73.81601c2.34204,0.1893 4.61117,0.94042 5.19759,3.34965c1.07867,4.43162 -6.47602,7.95672 -10.20264,9.81036c-0.62311,0.89342 -1.62527,1.50282 -2.77337,1.59511c-2.43675,1.66715 -4.53744,3.75979 -7.13219,5.19693c-2.91274,1.61326 -3.50639,1.43245 -6.77877,1.79454c-5.83355,0.6455 -12.41782,0.95625 -18.14104,-0.38606c-2.27296,0.27104 -4.5637,0.47263 -6.8434,0.71772c-4.53092,0.48713 -9.45224,-0.81737 -13.913,0.26283c-5.81704,1.40863 -10.10555,5.54988 -16.16286,5.75956c0,0 -3.75,0 -3.75,-3.75c0,-3.75 3.75,-3.75 3.75,-3.75c2.91851,0.21515 5.4418,-2.09196 8.07292,-3.31114c0.97557,-0.45205 5.52157,-2.053 6.43088,-2.26262c7.17957,-1.65506 15.06274,-0.35005 22.50991,-1.04538c0.09292,-0.0119 0.18394,-0.0205 0.27241,-0.02636c3.60129,-0.36073 7.09706,-1.20479 10.35788,-3.09557c5.3424,-3.78886 8.78704,-9.56642 13.37102,-14.16058l0.33334,-0.33333c0,0 0.4934,-0.49341 1.26737,-0.84171c0.00026,-0.00146 0.00052,-0.00293 0.00079,-0.0044c0.53554,-2.98563 7.03591,-8.19634 10.23952,-7.05864c2.20467,0.78294 3.30898,3.59975 3.83247,5.88c0.29701,1.29375 0.40999,3.48431 0.06118,5.65907zM336.56215,88.00156c-0.05383,-0.09575 -0.10357,-0.19412 -0.149,-0.29484c-0.11172,0.10837 -0.22409,0.21619 -0.33713,0.32345c0.17464,-0.01027 0.33522,-0.01888 0.48613,-0.0286z" fill="#949494" stroke-width="0.5"/><path d="M316.08333,290.5c0,1.25 -1.25,1.25 -1.25,1.25h-1c-4.62867,0 -11.10191,1.24255 -15.4362,-0.41191c-2.18331,-0.8334 -4.25722,-2.215 -6.22629,-3.44476c0,0 -1.06,-0.66249 -0.3975,-1.72249c0.6625,-1.06 1.7225,-0.3975 1.7225,-0.3975c1.84051,1.15121 3.75099,2.40172 5.77371,3.22191c1.25084,0.50721 2.94539,0.25475 4.23046,0.25475c3.44444,0 6.88889,0 10.33333,0h1c0,0 1.25,0 1.25,1.25z" fill="#c50000" stroke-width="0.5"/><path d="M334.08333,302.16667c0,1.25 -1.25,1.25 -1.25,1.25l-0.49685,-0.10574c-4.53404,1.99315 -9.37085,4.76754 -14.16632,6.05951c-3.24746,0.87491 -7.01091,0.37957 -10.33682,0.37957c0,0 -1.25,0 -1.25,-1.25c0,-1.25 1.25,-1.25 1.25,-1.25c3.06557,0 6.67195,0.54077 9.66318,-0.2871c4.68886,-1.29771 9.39002,-3.98606 13.83367,-5.9405l1.50315,-0.10573c0,0 1.25,0 1.25,1.25z" fill="#c50000" stroke-width="0.5"/><path d="M357.74954,326.46604c0.03396,1.24954 -1.21558,1.2835 -1.21558,1.2835l-0.53517,0.01454c-9.58522,0.25554 -19.00022,3.95013 -28.49879,3.98591c0,0 -1.25,0 -1.25,-1.25c0,-1.25 1.25,-1.25 1.25,-1.25c9.44157,0.04055 18.88821,-3.72094 28.43087,-3.985l0.53517,-0.01454c0,0 1.24954,-0.03396 1.2835,1.21558z" fill="#c50000" stroke-width="0.5"/><path d="M400.41667,344.83333c0,1.25 -1.25,1.25 -1.25,1.25c-1.33333,0 -3.33333,0 -4.66667,0c-11.86617,0 -24.17682,-1.9472 -35.10765,3.5347c0,0 -1.11803,0.55902 -1.67705,-0.55902c-0.55902,-1.11803 0.55902,-1.67705 0.55902,-1.67705c11.35989,-5.66428 23.91304,-3.79863 36.22568,-3.79863c1.33333,0 2.66667,0 4,0h0.66667c0,0 1.25,0 1.25,1.25z" fill="#c50000" stroke-width="0.5"/></g></g></svg>