<svg version="1.1" xmlns="http://www.w3.org/2000/svg" xmlns:xlink="http://www.w3.org/1999/xlink" width="1481.78366" height="710.60586" viewBox="0,0,1481.78366,710.60586"><g transform="translate(790.23324,317.14027)"><g data-paper-data="{&quot;isPaintingLayer&quot;:true}" fill-rule="nonzero" stroke-linejoin="miter" stroke-miterlimit="10" stroke-dasharray="" stroke-dashoffset="0" style="mix-blend-mode: normal"><path d="M24.77559,-11.04553c3.71368,1.815 6.25598,4.15666 8.19726,6.91763c2.50653,3.56488 4.0111,7.82878 5.74147,12.5606c1.75324,4.79436 1.68795,12.18796 1.88776,16.9918c0.66224,15.92138 0.1654,31.73677 0.67647,47.66386c0.2469,7.69462 1.80521,16.25461 3.5132,23.70961c1.23187,5.37681 3.21944,10.56179 3.36172,16.17153c0.50377,19.86293 4.47241,39.42174 5.68839,59.30224c1.38331,22.61638 -0.22669,33.10959 1.18654,58.24341c0.03988,0.70929 1.33108,-0.52399 2.0309,-0.6462c1.28907,-0.22511 2.59791,-0.36572 3.90625,-0.39062c2.308,-0.04393 11.46185,-0.08918 17.03806,0.00359c31.72788,0.52785 63.45251,1.83259 95.18375,1.57674c8.91855,-0.07191 29.19831,-0.99965 43.60977,-1.00742c68.61194,-0.037 136.85805,-5.09194 204.51837,8.44249c7.29584,1.45942 14.51837,5.76802 19.56491,11.17302c2.18216,2.33716 4.64794,5.28128 6.30998,8.13908c0.74171,1.27533 0.73212,3.4594 2.14945,3.869c18.63507,5.38548 37.80068,8.72853 56.69104,13.13573c27.05388,6.31179 53.10949,16.32147 79.64944,24.53013c19.51207,6.03498 38.98089,13.01286 58.23931,19.82292c8.85064,3.12972 17.72096,6.5298 26.54975,9.72064c6.66058,2.40722 12.58068,4.37182 17.15604,10.25443c2.8355,3.64565 3.60245,9.89606 3.90625,14.45313c0.20584,3.08757 -1.33022,5.82554 -2.32534,8.60377c-0.68107,1.90144 -0.68179,4.04078 -1.58091,5.84935c-0.45596,0.91716 -1.66614,1.22463 -2.32552,2.00841c-7.34927,8.73579 -17.92857,8.67083 -28.89762,8.49948c-8.67871,-0.13557 -31.27927,-1.89422 -44.87887,-1.37133c-1.87183,0.07197 -5.49284,2.31588 -7.63347,2.99699c-3.62383,1.15304 -9.55807,1.09347 -12.46527,1.22251c-7.54547,0.33492 -17.01805,-4.01031 -23.90524,-1.91217c-0.95091,0.28969 -0.14798,2.11002 -0.77807,2.87887c-4.58464,5.59428 -12.89137,10.59631 -20,11.09375c-0.85259,0.05966 -1.65038,-0.54161 -2.50504,-0.54687c-28.74745,-0.17714 -57.49599,0.01427 -86.24398,0c-22.34606,-0.01109 -46.8281,-1.92574 -69.15235,-2.29164c-5.67199,-0.09297 -23.49146,0.41235 -34.93232,-0.01847c-19.70141,-0.74187 -39.39092,-1.88275 -59.10243,-2.27317c-11.55983,-0.22896 -37.69414,0.45576 -56.30543,-0.00821c-22.90663,-0.57106 -45.79119,-2.01079 -68.70331,-2.28343c-9.71087,-0.11555 -75.59901,1.92773 -99.29137,-1.41184c-11.45471,-1.6146 -21.66571,-2.63653 -32.40592,-6.39533c-4.10551,-1.43683 -8.39459,-2.77969 -12.37624,-4.57162c-1.67288,-0.75288 -2.95002,-2.7497 -4.78427,-2.72011c-1.4554,0.02348 -2.58727,1.49296 -4.03085,1.67952c-1.17843,0.15229 -2.30563,-0.70709 -3.49386,-0.70709c-1.18823,0 -2.32924,0.94279 -3.49386,0.70709c-1.28161,-0.25937 -8.19849,-3.00402 -10.48157,-4.36732c-2.55293,-1.52443 -4.77525,-5.14303 -6.61994,-6.98771c-7.82554,-7.82554 -4.01968,-20.95343 -3.83173,-30.55243c0.09728,-4.96802 -0.57403,-23.81971 0.04072,-35.26534c0.59965,-11.16456 2.3024,-22.27895 2.35055,-33.4595c0.03806,-8.83894 -1.76709,-17.59337 -2.33202,-26.41433c-1.02011,-15.92831 0.07599,-32.01777 -0.63215,-47.97325c-0.14842,-3.34418 -1.33048,-6.76348 -1.63237,-10.10751c-1.01128,-11.20177 -1.27137,-22.44246 -2.28666,-33.63592c-0.61158,-6.74256 -2.46507,-13.59999 -2.29745,-20.38884c0.10653,-4.31448 1.88822,-15.35745 4.39363,-18.64971c2.12051,-2.78647 6.67644,-3.65105 7.88945,-6.9358c0.29859,-0.80854 -0.45872,-2.90769 -0.65915,-4.29396c-0.87054,-6.02105 -2.48892,-12.31158 -2.5429,-18.4312c-0.16178,-18.33853 1.1247,-40.45303 -1.87406,-58.44557c-0.27424,-1.48309 -0.41758,-3.01208 -0.41758,-4.57456c0,-4.805 1.35557,-9.29339 3.70515,-13.1036c1.61894,-3.119 3.81653,-5.51098 6.95181,-7.37526c4.06021,-2.84897 9.00635,-4.52114 14.34304,-4.52114c3.59741,-0.59867 7.51218,0.21584 10.78868,1.81717z" fill="#ffe162" stroke="none" stroke-width="0.5" stroke-linecap="butt"/><path d="M579.24127,268.80109c0,4.59847 -1.24155,8.90697 -3.40772,12.60856l-0.49853,1.84456l-2.13544,1.84425c-1.6159,1.87802 -3.50609,3.51328 -5.60838,4.8436l-0.84993,0.73403l-0.94747,0.30147c-3.45536,1.80371 -7.38485,2.82353 -11.55253,2.82353l-2.97051,0l-3.62223,0.30185l-6.23089,1.66157l-23.84952,6.81415l-1.67743,0.30287l-1.65506,0.40777l-3.57153,0.51022l-0.64084,2.3711l-4.02726,3.47809l-1.62568,2.45066l-2.31627,0.95376l-0.62454,0.53937l-3.01563,0.95952l-4.54332,1.87078l-0.74212,-0.01017l-0.7443,1.95379l-1.71873,3.43746l-0.87406,1.38393l-0.79607,1.81164l-3.43436,3.21533l-3.28077,3.3719l-1.82661,0.76109l-1.40048,0.84729l-11.60114,5.52435l-23.64037,12.38305l-0.64959,0.2616l-0.60552,0.35178l-25.20805,11.4582l-1.55275,0.52658l-1.51328,0.6311l-26.35387,8.02074l-1.43641,0.28486l-0.12912,0.05187l-1.14497,0.2008l-1.14024,0.22612l-0.13914,-0.00175l-1.44237,0.25295l-30.93715,2.29164l-1.3277,-0.03417l-1.32512,0.08948l-35.52043,-1.14582l-1.19165,-0.15812l-1.2016,-0.03444l-35.52043,-4.58328l-1.04535,-0.24255l-1.06611,-0.12249l-26.00313,-5.65285l-6.43886,-1.20729l-0.88398,0.13866l-1.91935,-0.48745l-0.58936,-0.05894l-1.41313,-0.44963l-7.08381,-1.79906l-1.55137,-1.74189l-3.59247,-3.10259l-0.7443,-0.07443l-1.10947,0.01222l-25.78096,-2.29164l-1.3597,-0.25914l-0.33306,-0.03331l-0.23644,-0.07523l-1.92713,-0.36728l-2.441,-1.02258l-3.98918,-1.26928l-0.90363,-0.7804l-0.98409,-0.41225l-2.60358,-2.68619l-4.10245,-3.54303l-0.25844,-0.95623l-0.93839,-0.96817l-1.28689,-7.26536l-1.42253,-5.26336l0.29616,-1.09579l-0.19797,-1.11771l1.88296,-5.11674l1.21746,-4.50458l-2.72981,-2.35756l-2.72892,-10.097l-39.68085,-5.36228l-1.48157,-0.35314l-1.50447,-0.23736l-24.06223,-6.30201l-2.72235,-1.01173l-0.2555,-0.06046l-0.34471,-0.1626l-0.35726,-0.13277l-0.22187,-0.1404l-2.62671,-1.23902l-1.00811,-0.60486l-0.48786,-0.13116l-0.86269,-0.67918l-0.50589,-0.30353l-3.14861,-2.34471l-0.65848,-0.74726l-3.74623,-2.94932l-0.65311,-2.04319l-0.90444,-1.02638l-1.75225,-5.32288l-0.68753,0.70663l-0.17043,0.21653l-0.08584,0.04686l-2.60481,2.67716l-2.30364,0.95985l-0.49144,0.43769l-1.08698,0.21998l-6.59951,2.74979l-3.49386,-0.70709l-3.49386,0.70709l-6.59951,-2.74979l-1.08698,-0.21998l-0.49144,-0.43769l-2.30364,-0.95985l-6.28894,-6.46363l-0.331,-0.52408l-1.76532,-1.57224l-0.63115,-2.48515l-0.1883,-0.37659l-0.41361,-0.47891l-0.30476,-0.95783l-0.18092,-0.36183l-1.39754,-3.66855l-0.28789,-1.83527l-0.56327,-1.77027l-0.39062,-3.90625v-0.40454l-0.15576,-0.993l0.15576,-0.61332v-6.00988l0.07781,-0.77806l-0.02912,-0.7814l0.57291,-9.16656l0.25733,-1.57366l0.14382,-1.58806l1.82422,-9.48597l-0.86715,0.09635l-0.57949,0.00637l-0.57174,0.09467l-35.13964,2.26707l-23.68236,2.25546l-1.18806,-0.0056l-1.18217,0.11822h-7.44783l-3.90625,-0.39062l-0.98629,-0.31382l-2.56444,-0.22983l-2.66477,-1.43401l-2.37824,-0.75671l-1.60707,-1.38793l-3.34905,-1.80224l-1.04328,-1.99113l-2.59435,-2.24058l-1.5132,-5.59883l-1.79773,-3.43103l0.12501,-2.75803l-0.72033,-2.66523l1.01062,-3.73931l0.26261,-5.79377l2.04652,-2.75002l0.5865,-2.17003l2.87834,-2.48584l1.26772,-1.7035l2.15746,-1.25461l2.29024,-1.97793l2.45352,-0.78066l0.89473,-0.5203l3.72849,-1.22871l5.15619,-1.14582l1.39962,-0.16735l0.1174,-0.03735l1.19174,-0.11917l1.18922,-0.14219l0.1227,0.011l1.40259,-0.14026h7.7256l5.01941,-0.81396l-0.25478,-0.52269l-0.69623,-0.7957l-0.10636,-0.85086l-1.24879,-2.56195l0.33968,-2.39431l-0.2581,-2.58097v-1.14582l0.03637,-0.36368l-0.17122,-1.36976l0.47257,-1.64371l0.05291,-0.5291l1.0288,-3.23337l0.93754,-3.26101l0.24947,-0.46958l0.51857,-1.62979l0.90227,-1.04473l0.17147,-0.32277l2.29164,-3.43746l2.49182,-3.03352l0.64325,-0.5146l0.50536,-0.65053l2.99761,-2.53489l9.16656,-6.30201l1.81283,-0.99653l1.77825,-1.057l17.18731,-8.02074l0.55969,-0.19607l0.52354,-0.27857l22.3435,-9.16656l1.72822,-0.51506l1.6973,-0.60929l27.49969,-6.87492l1.66095,-0.24307l1.64165,-0.35046l30.93715,-3.43746l0.88508,-0.00973l0.87651,-0.1232l28.64551,-1.14582l2.24615,0.13423l0.27835,-0.02495l0.69527,0.08313l0.69898,0.04177l0.26948,0.07402l2.23424,0.26714l30.93715,6.87492l1.91957,0.63259l1.94194,0.56017l14.56397,5.82559l2.62018,-1.17456l8.59365,-2.86455l0.70627,-0.15948l0.6767,-0.25752l20.66557,-5.58529l23.57212,-7.50022l12.33695,-5.23386l-17.75999,-2.73231l-0.62341,-0.16072l-0.6403,-0.06706l-16.6144,-3.43746l-2.16909,-0.67975l-0.27757,-0.04354l-0.64293,-0.24492l-0.65652,-0.20574l-0.24492,-0.13767l-2.12419,-0.80921l-3.43746,-1.71873l-0.20992,-0.13258l-1.10974,-0.3531l-1.49872,-1.29435l-0.50078,-0.31628l-1.06286,-1.03414l-5.53138,-4.7771l-0.60859,-2.25179l-3.62811,-8.70748l0.54582,-2.69701l-0.21537,-0.79685l1.49939,-5.54774l1.13993,-5.6326l0.54899,-0.61641l0.71794,-2.65637l7.13919,-6.16566l1.55137,-1.74189l7.08381,-1.79906l1.41313,-0.44963l0.58936,-0.05894l1.91935,-0.48745l1.15049,0.18047l0.24705,-0.0247h4.01037l1.16387,0.11639l1.16965,-0.00724l17.66716,1.6563l26.99718,1.07989l27.67059,-1.06425l24.23823,-3.16151l17.9356,-3.80452l0.54676,-0.06003l0.53087,-0.14396l6.87492,-1.14582l2.05789,-0.13494l2.05208,-0.20521h1.14582l3.90625,0.39063l0.67328,0.21423l2.24178,0.14159l3.06561,1.54713l2.61308,0.83143l1.35756,1.17244l3.10098,1.56498l1.19876,2.14844l0.28524,0.24634l17.0397,-5.92685l18.10413,-11.43419l8.76152,-7.09266l1.64156,-2.46234l2.49182,-3.03352l0.78245,-0.62596l0.62596,-0.78245l3.03352,-2.49182l1.71873,-1.14582l0.4373,-0.23231l0.44413,-0.3553l0.46988,-0.13026l2.11557,-1.1239l1.2493,-0.35918l2.5222,-1.30459l2.70357,-0.19782l2.19212,-0.63024l2.37086,0.29636l4.0582,-0.29694l1.35928,0.78087l4.24738,-0.31078l3.12637,-0.49041l0.79982,0.20313l2.49827,-0.1828l2.55002,1.46491l5.15754,1.30985l3.01454,3.38475l2.25994,1.29826l2.00541,3.49091l2.6776,3.00642l0.51698,2.55451l2.25777,3.9302l-0.38832,5.30708l0.58334,2.88241l-0.96344,2.31226l-0.06022,0.82301l-1.45389,2.81085l-1.88977,4.53545l-1.00457,0.97742l-2.38756,6.13943l-0.45277,0.89011l-0.34336,0.93776l-0.22526,0.46553l0.76805,0.20758l7.42188,8.59375l0.28622,0.89956l1.27467,1.37312l0.79558,5.13336l0.37791,1.18771l0.35254,3.52545l0.21303,1.37455l-0.17495,0.6836l0,29.12462l0.2906,-0.35518l1.71873,-1.71873l0.93491,-0.76493l2.28963,-2.65115l3.37631,-0.91252l4.44769,-2.30053l5.57308,-0.40779l1.05605,-0.28542l0.60606,0.1638l4.08957,-0.29924l4.61715,2.6524l5.14035,1.38928l2.68017,3.10335l0.54437,0.31273l0.54492,0.94856l3.65241,4.22911l1.51827,4.77171l1.74216,3.03266l-0.25563,3.49366l0.1202,1.20197v29.79133l-0.0542,0.54204l0.03061,0.54389l-0.59553,13.69709l1.52725,10.99619l0.08516,2.22037l0.13255,2.21804l-1.14582,28.64551l-0.54644,3.88752l-0.14365,0.39594l-0.03377,0.41984l-1.11749,3.76332l-8.89443,21.74193l0.759,0.41915l6.82178,5.89853l0.60067,1.23229l0.09429,0.08251l0.11984,0.3568l2.88521,5.91914l1.61725,-0.13477l1.04058,0.0172l1.03556,-0.10356h4.01037c4.16768,0 8.09717,1.01982 11.55253,2.82353l0.94747,0.30147l0.84993,0.73403c2.1023,1.33033 3.99248,2.96558 5.60838,4.8436l2.13544,1.84425l0.49853,1.84456c2.16617,3.70159 3.40772,8.01009 3.40772,12.60856zM398.15325,316.97616l0.71962,-0.3271l-8.48885,-0.14893l1.19024,1.46058l0.87137,0.75255z" fill="#ead059" stroke="none" stroke-width="0.5" stroke-linecap="butt"/><path d="M327.03039,98.86802c0.65104,2.40885 1.95313,4.73128 1.95313,7.22656c0,13.94053 -14.94386,12.52756 -24.42397,13.05442c-13.78578,0.76615 -27.54966,2.28032 -41.35668,2.31013c-21.75792,0.04698 -37.56774,-0.42027 -57.83513,0.55661c-25.61088,1.23444 -51.37242,0.92575 -76.81003,4.14579c-4.60039,0.58235 -8.96264,2.38599 -13.46611,3.49121c-6.52122,1.60042 -15.66772,2.47588 -22.80309,2.65486c-6.71025,0.16832 -11.93728,-2.67305 -15.23502,-8.58329c-0.90136,-1.61543 -0.17457,-5.77504 -0.14211,-7.4845c0.01242,-0.65415 1.12733,-1.79929 0.48132,-1.90288c-2.17435,-0.34868 -4.38824,-0.66021 -6.5859,-0.51994c-4.35972,0.27827 -7.34675,4.74228 -10.84176,7.36324c-5.90638,4.42928 -21.48482,14.68078 -29.3117,8.45586c-3.27502,-2.6047 -7.37243,-5.88657 -6.25,-10.9375c0.41244,-1.85598 0.78256,-3.76913 1.31966,-5.59017c0.37731,-1.27929 1.20403,-1.92505 1.75325,-3.05565c0.03169,-0.06523 0.20073,-0.1558 0.13054,-0.17405c-4.42048,-1.14927 -11.34384,-2.63709 -12.77514,-7.9329c-0.49568,-1.83403 -1.02433,-5.52166 -0.49795,-7.46927c0.24103,-0.89182 1.96916,-2.21027 1.10656,-2.54095c-11.64315,-4.46331 -24.32057,1.93418 -28.44131,-13.31253c-0.40114,-1.48423 0.56168,-3.02444 0.91492,-4.5208c2.47666,-10.49132 11.26341,-9.64037 20.16197,-10.7266c0.9379,-0.11449 4.30971,0.14508 4.66635,-0.14535c0.56654,-0.46137 -0.24688,-1.48031 -0.07568,-2.1906c0.44345,-1.83982 1.75685,-3.39723 3.01553,-4.81049c0.88515,-0.99385 2.41619,-1.44852 3.21617,-2.62234c2.20169,-3.23057 1.73052,-4.00698 5.45311,-6.57428c1.43659,-0.99075 4.11157,-1.17581 5.47085,-2.12032c0.26015,-0.18077 -0.4285,-0.50396 -0.48895,-0.81492c-0.17388,-0.89435 -0.10471,-1.81985 -0.19946,-2.72601c-0.16941,-1.62004 -0.35958,-3.53856 -0.14714,-5.17183c0.53893,-4.14333 3.10279,-8.04986 2.86455,-12.24299c-0.08283,-1.45788 -5.62341,-4.09137 -6.80709,-5.35304c-6.92514,-7.3815 -6.5893,-15.32822 2.73522,-21.0487c1.12763,-0.69179 3.79038,-1.26789 4.85408,-1.65753c11.79311,-4.31991 16.30087,-5.46927 29.28022,-3.94481c1.49396,0.17547 4.17368,-1.47084 5.92689,-1.48172c25.99946,-0.16133 54.51804,-0.55787 80.51028,0.07571c4.92833,0.12013 9.84581,0.69941 14.7753,0.64494c1.51209,-0.01671 0.5732,-1.11117 1.55524,-1.37855c1.82603,-0.49718 3.69553,-0.82325 5.55834,-1.1572c25.19397,-4.51653 59.34688,0.07899 84.94248,0.09636c47.5623,0.03229 95.20691,4.31643 142.69124,6.88893c28.96689,1.5693 58.06321,-8.1062 86.5934,-11.82063c3.0991,-0.40348 18.32183,-3.29652 23.31676,0.19219c1.55153,1.08367 3.35793,2.06778 4.29688,3.71094c1.23801,2.16651 1.95313,4.73128 1.95313,7.22656c0,8.9116 -6.38457,10.61056 -12.73148,13.79152c-0.86734,0.43469 -4.75349,1.76093 -4.79187,1.9233c-0.43545,1.84244 1.37197,3.59286 1.48186,5.48286c0.07098,1.22079 -1.74271,2.60433 -0.95716,3.54149c0.84063,1.00286 2.63232,-0.19861 3.92573,0c7.13948,1.09628 12.5,4.28373 12.5,12.5c0,4.86445 -1.92045,8.77272 -6.25,10.9375c-2.29207,1.14604 -5.36074,0.19407 -7.52739,1.5625c-0.81433,0.51432 -3.70723,5.83625 -5.69795,7.27399c-2.45037,1.76971 -6.75706,2.87458 -9.83321,3.43407c-29.70949,5.40354 -41.84719,6.97124 -75.56459,8.19029c-18.37676,0.66441 -36.76707,1.00567 -55.13236,1.93447c-5.62014,0.28423 11.25506,-0.06916 16.88196,0c7.5978,0.09338 14.46063,2.98568 15.8832,10.75238c0.22073,1.20511 0.84982,2.79964 0.50154,4.08829c-3.08775,11.42466 -11.81353,10.76956 -22.03826,12.26003c-12.49751,1.82178 -26.38282,3.37542 -39.25628,4.86082z" fill="#ffc461" stroke="none" stroke-width="0.5" stroke-linecap="butt"/><path d="M157.78738,203.33313c-5,0 -5,-5 -5,-5v-1.14582c0.01548,-5.0882 0.90576,-10.07754 0.58056,-15.19207c-0.40016,-6.29341 -1.29796,-12.53521 -1.71183,-18.80129c-0.31239,-4.72978 0.1885,-12.22656 -0.00489,-17.25787c-0.0629,-1.63628 0.33423,-3.66101 -0.79389,-4.8479c-0.9397,-0.98865 -2.13255,-1.7012 -3.19883,-2.5518c0,0 -3.79628,-3.25396 -0.54233,-7.05024c3.25396,-3.79628 7.05024,-0.54233 7.05024,-0.54233c1.60731,1.44104 3.51348,2.60614 4.82192,4.32313c1.9688,2.58356 2.47768,7.03564 2.64357,10.04776c0.16514,2.99863 -0.16917,14.67626 -0.00489,17.11674c0.42661,6.33779 1.33423,12.64436 1.72564,19.01079c0.32639,5.30892 -0.58519,10.47664 -0.56526,15.74508v1.14582c0,0 0,5 -5,5z" fill="#ffe261" stroke="none" stroke-width="0.5" stroke-linecap="butt"/><path d="M303.30658,196.4582c-5,0 -5,-5 -5,-5l0.14929,0.06686c-3.04664,-12.41997 -2.40204,-25.45843 -4.65239,-38.1329c-2.22086,-12.50843 -6.18079,-24.5791 -9.6312,-36.77122c-1.70963,-6.04102 -2.59549,-12.34626 -4.90003,-18.18628c-1.15576,-2.92886 -2.96456,-5.55585 -4.44684,-8.33377c0,0 -2.33944,-4.41894 2.0795,-6.75838c4.41894,-2.33944 6.75838,2.0795 6.75838,2.0795c1.63697,3.114 3.61956,6.06952 4.91091,9.34199c0.18454,0.46765 4.88454,17.94789 5.22117,19.13734c3.53827,12.50237 7.56827,24.88097 9.84775,37.70711c1.23701,6.96038 2.39752,16.09803 2.83726,23.14941c0.1668,2.6747 -0.2449,5.37765 0.06633,8.03942c0.25182,2.15365 1.07373,4.20162 1.6106,6.30243l0.14929,2.3585c0,0 0,5 -5,5z" fill="#ffe261" stroke="none" stroke-width="0.5" stroke-linecap="butt"/><path d="M248.71487,317.24517c-4.9029,0.98058 -5.88348,-3.92232 -5.88348,-3.92232l-0.39937,-2.22245c-1.68956,-3.26364 -3.60481,-7.62442 -4.63202,-11.03497c-0.63235,-2.09953 -0.61709,-4.35338 -1.19408,-6.46879c-1.45272,-5.32607 -3.12431,-11.00178 -5.02476,-16.20084c-0.87702,-2.39927 -2.07088,-4.67055 -2.53215,-7.22089c-0.89056,-4.92377 -0.0148,-10.66619 1.27364,-15.35145c0,0 1.37361,-4.80762 6.18123,-3.43401c4.80762,1.37361 3.43401,6.18123 3.43401,6.18123c-0.98098,3.26115 -1.65079,7.5536 -1.018,11.00242c0.56488,3.07872 2.45866,6.11953 3.30262,9.14245c2.84179,10.17869 5.03323,20.60817 9.66824,30.1395l0.74645,3.50665c0,0 0.98058,4.9029 -3.92232,5.88348z" fill="#ffe261" stroke="none" stroke-width="0.5" stroke-linecap="butt"/><path d="M421.73376,218.1317c-4.9029,0.98058 -5.88348,-3.92232 -5.88348,-3.92232l-0.51221,-2.5989c-9.00379,-28.40342 -11.09419,-57.67166 -14.99988,-87.02562c-1.2057,-9.06168 -3.86025,-17.90058 -5.15952,-26.94973c0,0 -0.70711,-4.94975 4.24264,-5.65685c4.94975,-0.70711 5.65685,4.24264 5.65685,4.24264c1.28363,9.03521 3.94176,17.85655 5.15286,26.90383c3.88396,29.01433 5.92303,57.90778 14.79145,85.99327l0.63361,3.1302c0,0 0.98058,4.9029 -3.92232,5.88348z" fill="#ffe261" stroke="none" stroke-width="0.5" stroke-linecap="butt"/><path d="M374.34745,358.01889c-5,0 -5,-5 -5,-5l0.0971,0.40767c-0.6244,-3.13961 -1.83684,-6.15445 -2.31967,-9.31893c-1.05265,-6.89915 -0.64198,-15.10889 -0.64198,-22.02589c0,-13.55888 0,-27.11775 0,-40.67663c0,0 0,-5 5,-5c5,0 5,5 5,5c0,12.2048 0,24.4096 0,36.6144c0,7.97283 -0.72914,16.49208 0.50384,24.43169c0.47541,3.06133 1.65313,5.97692 2.26362,9.0142l0.0971,1.55349c0,0 0,5 -5,5z" fill="#ffe261" stroke="none" stroke-width="0.5" stroke-linecap="butt"/><path d="M315.91061,298.43623c-5,0 -5,-5 -5,-5l0.01727,-2.70687c1.24386,-14.84634 4.98372,-29.36794 6.30528,-44.15154c0,0 0.45268,-4.97947 5.43214,-4.52679c4.97947,0.45268 4.52679,5.43214 4.52679,5.43214c-1.36255,14.76413 -5.07032,29.25141 -6.29875,44.07664l0.01727,1.87641c0,0 0,5 -5,5z" fill="#ffe261" stroke="none" stroke-width="0.5" stroke-linecap="butt"/><path d="M240.28646,208.48932c-5,0 -5,-5 -5,-5v-2.29164c0,-8.00861 -0.69496,-16.62691 2.8195,-24.00666c0,0 2.23607,-4.47214 6.7082,-2.23607c4.47214,2.23607 2.23607,6.7082 2.23607,6.7082c-2.96899,5.43097 -1.76378,13.48316 -1.76378,19.53452v2.29164c0,0 0,5 -5,5z" fill="#ffe261" stroke="none" stroke-width="0.5" stroke-linecap="butt"/><path d="M89.51299,191.55628c-2.55419,-2.55419 -1.41791,-5.10838 -0.59035,-6.32951c0.11324,-0.67946 0.22649,-1.35893 0.33973,-2.03839c0,0 0.82199,-4.93197 5.75396,-4.10997c1.68383,0.28064 2.69697,1.04034 3.30111,1.91928c0.10554,-0.41195 0.21088,-0.82396 0.31592,-1.23605c-0.58374,-0.18321 -1.19823,-0.50535 -1.83339,-1.01348c-3.90434,-3.12348 -0.78087,-7.02782 -0.78087,-7.02782l2.15989,-2.69234c1.29123,-1.93108 1.90649,-4.33896 3.5063,-6.02291l1.61777,-3.77481c0.73891,-1.83839 2.53844,-3.13632 4.64112,-3.13632c2.76142,0 5,2.23858 5,5c0,0.37146 -0.04051,0.73346 -0.11734,1.08182l-0.54827,2.74136c-1.55436,8.27398 -3.77997,16.40227 -5.85979,24.55632c0.54419,-0.14294 1.17297,-0.20051 1.89923,-0.13776c0.12474,-1.19574 0.25319,-2.39105 0.38587,-3.58586c0,0 0.55216,-4.96942 5.52158,-4.41726c2.83839,0.31538 3.87544,2.07183 4.24291,3.52026c0.46381,-0.15016 0.98317,-0.22744 1.56017,-0.19274c0.71486,-2.48576 1.37137,-4.98553 1.94974,-7.50315c0,0 1.1243,-4.87196 5.99625,-3.74766c4.87196,1.1243 3.74766,5.99625 3.74766,5.99625c-3.19681,13.79491 -8.53941,27.07798 -13.27163,40.41403l-3.39533,6.1339c-0.18737,0.70244 -0.5797,1.70876 -1.38426,2.50076l-0.21057,0.3804c0,0 -0.91681,1.64962 -2.63738,2.35863c-0.51132,1.25016 -1.74179,3.16339 -4.47321,3.1025c-0.09022,0.89409 -0.20484,1.78519 -0.34856,2.6714l-0.57291,3.43746c0,0 -0.82199,4.93197 -5.75396,4.10997c-1.08765,-0.18127 -1.89546,-0.56243 -2.49396,-1.04649c-0.22979,6.12912 -0.2777,12.27749 -0.2777,18.45802v2.86455c0,0 0,5 -5,5c-5,0 -5,-5 -5,-5v-2.86455c0,-16.69293 0.38318,-33.16361 3.50008,-49.63844c1.10559,-5.84377 2.73848,-11.5754 4.07579,-17.37053c0,0 0.18949,-0.82113 0.74999,-1.71139c0.06412,-0.26563 0.12857,-0.53119 0.19332,-0.79669c-1.32934,0.76078 -3.61912,1.43695 -5.90891,-0.85284z" fill="#ffe261" stroke="none" stroke-width="0.5" stroke-linecap="butt"/><path d="M-178.66354,-106.71564l-438.12372,-209.42462" fill="none" stroke="#000000" stroke-width="2" stroke-linecap="round"/><path d="M-265.81887,-105.33661l-523.41437,-121.42966" fill="none" stroke="#ff0000" stroke-width="2" stroke-linecap="round"/><path d="M370.33708,-2.18546l-350.62107,363.798" fill="none" stroke="#ff0000" stroke-width="2" stroke-linecap="round"/><path d="M170.39141,0.6791l246.3514,360.36054" fill="none" stroke="#ff0000" stroke-width="2" stroke-linecap="round"/><path d="M475.17965,91.77182l-476.08841,128.9048" fill="none" stroke="#ff0000" stroke-width="2" stroke-linecap="round"/><path d="M121.69404,-6.19583l183.90419,364.94382" fill="none" stroke="#ff0000" stroke-width="2" stroke-linecap="round"/><path d="M156.06865,357.60217l305.93407,-358.0689" fill="none" stroke="#ff0000" stroke-width="2" stroke-linecap="round"/><path d="M-1.48167,-1.61255l480.67169,362.65218" fill="none" stroke="#ff0000" stroke-width="2" stroke-linecap="round"/><path d="M110.23583,362.75837l-7.44783,-362.65218l376.97494,-0.57291z" fill="none" stroke="#ff0000" stroke-width="2" stroke-linecap="round"/><path d="M424.84683,187.71873c-0.48661,-0.36496 -0.90415,-0.73978 -1.26064,-1.12047c-2.42972,1.00545 -5.33904,0.76013 -7.99362,0.7011c-1.09724,-0.0244 -1.97409,-0.96793 -3.00252,-1.35114c-1.04414,-0.38907 -4.18833,-0.20886 -4.49645,-0.2638c-1.18905,-0.21202 -2.25442,-0.90252 -3.43746,-1.14582c-2.7989,-0.57561 -6.41866,0.30775 -9.27714,0.06034c-5.81665,-0.50344 -10.53502,-2.23585 -16.3611,-1.21137c0,0 -7.39795,1.23299 -8.63095,-6.16496c-1.23299,-7.39795 6.16496,-8.63095 6.16496,-8.63095c3.74609,-0.6004 8.01924,-1.22052 11.81786,-0.53963c1.01227,0.18145 1.85352,0.95756 2.86455,1.14582c3.70991,0.69081 7.95489,0.38849 11.75863,0.43758c2.53498,0.03272 5.01088,0.77936 7.50338,1.24266c1.69149,0.31441 3.4511,0.27249 5.1534,0.50118c0.23274,-1.20084 0.29598,-2.47805 1.05003,-3.39882c1.67135,-2.04089 4.17666,-3.22338 6.26498,-4.83507c4.74537,-0.17795 13.42486,-0.2841 16.73132,4.61054c4.52269,6.69507 2.03458,12.64745 -3.32721,16.97445l-1.02203,1.48834c0,0 -4.5,6 -10.5,1.5z" fill="#66ff81" stroke="none" stroke-width="0.5" stroke-linecap="butt"/><path d="M447.58648,212.98093c-1.47087,7.35436 -8.82523,5.88348 -8.82523,5.88348l-2.13271,-0.46377c-1.0767,0.00588 -2.1534,0.01175 -3.2301,0.01763c-6.63021,-0.94717 -13.40494,-1.19533 -20.05186,-1.71873c-5.16067,-0.40637 -10.22831,-1.68863 -15.35416,-2.33842c-4.01756,-0.5093 -7.67566,-0.20448 -11.65955,-0.53282c-5.075,-0.41826 -10.0137,-2.50225 -15.01609,-2.8755c-2.2301,-0.1664 -4.4725,0.0365 -6.7088,0.0365c0,0 -7.5,0 -7.5,-7.5c0,-7.5 7.5,-7.5 7.5,-7.5c1.12376,0 7.67601,-0.00881 8.18687,0.0365c4.98208,0.44184 9.75726,2.42899 14.77524,2.85361c4.19071,0.35461 8.14246,0.08672 12.40268,0.613c4.81659,0.59502 9.59115,1.8817 14.43717,2.24486c6.65204,0.4985 13.42656,0.77226 20.05186,1.71873c1.21494,0.00588 2.42988,0.01175 3.64483,0.01763l3.59639,0.68206c0,0 7.35436,1.47087 5.88348,8.82523z" fill="#66ff81" stroke="none" stroke-width="0.5" stroke-linecap="butt"/><path d="M416.11773,177.70836c0,-4.14214 3.35786,-7.5 7.5,-7.5c4.14214,0 7.5,3.35786 7.5,7.5c0,4.14214 -3.35786,7.5 -7.5,7.5c-4.14214,0 -7.5,-3.35786 -7.5,-7.5z" fill="#fffb66" stroke="none" stroke-width="0.5" stroke-linecap="butt"/><path d="M356.4853,175.86221c1.08938,-0.86429 2.17876,-1.72858 3.26815,-2.59286l3.28745,-1.99219c0,0 5.6176,-3.37056 9.50244,1.43888c2.45937,1.23081 4.14791,3.77374 4.14791,6.71105c0,0.45937 -0.0413,0.90909 -0.12038,1.34565c0.48202,0.09815 0.95828,0.22103 1.43,0.36352c1.84576,-0.34723 3.78025,-0.66045 4.6666,-0.60955c3.78454,0.21733 7.37391,1.80764 11.123,2.36825c2.05138,0.30675 4.15798,0.22979 6.18786,0.65621c1.26022,0.26474 2.417,0.91283 3.63249,1.33704c3.49933,-0.87281 7.01685,-1.85143 10.79465,-2.05028c6.62571,-0.34875 13.62507,2.35194 19.22111,5.81679c4.25827,1.41942 11.43496,3.13242 10.66256,9.96622c-0.47505,4.20302 -5.65803,6.43176 -9.20879,8.73027c-1.59891,1.03503 -8.79453,0.20063 -10.88971,0.20063h-1.14582c0,0 -0.84369,0 -1.96513,-0.28297c-2.88369,0.16431 -5.7796,-0.12751 -7.4847,-0.56207c-1.46321,-0.37292 -2.66432,-1.42183 -3.99648,-2.13275c-3.32384,-1.0867 -6.82287,-2.22874 -10.37704,-3.21109c-5.72599,0.4341 -11.73626,-0.49632 -16.93334,-2.21674c-0.23716,-0.07851 -0.48527,-0.17278 -0.74224,-0.27934c-4.68029,0.26505 -9.2648,1.18944 -13.9772,1.21769l-2.17457,0.31065c0.50837,1.38116 0.65051,2.82002 0.21122,4.24432c-1.08019,3.50223 -5.15501,5.59323 -8.59551,6.85631c-4.01969,1.47572 -11.35419,-3.07393 -12.85989,-6.37118c-1.14418,-2.50557 -0.96802,-5.46156 -0.68117,-8.24228c-0.43881,-0.95327 -0.68353,-2.01434 -0.68353,-3.13257c0,-1.25968 0.31055,-2.44683 0.85927,-3.48905l1.07834,-2.15669l0.40356,0.20178c0.00455,-0.00432 0.00911,-0.00863 0.01368,-0.01294l-0.02655,-0.87689c2.02931,-2.56918 4.04751,-5.24864 6.58579,-7.28197c0.88184,-1.6069 2.28072,-2.50124 3.56468,-2.99899c0.64584,-0.81251 1.22131,-1.27288 1.22131,-1.27288z" fill="#93d254" stroke="none" stroke-width="0.5" stroke-linecap="butt"/><path d="M452.40395,221.30507c2.52101,1.72937 5.34158,3.00812 7.79675,4.82976l3,6.57291c0,0 0,3.50332 -2.39435,5.72124c1.135,0.74874 2.27203,1.4943 3.42062,2.22163c1.73934,1.10141 4.45361,1.10957 5.4459,2.91338c0.28494,0.51797 0.52928,1.05167 0.74146,1.59784l0.45293,-0.3397l1.67328,2.23103c0.96934,1.26371 1.54546,2.84488 1.54546,4.56061c0,4.14214 -3.35786,7.5 -7.5,7.5c-0.32624,0 -0.64762,-0.02083 -0.96288,-0.06123c-1.6089,4.64452 -7.05786,4.64452 -7.05786,4.64452l-5.87621,-2.1967c-5.85038,-5.85038 -13.18447,-9.64842 -19.56255,-15.02075c-4.10056,-3.45394 -5.33883,-4.71009 -8.51005,-7.89566c-2.87862,-2.89164 -3.58267,-4.73206 -7.62577,-5.39678c0,0 -5.06182,-1.01236 -5.94677,-5.55673c-0.21617,-0.01617 -0.43243,-0.03357 -0.6488,-0.05228c-5.61797,-0.48582 -11.24791,-1.43956 -16.90856,-1.70088c-5.63591,-0.26018 -10.98986,-0.16562 -16.23847,-1.7737c-0.17578,0.00361 -0.3515,0.00714 -0.52715,0.01055c-0.23133,0.14006 -0.47709,0.27564 -0.7381,0.40614c-6.7082,3.3541 -10.06231,-3.3541 -10.06231,-3.3541l0.51658,-1.01036c-3.9116,-0.00087 -7.82301,-0.00637 -11.73471,-0.03643c-2.91342,-0.55951 -8.24807,-1.3901 -10.38801,-3.00408c-2.02988,-1.53098 -3.60297,-3.75152 -4.58174,-6.09808c-0.4985,-1.19513 -0.38488,-9.47385 -0.38488,-10.96536c0,-3.40115 0.29761,-6.96332 0.01887,-10.35363c-0.43955,-5.34619 -0.77939,-10.1555 2.36564,-14.97273c4.97161,-7.61498 15.95229,-12.37744 24.59444,-12.53788c0,0 7.5,0 7.5,7.5c0,7.5 -7.5,7.5 -7.5,7.5c-3.84034,-0.15261 -9.69888,2.61864 -12.07182,5.79525c-1.48106,1.98266 0.08716,6.80579 0.09287,9.04825c0.01073,4.21119 0.25218,8.55901 0.02381,12.76663c0.61152,0.08194 1.20579,0.26385 1.80887,0.39463c4.71878,-0.05265 9.4376,-0.0365 14.15663,-0.0365h1.71873c0,0 4.5944,0 6.59132,3.59595c0.42902,0.0927 0.80523,0.20449 1.10824,0.30817c5.45516,-0.11381 10.94104,-0.23357 16.32143,0.12512c7.47913,0.4986 14.68583,2.88397 22.09782,3.74643c3.7408,0.02765 7.45633,-0.11979 11.18162,-0.04578c4.36829,-4.45966 9.64678,-0.50079 9.64678,-0.50079c0.50491,0.38186 1.03224,0.75684 1.57331,1.12946c0.90696,0.1819 1.78946,0.43031 2.61522,0.83311l0.16376,0.02047c2.78514,0.30721 5.11089,2.13944 6.12384,4.64331c0.94671,0.80611 1.9059,1.59479 2.9248,2.29374z" fill="#b3ff66" stroke="none" stroke-width="0.5" stroke-linecap="butt"/><path d="M467.0118,256.34417c-3.44405,-3.44405 -2.41486,-6.88809 -1.26992,-8.87965c0.07534,-1.05741 0.04155,-2.14967 -0.0124,-3.25331c-1.05075,-0.36726 -2.07563,-0.77939 -2.97346,-1.42149c-4.22421,-3.02097 -5.82932,-7.89825 -7.6824,-12.36805c-0.5747,-1.38623 -2.40446,-4.45437 -2.92527,-5.88031c-0.34344,-0.94033 -0.61953,-1.89673 -0.85533,-2.86202c-1.6291,-0.41344 -3.12054,-0.89425 -4.32042,-1.35379c-1.82884,-0.70043 -4.16884,-0.93486 -5.30124,-2.53265c-3.28081,-4.62914 -4.68251,-7.62849 -4.25403,-9.95502c-1.39618,-0.98271 -2.52121,-2.36861 -3.15451,-4.26851c-1.00232,-3.00695 1.03973,-6.29343 2.3838,-9.20764c-0.14072,0.00262 -0.28234,0.007 -0.42487,0.01317c0,0 -7.5,0 -7.5,-7.5c0,-7.5 7.5,-7.5 7.5,-7.5c0.05103,0.00107 0.10219,0.00222 0.15346,0.00347c2.28463,-5.04974 8.19233,-3.8682 8.19233,-3.8682c5.77284,1.25532 10.55909,-0.61306 16.01686,-1.72905c0.83621,-0.17099 1.72661,0.25086 2.55971,0.06531c0.83362,-0.18567 1.4535,-0.98178 2.29164,-1.14582c4.27336,-0.8364 9.87727,-0.42634 14.05645,0.64968c1.22941,0.31654 2.4442,0.98669 3.70819,0.86842h2.29164c0,0 7.5,0 7.5,7.5c0,7.5 -7.5,7.5 -7.5,7.5l-1.43339,0l0.00357,0.0125c0.21848,0.70358 0.33616,1.45153 0.33616,2.22697c0,3.11465 -1.8986,5.78586 -4.60161,6.91943c0.01215,0.17456 0.01833,0.35076 0.01833,0.5284c0,0.69652 -0.09495,1.37085 -0.2726,2.01078c0.00708,0.02492 0.0142,0.04978 0.02135,0.07458c1.09358,3.79368 2.46874,7.65311 3.80401,11.37644c0.43021,1.19962 1.42485,2.29798 1.36574,3.57105c-0.15914,3.42789 0.72604,7.80002 -0.74686,10.70647c0.74496,0.77371 1.31382,1.70431 1.64078,2.82412c0.66164,2.26607 -0.14285,4.65638 -1.13845,6.94776l0.17522,0.45354l0.08967,0.0538l0.2671,-0.33387l2.81045,2.24836c1.7469,1.37316 2.86889,3.50545 2.86889,5.8998c0,4.14214 -3.35786,7.5 -7.5,7.5c-1.0311,0 -2.01361,-0.20807 -2.90781,-0.58452c-0.00222,0.01554 -0.00443,0.03108 -0.00662,0.04662l-2.66756,4.64322c0,0 -5.3033,5.3033 -10.6066,0z" fill="#a1e65c" stroke="none" stroke-width="0.5" stroke-linecap="butt"/><path d="M-552.67348,-9.06038c0,-4.14214 3.35786,-7.5 7.5,-7.5c4.14214,0 7.5,3.35786 7.5,7.5c0,4.14214 -3.35786,7.5 -7.5,7.5c-4.14214,0 -7.5,-3.35786 -7.5,-7.5z" fill="#ffe162" stroke="none" stroke-width="0.5" stroke-linecap="butt"/><path d="M312.47315,136.74528c0,15.66227 -35.26884,28.35906 -78.77516,28.35906c-43.50632,0 -78.77516,-12.69678 -78.77516,-28.35906c0,-15.66227 35.26884,-28.35906 78.77516,-28.35906c43.50632,0 78.77516,12.69678 78.77516,28.35906z" fill="#af9b42" stroke="none" stroke-width="0" stroke-linecap="butt"/><path d="M-380.07131,86.04272c0,-6.90356 5.59644,-12.5 12.5,-12.5c6.90356,0 12.5,5.59644 12.5,12.5c0,6.90356 -5.59644,12.5 -12.5,12.5c-6.90356,0 -12.5,-5.59644 -12.5,-12.5z" fill="#eed35a" stroke="none" stroke-width="0.5" stroke-linecap="butt"/><path d="M187.83908,141.0421c0,-0.92587 0.2286,-1.62315 0.57291,-2.14827c0,-3.05342 0,-6.08006 0,-8.73703c0,0 0,-3.75 3.75,-3.75c0.9384,0 1.64197,0.23482 2.16948,0.58695c0.50669,-0.0114 0.85759,0.05878 0.85759,0.05878c1.37617,0.35919 2.93568,0.30296 4.12851,1.07756c3.96916,2.57751 5.79727,8.43482 3.46477,12.61975c-1.52794,2.7414 -4.13961,3.84521 -6.87036,4.12499c0,0.82309 0,1.64618 0,2.46926v1.71873c0,0 0,3.75 -3.75,3.75c-3.75,0 -3.75,-3.75 -3.75,-3.75c0,-1.82069 0,-3.81495 0,-5.87248c-0.34431,-0.52512 -0.57291,-1.22239 -0.57291,-2.14827zM195.912,137.25643c0.53891,-0.63532 0.59651,-1.61055 0,-2.30833c0,0.76944 0,1.53889 0,2.30833z" fill="#eed35a" stroke="none" stroke-width="0.5" stroke-linecap="butt"/><path d="M210.83172,153.27379c-3.63803,0.90951 -4.54754,-2.72853 -4.54754,-2.72853l-0.68488,-3.20115c0,-6.49298 0,-12.98597 0,-19.47895c0,0 0,-3.75 3.75,-3.75c3.75,0 3.75,3.75 3.75,3.75c0,6.49298 0,12.98597 0,19.47895l0.46094,1.38213c0,0 0.90951,3.63803 -2.72853,4.54754z" fill="#eed35a" stroke="none" stroke-width="0.5" stroke-linecap="butt"/><path d="M253.71903,157.44499c-2.08013,3.12019 -5.20031,1.04006 -5.20031,1.04006l-3.33758,-3.64951c-0.37176,-3.14895 -3.07325,-7.42185 -5.24314,-9.97226c-0.05794,1.93398 -0.20572,3.84575 -0.53324,5.37317c-0.39585,1.84607 -0.81511,3.83561 -2.01445,5.29378c-3.72963,4.53457 -13.09769,3.0063 -16.83909,-0.85137c-4.1928,-4.32309 -4.032,-9.77224 -2.14491,-14.85376c0.49093,-1.32196 0.30731,-2.9853 1.23696,-4.04565c1.04092,-1.18727 2.79547,-1.46968 4.21132,-2.16861c2.21588,-1.09387 4.79481,-1.41727 7.26531,-1.47492c0,0 2.28857,0 3.29002,1.78785c0.23312,-0.04536 0.47397,-0.06912 0.72036,-0.06912c0.72777,0 1.40712,0.20732 1.98221,0.56611l2.69611,1.61767c5.00704,1.26077 6.86247,6.04578 9.36573,9.85753c0.77211,1.17571 1.98863,2.07011 2.55705,3.35671c0.59698,1.35124 0.56515,2.89992 0.84772,4.34988l0.09988,-1.35787c0,0 3.12019,2.08013 1.04006,5.20031zM231.11989,139.63591c-1.42282,-0.05541 -2.84144,0.36833 -4.19289,0.81672c-0.48176,0.15984 -1.20319,-0.27531 -1.51778,0.12303c-0.34829,0.44103 0.23408,1.13996 0.09114,1.68345c-0.54611,2.07636 -2.08873,4.86636 0.14673,6.91682c0.70963,0.6509 5.64167,2.55901 6.07732,1.44027c0.54229,-1.39262 0.1695,-4.41131 0.24702,-5.36034c0.11793,-1.44355 0.53943,-2.85469 0.64277,-4.29811l-0.70894,-1.41788c-0.45955,0.09604 -0.78536,0.09604 -0.78536,0.09604z" fill="#eed35a" stroke="none" stroke-width="0.5" stroke-linecap="butt"/><path d="M316.90023,199.0363c0,15.66227 -35.26884,28.35906 -78.77516,28.35906c-43.50632,0 -78.77515,-12.69679 -78.77515,-28.35906c0,-15.66227 35.26883,-28.35906 78.77515,-28.35906c43.50632,0 78.77516,12.69678 78.77516,28.35906z" fill="#af9b42" stroke="none" stroke-width="0" stroke-linecap="butt"/><path d="M319.60859,256.74404c0,15.66227 -35.26884,28.35906 -78.77516,28.35906c-43.50632,0 -78.77516,-12.69678 -78.77516,-28.35906c0,-15.66228 35.26884,-28.35906 78.77516,-28.35906c43.50632,0 78.77516,12.69678 78.77516,28.35906z" fill="#af9b42" stroke="none" stroke-width="0" stroke-linecap="butt"/><path d="M321.74404,313.30596c0,15.66228 -35.26884,28.35906 -78.77516,28.35906c-43.50632,0 -78.77516,-12.69678 -78.77516,-28.35906c0,-15.66228 35.26883,-28.35906 78.77516,-28.35906c43.50632,0 78.77516,12.69678 78.77516,28.35906z" fill="#af9b42" stroke="none" stroke-width="0" stroke-linecap="butt"/><path d="M305.02531,216.51006c-4.34104,0 -4.91315,-3.76892 -4.98855,-4.76235c-0.27837,-0.19662 -0.55849,-0.43236 -0.83862,-0.71249c-0.37664,-0.37664 -0.67303,-0.75327 -0.902,-1.12564l-1.26703,1.68937c-0.90984,1.24089 -2.37829,2.04655 -4.03491,2.04655c-2.76142,0 -5,-2.23858 -5,-5v-2.86455c0,-1.59844 0.00381,-3.09473 -0.04028,-4.52543c-0.88241,8.14395 -4.04069,15.9051 -12.44008,19.421c-6.35675,2.66087 -12.90693,4.13943 -17.3904,-2.99016c-0.62206,-0.9892 -0.49502,-7.60754 -0.49348,-9.04087c0.00297,-2.77251 0.40463,-5.53032 0.58056,-8.29725c0.20874,-3.28286 -0.54575,-7.02028 0.05691,-10.26388c0.14809,-0.79703 0.31896,-1.48925 0.51306,-2.12235c-1.69578,-0.79998 -2.86927,-2.52524 -2.86927,-4.52457c0,-0.95762 0.26921,-1.85237 0.73608,-2.61268c-0.46589,-1.33342 -0.49861,-3.13332 1.30129,-4.93322c3.09547,-3.09547 6.19093,-0.77059 6.91356,-0.14387c1.51234,0.63669 2.99568,1.32875 4.46622,2.04651c-2.1322,-3.79524 -3.3552,-7.97446 -4.57503,-12.23257c0,0 -0.96196,-3.36688 2.22668,-4.52327l0.12365,-0.58849c0.92238,-1.89332 1.673,-3.83502 2.32558,-5.80482c-7.93319,-4.33468 -11.93506,-13.9774 -16.79441,-21.26228c0,0 -2.08013,-3.12019 1.04006,-5.20031c3.12019,-2.08013 5.20031,1.04006 5.20031,1.04006c2.67175,4.00981 4.77205,8.62515 7.82571,12.33767c1.3784,1.67581 2.93305,4.17901 4.8518,5.63762c1.29858,-4.98851 2.55869,-9.99466 4.91043,-14.70767c0,0 1.67705,-3.3541 5.03115,-1.67705c3.3541,1.67705 1.67705,5.03115 1.67705,5.03115c-4.32259,8.62622 -4.5546,18.49171 -8.97364,27.03965l-0.44276,2.38298c0,0 -0.17884,0.89419 -0.80108,1.71248c0.81752,2.76801 1.77488,5.50759 3.32254,7.90217c1.01551,0.42171 2.13464,1.35117 2.13464,3.39976c0,1.77148 -0.83684,2.70612 -1.71988,3.19924c0.57645,0.282 1.15509,0.56033 1.73689,0.83321c1.92464,0.9027 3.90338,1.93909 5.5176,3.3341c0.09718,-1.22234 0.69916,-2.57337 2.46567,-3.63328c4.28746,-2.57248 6.85994,1.71499 6.85994,1.71499c1.91775,3.20381 3.06313,6.25875 3.74415,9.39204c0.0816,-0.04089 0.16389,-0.0813 0.24681,-0.12117c0.26372,-1.22917 1.06142,-2.52798 3.04155,-3.32003c4.64238,-1.85695 6.49934,2.78543 6.49934,2.78543c0.13172,0.33875 0.25671,0.67512 0.375,1.00949c0.37092,0.35591 0.69692,0.75363 0.9832,1.18568c1.28942,-0.31261 2.42783,-0.08493 2.42783,-0.08493c2.01474,0.90077 4.82003,0.86603 6.04422,2.70231c0.52465,0.78697 0.62039,1.70984 0.56294,2.68124c1.06659,0.97303 2.00356,2.59833 1.16605,5.11086c-1.58114,4.74342 -6.32456,3.16228 -6.32456,3.16228l-1.90982,-2.38586c-0.03536,1.47969 -0.1027,2.84217 -0.1027,3.94446v1.71873c0,0 0,5 -5,5zM269.29268,188.92152c-2.00996,5.29683 -1.25929,11.50399 -1.67037,17.13594c-0.14956,2.04899 1.12179,5.83117 -0.48583,7.29703c-0.24994,0.2279 0.58539,-0.34686 0.90337,-0.46218c1.64219,-0.59556 3.49523,-0.89029 4.8435,-2.00099c4.6505,-3.83111 5.38172,-8.69877 5.38842,-14.43742c-0.76429,-5.10544 -4.17102,-5.13067 -8.71131,-7.39847c-0.08937,-0.04464 -0.17863,-0.08927 -0.26777,-0.1339z" fill="#eed35a" stroke="none" stroke-width="0.5" stroke-linecap="butt"/><path d="M176.61261,197.52532c-1.8054,1.95412 -2.05722,4.60249 1.70349,5.81792c0.62302,0.20136 3.06825,0.57243 3.674,0.40439c0.2882,-0.07995 0.56317,-0.21285 0.83158,-0.36886c-0.624,-0.5931 -1.31112,-1.12795 -1.88479,-1.76962c-1.50844,-1.68726 -2.7059,-2.80653 -4.32428,-4.08382zM182.67445,189.57368c2.14719,1.69317 3.92167,3.34148 5.81698,5.48344c1.99072,2.24978 4.02639,3.33155 4.7943,6.38392c0.59856,2.37921 2.02002,5.07189 0.98102,7.29435c-0.91687,1.96122 -3.8173,2.04815 -5.77789,2.96638c-9.56258,4.47857 -24.31955,-0.00555 -23.07313,-12.71551c0.37894,-3.86411 0.99058,-5.05619 3.49004,-7.93951c1.86746,-2.15425 4.45667,-3.67927 7.07651,-4.80384c0,0 4.64238,-1.85695 6.49934,2.78543c0.0745,0.18624 0.13853,0.368 0.19283,0.54534z" fill="#eed35a" stroke="none" stroke-width="0.5" stroke-linecap="butt"/><path d="M238.98444,194.89567c0,5 -5,5 -5,5l-0.73815,-0.0971c-1.23876,0.23858 -2.51592,0.2212 -3.78138,0.27382c0.6511,2.42589 1.33512,4.85099 2.02337,7.3067l0.04833,3.55806c0,0 0,5 -5,5c-5,0 -5,-5 -5,-5l0.04833,-2.17105c-0.56089,-1.89886 -1.63678,-3.62788 -2.12543,-5.5466c-0.05076,-0.1993 -0.1009,-0.39925 -0.15044,-0.59982c-0.22025,0.02739 -0.44004,0.05695 -0.659,0.09028c0,0 -4.32085,0.61726 -5.4652,-3.33867c-1.35406,0.61702 -3.66208,1.44625 -4.64436,2.06927c-0.81207,0.51506 -1.57378,1.1026 -2.32739,1.7019c0.63346,2.85832 1.60296,5.65019 3.02505,8.42317l0.52786,3.38189c0,0 0,5 -5,5c-5,0 -5,-5 -5,-5l0.27956,0.57739c-1.7701,-3.70942 -2.99338,-7.44722 -3.77029,-11.28816c-0.56348,-0.99541 -0.61483,-2.05378 -0.50237,-2.91386c-0.4063,-2.83234 -0.59017,-5.72906 -0.59017,-8.71887c0,0 0,-2.47671 1.74312,-3.94389c0.00758,-0.06611 0.01619,-0.133 0.02586,-0.20068c0.70711,-4.94975 5.65685,-4.24264 5.65685,-4.24264c0.83412,0.19574 1.64893,0.66296 2.50235,0.58722c0.57926,-0.05141 0.90375,-0.80674 1.46987,-0.93975c1.82997,-0.42994 3.82307,-1.35213 5.59327,-0.71968c1.88805,0.67456 3.30616,1.63791 4.29838,2.77836c0.23325,-1.5011 1.11711,-3.4852 4.08598,-3.98001c4.93197,-0.82199 5.75396,4.10997 5.75396,4.10997c0.23896,1.43547 0.50578,2.85171 0.79529,4.25437c1.39735,-0.07056 2.81271,-0.02734 4.17746,-0.31454l2.69931,-0.0971c0,0 5,0 5,5z" fill="#eed35a" stroke="none" stroke-width="0.5" stroke-linecap="butt"/><path d="M244.29683,192.76022c5,0 5,5 5,5c0,4.58328 0,10.88529 0,15.46858c0,0 0,5 -5,5c-5,0 -5,-5 -5,-5c0,-4.58328 0,-9.16656 0,-13.74985v-1.71873c0,0 0,-5 5,-5z" fill="#eed35a" stroke="none" stroke-width="0.5" stroke-linecap="butt"/><path d="M235.85937,186.30201c0,-2.76142 2.23858,-5 5,-5c2.76142,0 5,2.23858 5,5c0,2.76142 -2.23858,5 -5,5c-2.76142,0 -5,-2.23858 -5,-5z" fill="#eed35a" stroke="none" stroke-width="0.5" stroke-linecap="butt"/><path d="M203.6202,267.23855c5,0 5,5 5,5v2.86455c0,0 0,5 -5,5c-2.37197,0 -3.61869,-1.12524 -4.27397,-2.30812l-1.28989,-0.08062c-9.51619,-2.09634 -16.18676,-9.49377 -14.88768,-19.63806c0.24418,-1.90676 0.35133,-3.94112 1.28341,-5.62237c2.02176,-3.64678 4.40278,-2.15752 5.35918,-5.56165c0,0 1.85695,-4.64238 6.49934,-2.78543c4.64238,1.85695 2.78543,6.49934 2.78543,6.49934c-0.60654,1.34968 -0.92786,2.86824 -1.81962,4.04903c-0.84747,1.12216 -2.10793,1.87129 -3.26023,2.67729c-0.29146,0.20387 -0.84491,0.00598 -1.01918,0.31604c-0.20579,0.36616 0.12314,0.83277 0.13759,1.25255c0.17231,5.00553 1.39165,8.11037 6.88291,9.00745l-0.40767,-0.0971c0,0 0.50471,0 1.19342,0.16035c0.69456,-0.44197 1.61011,-0.73326 2.81695,-0.73326z" fill="#eed35a" stroke="none" stroke-width="0.5" stroke-linecap="butt"/><path d="M258.53752,263.80094c0.25401,-4.62755 0.43705,-9.68188 -1.52553,-13.38855c0,0 -2.23607,-4.47214 2.23607,-6.7082c4.47214,-2.23607 6.7082,2.23607 6.7082,2.23607c2.78339,5.76302 2.24659,11.42083 2.24659,17.70464c0,4.1135 0.52335,7.63115 -2.25749,11.16413c-1.65734,2.10561 -8.36389,6.66983 -10.82903,5.53769c-2.5329,-1.16326 -3.06911,-4.76163 -3.78775,-7.45465c-0.37704,-1.41291 0.42686,-2.89338 0.64029,-4.34007l0.9488,-1.58336c-1.01863,0.69457 -2.06522,1.26847 -2.96158,1.7284c-2.22997,1.14423 -4.81508,1.39423 -7.22896,2.06892c-2.15475,0.60226 -3.74124,1.37888 -5.52793,2.29033c0.21631,0.23094 0.44362,0.47432 0.6835,0.73716c2.03005,0.71305 3.85833,1.56526 5.72543,2.63261l1.42683,-0.49675c0,0 4.9029,-0.98058 5.88348,3.92232c0.98058,4.9029 -3.92232,5.88348 -3.92232,5.88348l-4.30227,0.64907c-3.59741,-1.26247 -6.82474,-2.74275 -10.31606,-4.24231c-0.81621,-0.77787 -5.53546,-5.16894 -6.08408,-6.12883c-1.76397,-3.08634 -2.86164,-8.3301 -1.3647,-11.73965c0.96216,-2.1915 4.9361,-4.1429 6.95458,-5.42645c0.0099,-0.00629 0.0198,-0.01259 0.02971,-0.0189c-1.08759,-0.25529 -1.8482,-0.76236 -1.8482,-0.76236l0.07419,-0.40317c-1.24999,-0.96357 -2.66641,1.51974 -4.55384,2.00814c-1.41975,0.36738 -2.89843,0.95101 -4.36125,1.21366c0,5.15396 0,10.43808 0,14.79171c0,0 0,5 -5,5c-5,0 -5,-5 -5,-5c0,-7.6388 0,-15.27761 0,-22.91641v-2.86455c0,0 0,-5 5,-5c2.96268,0 4.16986,1.75549 4.66175,3.18609c0.31369,0.30547 0.48407,0.53264 0.48407,0.53264c0.34473,0.46553 0.79314,0.88137 1.1821,1.32569c0.26915,-0.08365 0.55228,-0.15378 0.7829,-0.28731c1.29108,-0.74756 2.35271,-2.04223 3.81426,-2.34161c1.62663,-0.33319 3.30078,0.36409 4.95117,0.54614l3.51165,1.88847c0,0 3.32233,2.21488 2.04977,5.655c4.11943,-2.11715 8.65188,-3.39678 13.13841,-1.15362c2.33524,1.16756 5.66744,2.08591 6.33157,4.61088c0.5183,1.97053 0.01811,3.65733 -0.97749,5.08016c0.69464,-0.23055 1.51014,-0.33945 2.38315,-0.13665z" fill="#eed35a" stroke="none" stroke-width="0.5" stroke-linecap="butt"/><path d="M276.3798,255.20743c5,0 5,5 5,5c0,3.43746 0,7.44783 0,10.88529c0,0 0,5 -5,5c-5,0 -5,-5 -5,-5c0,-3.43746 0,-6.87492 0,-10.31238v-0.57291c0,0 0,-5 5,-5z" fill="#eed35a" stroke="none" stroke-width="0.5" stroke-linecap="butt"/><path d="M269.08816,243.59304c0,-2.76142 2.23858,-5 5,-5c2.76142,0 5,2.23858 5,5c0,2.76142 -2.23858,5 -5,5c-2.76142,0 -5,-2.23858 -5,-5z" fill="#eed35a" stroke="none" stroke-width="0.5" stroke-linecap="butt"/><path d="M297.41734,270.38223c-1.58114,-4.74342 3.16228,-6.32456 3.16228,-6.32456l-0.70013,1.17051c0.41181,-0.47543 1.74306,-0.80014 1.365,-1.30283c-1.73023,-2.3006 -4.51189,-3.21615 -2.61152,-7.78646c0.1422,-0.34199 0.34233,-0.66335 0.58937,-0.96574c-0.39712,0.14428 -0.66429,0.19772 -0.66429,0.19772l-2.94373,0.58808c-0.54407,0.09068 -1.0875,0.18388 -1.63051,0.27876c0,4.56973 0,9.13947 0,13.7092v2.29164c0,0 0,5 -5,5c-5,0 -5,-5 -5,-5c0,-4.45585 0,-9.5278 0,-14.57695c-1.49643,-0.24217 -3.45166,-1.1359 -3.94234,-4.08c-0.73077,-4.38461 3.08613,-5.52089 3.94234,-5.7191c0,-1.26813 0,-2.50439 0,-3.69655c0,0 0,-5 5,-5c5,0 5,5 5,5c0,0.64078 0,1.28156 0,1.92235l2.61307,-0.52324c0,0 4.9029,-0.98058 5.88348,3.92232c0.32353,1.61765 0.00659,2.80833 -0.56341,3.67768c2.02926,-1.0452 4.48968,-1.74303 6.11048,-2.28432c0,0 4.74342,-1.58114 6.32456,3.16228c1.58114,4.74342 -3.16228,6.32456 -3.16228,6.32456c-0.11053,0.03677 -0.2207,0.07964 -0.33064,0.12677c1.36968,3.55344 -0.95903,7.85705 -2.9796,10.73384l-4.13759,2.31633c0,0 -4.74342,1.58114 -6.32456,-3.16228z" fill="#eed35a" stroke="none" stroke-width="0.5" stroke-linecap="butt"/><path d="M236.81696,324.75494c3.3133,0.97422 3.3133,4.77463 3.3133,4.77463l-1.46447,5.82717c-2.20936,1.23051 -4.14904,4.19132 -6.62809,3.69154c-6.58845,-1.32822 -5.36299,-9.21278 -5.34491,-13.52909c0.00429,-1.02318 0.85818,-2.28232 0.19706,-3.06324c-0.14272,-0.16858 -0.29773,-0.32325 -0.46223,-0.46724c-1.30538,2.46591 -2.72382,4.71484 -4.12584,7.12593c-0.70644,1.21489 -0.73897,2.90882 -1.82523,3.80047c-1.73947,1.42784 -3.91359,2.68609 -6.16293,2.75659c-1.90799,0.0598 -3.49785,-1.53517 -5.1994,-2.40046c-4.84324,-2.46294 -9.30606,-5.275 -12.70874,-9.63223c-1.0826,-1.3863 -2.49833,-2.73189 -2.81759,-4.46161c-0.93649,-5.07372 0.87246,-5.57345 2.91452,-8.89089c2.59747,-4.21974 4.75368,-8.5314 9.7341,-10.56184c1.44196,-0.58786 3.05497,-0.60536 4.58246,-0.90804c0,0 3.54218,-0.59036 5.12306,2.23144c0.09341,-0.0052 0.1875,-0.00783 0.28221,-0.00783c1.14382,0 2.19793,0.38408 3.04041,1.0303l2.25124,1.68843c0.3225,0.25187 0.6737,0.46946 1.04099,0.6672c0.9204,-0.04782 1.6562,0.38511 2.27045,1.0519c1.05014,0.48334 2.03374,1.0325 2.68872,1.94797c1.09995,1.5374 1.61924,3.12029 1.74355,4.70774c2.0521,1.65761 4.78507,2.79319 6.09035,4.99045c1.24741,2.09983 1.48218,4.92124 1.46703,7.6307zM206.2845,313.02958c-0.43615,0.83244 -0.77121,1.7213 -1.2756,2.51425c-0.39218,0.61655 -2.33559,1.72029 -1.66876,1.4215c1.38809,-0.62198 3.82174,3.66919 4.92234,4.49766c1.59428,1.20008 3.60679,1.74333 5.3066,2.7811c0.00508,-0.00962 0.0101,-0.01919 0.01505,-0.0287c1.37903,-2.64842 3.10557,-5.07839 4.46997,-7.80719c0.32119,-0.60662 0.41793,-1.34503 0.65061,-1.99411c-0.03244,-0.03798 -0.06511,-0.07575 -0.09804,-0.1133c-0.74768,-0.85253 -2.12593,-1.10612 -2.67993,-2.09541l-2.78993,-2.23194c-0.44006,-0.34591 -0.82064,-0.76408 -1.12385,-1.23663c-2.6934,0.39628 -4.40403,1.76493 -5.72847,4.29276z" fill="#eed35a" stroke="none" stroke-width="0.5" stroke-linecap="butt"/><path d="M252.31757,301.61316c5,0 5,5 5,5l-0.52786,3.38189c-1.13914,2.15145 -1.74755,4.55227 -2.60732,6.83445c-0.52629,1.39698 -0.17988,3.32361 -1.32874,4.27684c-2.0495,1.7005 -4.77664,3.347 -7.41394,2.9771c-2.25005,-0.31559 -3.53288,-2.91557 -4.92879,-4.70826c-2.86797,-3.68319 -3.83857,-10.39269 -4.58352,-14.80457c0,0 -0.82199,-4.93197 4.10997,-5.75396c4.93197,-0.82199 5.75396,4.10997 5.75396,4.10997c0.27289,1.66295 0.61908,3.22836 1.05185,4.77035c0.33028,-0.75329 0.66927,-1.48462 1.00225,-2.17405l-0.52786,1.09025c0,0 0,-5 5,-5z" fill="#eed35a" stroke="none" stroke-width="0.5" stroke-linecap="butt"/><path d="M260.49451,296.30078c0,-2.76142 2.23858,-5 5,-5c2.76142,0 5,2.23858 5,5c0,2.76142 -2.23858,5 -5,5c-2.76142,0 -5,-2.23858 -5,-5z" fill="#eed35a" stroke="none" stroke-width="0.5" stroke-linecap="butt"/><path d="M271.65893,333.12717c-4.74342,1.58114 -6.32456,-3.16228 -6.32456,-3.16228l-0.76146,-2.47787c-0.89491,-5.51809 -0.58281,-10.9414 -1.68966,-16.45581c0,0 -0.98058,-4.9029 3.92232,-5.88348c4.9029,-0.98058 5.88348,3.92232 5.88348,3.92232c1.12149,5.62586 0.78569,11.19135 1.7478,16.77298l0.38436,0.95959c0,0 1.58114,4.74342 -3.16228,6.32456z" fill="#eed35a" stroke="none" stroke-width="0.5" stroke-linecap="butt"/><path d="M303.45646,307.85003c2.7735,4.16025 -1.38675,6.93375 -1.38675,6.93375l-3.51165,1.88847c-1.83597,0.3536 -3.60298,0.48578 -5.32299,0.43354c0.32483,2.8213 0.74894,5.64664 1.29733,8.49363l0.02433,3.35724c0,0 0,5 -5,5c-5,0 -5,-5 -5,-5l0.02433,-2.37186c-0.83164,-3.96333 -1.37066,-7.91923 -1.71719,-11.88637c-1.37524,-0.56181 -2.74971,-1.20082 -4.13686,-1.8944c0,0 -4.47214,-2.23607 -2.23607,-6.7082c1.61768,-3.23537 4.40568,-2.95979 5.824,-2.55993c-0.03753,-2.02166 -0.04985,-4.05062 -0.04985,-6.08929c0,0 0,-5 5,-5c5,0 5,5 5,5c0,3.25191 0.05252,6.45772 0.19293,9.64235c1.33355,0.13141 2.70589,0.07906 4.13887,-0.22249l-0.07419,-0.40317c0,0 4.16025,-2.7735 6.93375,1.38675z" fill="#eed35a" stroke="none" stroke-width="0.5" stroke-linecap="butt"/><path d="M86.1736,2.97074l-79.63452,349.47524" fill="none" stroke="#ff0000" stroke-width="2" stroke-linecap="round"/><path d="M385.80566,-1.03964l-304.78825,362.65218" fill="none" stroke="#ff0000" stroke-width="2" stroke-linecap="round"/></g></g></svg>