<svg version="1.1" xmlns="http://www.w3.org/2000/svg" xmlns:xlink="http://www.w3.org/1999/xlink" width="693.99962" height="365.9221" viewBox="0,0,693.99962,365.9221"><g transform="translate(212.96401,0.46708)"><g data-paper-data="{&quot;isPaintingLayer&quot;:true}" fill-rule="nonzero" stroke-linecap="butt" stroke-linejoin="miter" stroke-miterlimit="10" stroke-dasharray="" stroke-dashoffset="0" style="mix-blend-mode: normal"><path d="M1.94188,364.45501v-363.9221h478.09374v363.9221z" fill="#9c3f45" stroke="#000000" stroke-width="2"/><path d="M-176.3622,116.12463c-0.40068,2.46768 -2.86836,2.067 -2.86836,2.067l-3.12687,-0.50772c-0.30847,-0.05009 -9.95328,-1.61229 -10.10973,-1.65363c-6.29157,-1.66279 -12.56421,-4.36616 -18.75436,-6.42954c0,0 -2.37171,-0.79057 -1.58114,-3.16228c0.79057,-2.37171 3.16228,-1.58114 3.16228,-1.58114c6.09233,2.03078 12.26292,4.69838 18.45259,6.3394c3.14338,0.83338 6.42178,1.03062 9.63172,1.55182l3.12687,0.50772c0,0 2.46768,0.40068 2.067,2.86836z" fill="#ff6671" stroke="none" stroke-width="0.5"/><path d="M164.70443,236.13335c-2.5,0 -2.5,-2.5 -2.5,-2.5l0.01943,-1.72769c-1.02536,-8.17648 -2.33166,-16.27476 -3.80623,-24.34955c-1.24346,-0.1037 -2.46064,-0.37287 -3.53718,-1.02781c-1.64853,-1.00293 -3.52662,-4.55655 -4.42455,-6.0374c-0.47341,-3.47673 0.00882,-6.03193 0.19927,-9.47036c0.29588,-5.34158 0.33486,-11.01596 0.00101,-16.35644c-0.36596,-5.854 -2.06119,-11.49556 -2.37958,-17.34672c-0.22878,-4.20429 -0.00383,-8.49892 -0.00383,-12.71072c0,0 0,-1.66644 1.36055,-2.27822c-0.00091,-0.033 -0.00137,-0.06645 -0.00137,-0.10035c0,-2.5 2.5,-2.5 2.5,-2.5l2.91566,1.38197c1.64404,3.28978 2.88877,5.95523 5.14872,8.91088c4.55975,5.83035 10.83002,10.14139 15.3732,15.98011c4.71804,6.06344 6.72633,16.45954 6.23986,23.97578c-0.06587,1.01777 -1.49148,10.21815 -1.69062,10.5919c-0.77464,1.45381 -2.46196,2.19665 -3.78864,3.17313c-3.63823,2.67786 -8.34629,3.68617 -12.82857,3.83012c1.42337,7.8636 2.68509,15.75128 3.68344,23.71151l0.01943,2.34987c0,0 0,2.5 -2.5,2.5zM158.31609,181.46924c1.48453,7.05216 2.92972,14.08054 4.26237,21.12003c3.86769,-0.03391 7.65315,-0.81057 10.88806,-2.94618c0.78323,-0.51707 1.9193,-0.73902 2.3277,-1.58402c0.59001,-1.22079 0.23055,-2.70255 0.39451,-4.04848c0.42327,-3.47458 1.06545,-5.37506 0.64359,-8.92304c-0.42672,-3.58886 -1.38597,-9.01719 -2.88255,-12.33576c-1.5065,-3.34057 -3.08364,-4.42924 -5.63274,-7.00717c-4.1423,-4.18915 -8.43259,-8.04743 -12.07865,-12.66845c-1.18885,-1.57909 -2.13904,-3.08073 -3.00791,-4.6193c-0.04881,2.86575 -0.10525,5.74375 0.03848,8.584c0.29532,5.83562 2.0123,11.46704 2.37757,17.31253c0.10501,1.6805 0.17476,3.39255 0.21236,5.11701c2.01446,-0.10428 2.45722,1.99883 2.45722,1.99883zM155.1672,198.81649c0.74191,1.13293 1.15583,2.62069 2.25075,3.39617c-0.60841,-3.18013 -1.2391,-6.35848 -1.88518,-9.53841c-0.21956,2.06994 -0.58785,4.00279 -0.36557,6.14224z" fill="#ff6671" stroke="none" stroke-width="0.5"/><path d="M257.53267,263.94901c-1.77276,1.76276 -3.53552,-0.00999 -3.53552,-0.00999l-2.45685,-2.47077c-8.04645,-8.13658 -17.93294,-14.42984 -27.12726,-21.20404c-0.40118,-0.29558 -8.16954,-6.00678 -8.35408,-6.19523c-3.39563,-3.46758 -6.09772,-8.59422 -8.8995,-12.56883c-0.4974,-0.70562 -5.87857,-8.29303 -6.07202,-8.77137c-1.15123,-2.84666 -0.54064,-6.11765 -0.76571,-9.18003c-0.37309,-5.07644 -0.738,-10.06431 -0.73968,-15.15634c0,-1.62743 -0.04385,-3.27692 -0.09392,-4.93676c-0.63491,0.01836 -2.29799,-0.12788 -2.5968,-2.11991c-0.37085,-2.47234 2.10149,-2.84319 2.10149,-2.84319c0.05556,-0.00832 0.18148,-0.02641 0.36391,-0.05262c-0.0762,-5.16722 0.15024,-10.32148 1.79681,-15.11608c0.61357,-1.78665 0.81606,-3.79106 1.89707,-5.34026c2.75302,-3.94533 9.71064,-7.70991 14.58354,-5.49923c5.47319,2.48301 5.95069,7.40298 4.90763,12.66516c-1.29024,6.50921 -6.5401,13.65767 -12.66596,16.40861c-0.83709,0.37591 -3.16653,0.81052 -5.42248,1.17387c0.06429,1.90853 0.12869,3.80303 0.12869,5.66042c-0.0017,4.96958 0.3621,9.83522 0.72623,14.78986c0.19244,2.61852 -0.53571,5.44337 0.48675,7.86168c1.21146,2.86536 3.65873,5.03271 5.45112,7.57541c2.64542,3.7528 5.17694,8.67509 8.38521,11.95134c3.20827,3.27625 8.07639,5.91042 11.77291,8.63394c8.11296,5.97748 16.57282,11.57061 23.68506,18.74161l2.45333,2.46723c0,0 1.76276,1.77276 -0.00999,3.53552zM204.32797,177.68804c1.66734,-0.27187 3.17128,-0.54801 3.55215,-0.71436c3.64553,-1.59221 6.92203,-5.81838 8.58875,-9.3035c1.36731,-2.85906 3.22011,-8.88714 -0.71644,-10.55344c-2.63978,-1.11739 -7.18462,1.54518 -8.5617,3.67031c-0.7857,1.21251 -0.84701,2.76294 -1.29952,4.13507c-1.33205,4.03911 -1.59604,8.38629 -1.56324,12.76591z" fill="#ff6671" stroke="none" stroke-width="0.5"/><path d="M273.8479,215.69291c-1.76777,1.76777 -3.53553,0 -3.53553,0l-0.25212,-0.25627c-7.19292,-6.52773 -13.6901,-13.60084 -20.30966,-20.70493c-1.04599,-1.18869 -2.21381,-2.28037 -3.13797,-3.56606c-0.55112,-0.76672 -2.19405,-2.47898 -1.25185,-2.5411c0.956,-0.06303 1.12063,1.60553 1.35605,2.53423c0.69651,2.7477 0.72788,8.13052 -0.02212,10.86553c-0.53822,1.96272 -0.61586,4.58051 -2.35862,5.63157c-2.68613,1.62 -8.05235,-3.0269 -9.05261,-4.66671c-2.00575,-3.28817 -1.38032,-7.37406 -0.31969,-10.76608c1.18279,-3.78269 3.14462,-6.11156 5.35704,-9.27529c2.46816,-3.52943 4.44598,-6.6744 8.18767,-8.90219c1.75495,-1.04489 3.28731,-2.82199 5.31764,-3.04423c1.94188,-0.21256 3.70639,1.23574 5.55959,1.85361c0,0 2.33336,0.89745 1.43592,3.23081c-0.89745,2.33336 -3.23081,1.43592 -3.23081,1.43592c-1.09171,-0.51479 -2.07633,-1.68482 -3.27512,-1.54436c-1.28702,0.1508 -2.0694,1.56162 -3.13725,2.2957c-2.26406,1.55641 -4.19397,3.64034 -5.89248,5.91459c1.62234,0.60833 3.23936,2.26949 4.67237,3.26235c1.43845,0.99663 2.32858,2.61292 3.49287,3.91939c6.51061,6.98607 12.89576,13.94537 19.96921,20.36468l0.42747,0.42332c0,0 1.76777,1.76777 0,3.53553zM241.77313,189.54808c-0.03764,0.0634 -0.07517,0.12675 -0.11259,0.19005c-1.54108,2.60664 -4.06127,7.5484 -2.10223,10.65765c0.51517,0.81764 1.5693,1.15246 2.21188,1.87428c0.21678,0.24351 0.29979,1.26036 0.28859,0.93453c-0.13551,-3.94276 -0.89057,-8.08298 -0.34196,-12.04581c0.06806,-0.49162 0.0723,-1.04076 0.05632,-1.6107z" fill="#ff6671" stroke="none" stroke-width="0.5"/><path d="M297.22795,226.27924c-2.5,0.00287 -2.50286,-2.49713 -2.50286,-2.49713l-0.00058,-1.67663c-0.12799,-3.77556 -0.22571,-7.49863 -0.40997,-11.20076c-0.04247,0.04427 -0.08534,0.08904 -0.12862,0.13431c-3.10563,3.24812 -5.53161,7.49775 -11.29023,3.92627c-1.80896,-1.12191 -1.85638,-3.83117 -2.78457,-5.74676c-3.92246,-9.68475 -4.43656,-19.72538 -5.21029,-30.04232c-0.45611,-6.08189 0.23078,-11.54308 8.95761,-8.65698c0.50374,0.16659 6.94729,7.19205 7.62268,7.93581c1.27436,1.40338 2.93422,2.54858 3.78972,4.24021c0.10441,0.20646 0.61505,2.7337 1.10959,5.26031c-0.00338,-0.32538 -0.00817,-0.63892 -0.0138,-0.93878c-0.18442,-9.82314 -3.7219,-18.91734 -7.78748,-27.6475c-0.6651,-1.4282 -1.85353,-4.58943 -3.20056,-6.09978c-2.16598,-2.42858 -4.61006,-4.59406 -6.91109,-6.89509c0,0 -1.76777,-1.76777 0,-3.53553c1.76777,-1.76777 3.53553,0 3.53553,0c0.25336,0.25336 7.09086,7.08577 7.23105,7.24705c2.80195,3.22345 4.21541,7.88622 5.99041,11.69984c4.3774,9.40493 6.60215,20.03273 5.68177,30.38871c-0.0128,0.14397 -0.7865,8.94997 -0.90978,9.41923c-0.38059,1.44871 -0.70899,2.52151 -1.05718,3.3905c0.45303,5.60346 0.58802,11.21949 0.78234,16.95188l0.00345,1.84029c0,0 0.00287,2.5 -2.49713,2.50286zM293.84138,204.00512c-0.30092,-3.29001 -0.72859,-6.57899 -1.36591,-9.88933c-0.58696,-3.0488 -0.26535,-6.39343 -1.66653,-9.16406c-0.6491,-1.28351 -2.01181,-2.05632 -2.99909,-3.10228c-2.05939,-2.18181 -3.48624,-5.04419 -5.95493,-6.74916c-0.66912,-0.46212 -1.70861,-0.76302 -2.41328,-0.35717c-0.47097,0.27125 0.17165,1.07381 0.23096,1.61406c0.08876,0.80846 0.14733,1.61997 0.21309,2.43062c0.13475,1.66121 0.25895,3.32326 0.38842,4.98489c0.63638,8.16709 1.33501,15.92005 4.46744,23.55936c0.32947,1.17139 0.14577,2.63628 0.9884,3.51416c0.51984,0.54159 1.6238,0.2749 2.24758,-0.14277c1.10279,-0.73839 1.65997,-2.07274 2.54216,-3.06427c1.00415,-1.12861 2.29944,-2.02048 3.11389,-3.29278c0.07103,-0.11097 0.14029,-0.22477 0.2078,-0.34128z" fill="#ff6671" stroke="none" stroke-width="0.5"/><path d="M312.96718,199.01796c-0.36587,-0.8203 -0.55668,-1.61749 -0.51217,-2.28954c0.10995,-1.66008 2.40345,-2.37719 3.88598,-3.13223c2.68764,-1.36878 6.71177,-1.30772 8.55829,1.79258c0.97609,1.63885 -0.57933,7.59334 -1.11552,9.25667c-0.50611,1.57002 -0.36839,3.78809 -1.79839,4.61041c-5.50377,3.16496 -11.93542,-6.12396 -9.01819,-10.23788zM319.21751,197.89815c0.10669,0.08911 0.21181,0.18326 0.31594,0.28065c-0.01255,-0.12947 -0.03348,-0.26271 -0.05903,-0.39786c-0.08425,0.03793 -0.17032,0.07767 -0.25691,0.11721zM319.12621,204.25216c0.05169,0.06723 0.09895,0.18347 0.13805,0.30685c-0.01547,-0.09987 -0.02728,-0.19904 -0.03572,-0.29755c-0.03411,-0.00268 -0.06822,-0.00578 -0.10233,-0.0093z" fill="#ff6671" stroke="none" stroke-width="0.5"/></g></g></svg>