<svg version="1.1" xmlns="http://www.w3.org/2000/svg" xmlns:xlink="http://www.w3.org/1999/xlink" width="309.21248" height="171.41005" viewBox="0,0,309.21248,171.41005"><g transform="translate(-79.76052,-76.78848)"><g data-paper-data="{&quot;isPaintingLayer&quot;:true}" fill-rule="nonzero" stroke="none" stroke-width="0.5" stroke-linecap="butt" stroke-linejoin="miter" stroke-miterlimit="10" stroke-dasharray="" stroke-dashoffset="0" style="mix-blend-mode: normal"><path d="M138.4669,204.14809c0.0069,0.00249 0.01381,0.00497 0.02071,0.00746c-0.00132,-0.03312 -0.00227,-0.06665 -0.00285,-0.10056c-0.01441,0.01982 -0.02939,0.0392 -0.0449,0.05812c0.00916,0.01136 0.01817,0.02301 0.02704,0.03498zM141.84407,201.02853c0.48924,0.82573 0.91248,2.3585 1.08066,2.94819c0.29832,1.04601 1.146,2.07061 0.91249,3.13296c-0.55114,2.50741 -2.68113,2.20955 -4.55194,2.20955c-2.12126,0.21212 -6.45844,1.59382 -8.31343,0.4584c-2.0243,-1.23904 -2.32319,-5.25124 -0.74423,-6.97903c0.28265,-0.30928 2.39582,-0.83611 2.95828,-1.03294c2.59495,-0.90807 4.99264,-1.69519 7.4781,-2.93792c0,0 1.11804,-0.55902 1.67705,0.55901c0.47793,0.95586 -0.26995,1.50311 -0.49698,1.64176zM138.71796,202.42277c-0.09192,0.03642 -0.18387,0.07254 -0.27588,0.10839c0.06927,0.08491 0.1276,0.17909 0.17285,0.2804c0.02918,-0.13044 0.06345,-0.26053 0.10303,-0.38879z" fill="#dce2a8"/><path d="M125.33989,102.40056c4.21879,-0.28182 10.26509,3.08458 13.50824,4.50393c1.87239,0.81944 3.50479,0.84045 4.93738,2.4163c1.33898,1.47287 -0.2557,4.60038 -2.0625,4.5c-1.01967,-0.05665 -3.73411,-1.83126 -4.89034,-2.34047c-1.93364,-0.85158 -3.87181,-1.57086 -5.80324,-2.39874c-1.1901,-0.51011 -7.97601,-1.96383 -8.20025,-2.35625l-0.10617,-0.18579v0.65625l-0.17225,0.68901l-0.09596,0.7037l-0.15548,0.3887l-0.18827,0.7531v0.25l-0.10336,0.41343l-0.1075,0.53749l-0.82736,1.74666l-0.02769,0.00923l-0.00572,0.02862l-1.63055,1.03762l-0.12217,0.04073l-0.26163,0.13081l-0.15534,0.03452l-0.129,0.09316l-0.20466,0.08186l-0.06848,0.07988l-0.37439,0.56158l-0.12279,0.11163l-0.06914,0.15085l-0.25182,0.31477l-0.65924,1.31848l-0.39188,0.88173l-0.06775,0.20326l-0.09898,0.15555l-0.03179,0.18161l-0.10578,0.23802l-0.01345,0.17482l-0.125,0.375l-0.0684,0.10748l-0.33292,1.33167l-1.02976,0.58844l-0.15517,0.18103l-0.17904,0.00995l-1.91727,1.09558l-1.5775,-0.90143l-0.09955,0.00553l-0.06722,-0.10083l-1.53698,-0.87827l-0.46875,-1.875v-0.25532l-0.02336,-0.03505l0.01657,-0.07458l-0.00316,-0.0043l0.00995,-0.05688v-0.32388l0.18893,-0.75571l0.13428,-0.76731l0.10578,-0.23801l0.01345,-0.17482l0.15696,-0.47087l0.1506,-0.90364v-0.81464l0.07602,-0.30407l-0.02499,-0.31243l0.07398,-0.44387v-0.31464l0.09059,-0.36235l-0.01776,-0.37309l0.125,-0.625l0.03914,-0.08264v-0.09143l0.03384,-0.13537l-0.29746,-0.17847l-0.07699,-0.07699l-0.0413,-0.00826l-0.05783,-0.09087l-0.07388,-0.07389l-0.44332,-0.73886l-0.4626,-0.72694l-0.03304,-0.09913l-0.05542,-0.09236l0.01108,-0.04064l-0.04762,-0.14288l-0.00468,-0.06094l-0.12032,-0.18906l-0.04073,-0.12217l-0.00581,-0.01164l-0.00388,-0.01744l-0.07458,-0.22375l-0.00457,-0.05937l-0.00056,-0.00227l-0.11987,-0.18836l-0.125,-0.375l-0.04623,-0.60104l-0.14621,-0.58481v-0.625l0.03659,-0.14637l-0.05682,-0.11364l0.28411,-0.7955l0.20487,-0.81949l0.11032,-0.06304l0.05075,-0.14209l0.25,-0.375l0.34202,-0.31092l-0.42346,-0.48395h-0.0649l-1.57449,0.19681l-0.29248,0.12717l-0.40944,0.06824l-1.05052,0.38201l-0.19714,0.02053l-0.17489,0.09328l-0.60065,0.15016l-0.17299,0.0865l-0.18075,0.1205l-0.4717,0.16847l-0.42257,0.26891l-0.46634,0.15545l-1.19706,0.62455c-1.30908,-0.4994 -2.64737,-0.69026 -3.83149,-0.39987c-0.70752,0.17351 -1.30476,0.73334 -1.99935,0.91325l-0.74368,-0.37184l-0.33102,-0.28374l-0.39262,-0.18954l-1.5,-1.25l-0.39362,-0.53864l-0.4616,-0.48166l-1,-1.75l-0.13956,-0.49621l-0.24256,-0.45481l-0.09007,-0.36028l-0.20446,-0.61337l-0.0151,-0.19629l-0.08805,-0.17608l-0.25,-1.125l0.01087,-0.41284l-0.00111,-0.00445l-0.07009,-0.18107l-0.02482,-0.1986l-0.00413,-0.01653v-0.01653l-0.06795,-0.54364l-0.17993,-0.7197l-0.16064,-0.56225l-0.35868,-0.80702l-0.33691,-0.67381l-0.03451,-0.15534l-0.09317,-0.129l-0.15193,-0.37984l-0.02253,-0.01287l-0.02613,-0.10449l-0.04673,-0.09346l-0.18691,-0.84113l-0.20898,-0.83592v-0.10449l-0.02336,-0.10514l0.02336,-0.03505v-0.00532l0.23867,-0.95469l-0.04623,-0.23117l0.02066,-0.01848l-0.23257,-0.19934l-0.01038,-0.1868l-0.12444,-0.14517l-0.00522,-0.00131l-0.12974,-0.0692l-0.14661,-0.01127l-0.375,-0.125l-0.12917,-0.0822l-0.02063,0.00816l-0.22684,-0.10397l-0.11456,-0.02545l-0.34346,-0.17173l-0.60449,-0.15112l-0.10736,-0.18788l-0.36025,-0.16512l-1.25,-1l-0.12797,-0.16796l-0.18107,-0.10864l-1,-1c-0.43058,-0.43058 -0.75692,-0.96536 -0.93797,-1.56329l-0.0564,-0.09399l0.01481,-0.05433c-0.07755,-0.30041 -0.11879,-0.61541 -0.11879,-0.94004c0,-2.07107 1.67893,-3.75 3.75,-3.75c0.32464,0 0.63963,0.04125 0.94004,0.1188l0.05433,-0.01482l0.09399,0.0564c0.59793,0.18105 1.13272,0.5074 1.56329,0.93797l0.68246,0.68246l0.45625,-0.30417l0.67564,0.15015l0.04401,-0.02201l0.20847,0.07445l0.27589,-0.07524l0.37114,0.22269l0.31154,0.06923l0.25,0.125l0.17992,0.15422l0.22316,0.0797l0.93075,0.62049l0.04118,0.02059l0.03603,0.03089l0.11704,0.07803l0.04807,0.05288l0.18121,0.06472l0.02329,0.00259h1.6673l0.58481,0.1462l0.39735,0.03056l0.00933,-0.00074l0.01631,0.00272l0.17805,0.01369l0.09586,0.03196l0.45978,0.07663l0.05693,0.02475l0.06201,-0.00295l0.52294,0.10459l0.77196,0.11028l0.13617,0.05548l0.14699,-0.00387l1.125,0.25l0.04533,0.02267h0.05069l0.91343,0.22836l0.5375,0.1075l0.21699,0.10278l0.1335,0.03338l0.84113,0.18692l0.09346,0.04673l0.10449,0.02612l0.02089,0.03657l0.79278,0.39639l1.24717,0.41573l0.06009,0.03824l0.07076,0.00808l0.80001,0.3l0.29279,0.07319l1.49863,0.79927l0.1118,0.02236l0.03589,0.05641l0.059,0.03146l0.03087,0.10976l0.4669,0.73371l0.01239,0.01006l0.375,0.5l0.14306,0.33975l0.2586,0.2586l0.19216,0.32028l0.27637,0.25124l0.04403,0.06604l0.11244,0.11244l0.19436,0.32394l0.1286,0.14146l0.25391,0.07142l0.26824,0.50296l0.38344,0.42178l-0.01815,0.26314l0.27598,0.51746l0.09007,0.36028l0.20446,0.61337l0.01817,0.23627l0.08241,0.17397l0.10957,0.04383l0.08081,0.05836l0.09794,0.01857l1.49958,0.69212l0.56728,0.21273h2.86166l0.44786,0.11196h0.46165l0.5,0.125l0.12974,0.06919l0.14661,0.01128l0.375,0.125l0.1042,0.0663l0.32039,0.06408l0.21698,0.10278l0.0153,0.00382l0.27665,-0.07545l0.41317,0.24791l0.46746,0.11686l0.14227,0.24897l0.63438,0.38063l0.19109,0.19109l0.00746,0.00104l0.01671,0.02313l0.28474,0.28474l0.38828,0.64713l0.44186,0.6118l0.14956,0.37388l0.01468,0.02447l-0.00199,0.00727l0.08775,0.21938l0.12784,0.93748l0.16374,0.24561l-0.08072,0.36322l0.05027,0.36867l-0.07357,0.09265l1.08065,0.13508l1.5,3.46875l-0.19654,0.46677c0.26221,-0.05236 0.53381,-0.08706 0.81342,-0.10575zM97.67096,97.04989l-0.17992,-0.15422l-0.22315,-0.0797l-0.02306,-0.01537l0.3985,0.69737l0.19563,0.16303l0.5159,-0.26916z" fill="#dce2a8"/><path d="M258.48489,197.23353l0.71939,-1.19899l0.13821,-0.1382l0.08497,-0.17602l0.25889,-0.31067l0.1113,-0.44521l0.08093,-0.15174l0.02323,-0.1704l0.19691,-0.49226l0.33738,-1.23706l0.12183,-0.21717l0.05401,-0.24307l0.5,-1l0.04623,-0.05393l0.01923,-0.06838l0.42907,-0.75087l0.31868,-0.74358l0.04549,-0.05985l0.0163,-0.07338l0.5,-1l0.10281,-0.11995l0.05313,-0.14878l0.25,-0.375l0.03062,-0.02784l0.01517,-0.03851l0.44997,-0.62996l0.13817,-0.34542l0.06212,-0.086l0.02301,-0.10356l0.375,-0.75l0.10281,-0.11995l0.05313,-0.14878l0.16366,-0.2455l0.05539,-0.11078l0.26154,-0.30513l0.20676,-0.34461l0.19628,-0.19628l0.00899,-0.03595l0.06292,-0.03596l0.2271,-0.2271l0.49993,-0.58326l0.51688,-0.02872l0.09275,-0.05565l0.15382,0.04196l0.00207,-0.00011l0.63202,-0.36116l0.52002,0.29715l0.59802,-0.03322l0.40378,0.60568l0.66568,0.38039l0.24725,0.98901l0.08083,0.12124l-0.02377,0.10698l0.0082,0.03278v0.52899l0.11764,1.52927l-0.01641,0.09664l0.02378,0.0951v1.25l-0.07464,0.29857v0.30776l-0.375,1.5l-0.10307,0.19326l-0.03776,0.21575l-0.41982,0.94458l-0.44913,1.68423l-0.06056,0.1094l-0.0142,0.12425l-0.30401,0.81072l-0.08535,0.42676l-0.08744,0.18459l-0.02319,0.20293l-0.325,0.86668l-0.04337,0.17348l0.00826,0.02217l-0.02864,0.05931l-0.02672,0.1069l-0.2624,0.49199l-0.24241,0.50213l-0.07054,0.08465l-0.03099,0.05811l-0.02277,0.00641l-1.1257,1.35083l-0.01442,0.01054l-0.00799,0.01598l-0.697,0.81317l-0.19088,0.25451l-0.48107,0.96214l-0.1882,1.12919l-0.05738,0.13198l-0.0048,0.14383l-0.25,0.875l-0.05133,0.08897l-0.01166,0.10204l-0.34544,0.92119l-0.68766,2.29221l-0.33078,1.76418l-0.11149,1.11488l-0.12281,1.59647l-0.0093,0.0279l0.00426,0.02911l-0.11259,1.12593v0.87531l-0.03079,0.12315l0.01838,0.1256l-0.11259,1.12593v6.62531l-0.04716,0.18864l1.34765,1.45132l0.84227,0.84228l0.20677,0.34461l0.08207,0.09575l0.02057,0.01567l0.0999,0.12488l0.05899,0.06883l0.00655,0.01311l0.28524,0.35655l0.03412,0.01224l0.27294,0.61175l0.27911,0.60895l-0.01335,0.03371l0.36129,2.04727l-0.01551,0.22025l0.05355,0.21421v0.28452l0.45391,0.27235l0.30878,0.1544l0.73855,-0.07386l0.01147,0.00168l0.01095,-0.00382l1.3501,-0.12274l1.10016,-0.12224l0.04309,0.00582l0.04125,-0.01375l1.52545,-0.11734l2.27638,-0.35943l0.19753,0.0175l0.19238,-0.04809h1.66082l1.5949,-0.11392l0.91243,-0.11406l0.85329,-0.12189l0.08282,0.00857l0.07899,-0.02633l0.44347,-0.03412l1.88401,-0.6941l0.13664,-0.01482l0.12128,-0.06468l0.5,-0.125h0.3401l0.406,-0.09022l0.13533,0.09022h0.40705l0.72016,0.75147l0.83378,0.55586l-0.01649,0.29696l0.20578,0.21473l-0.27131,0.96465l-0.05774,1.03923l-0.30905,0.2649l-0.04404,0.15658l-0.36696,0.19571l-0.25822,0.22134l-1.25,0.625l-0.10356,0.02301l-0.086,0.06212l-0.625,0.25l-0.37637,0.05132l-0.36037,0.12013l-0.49122,0.03778l-1.22117,0.44406l-0.15415,0.01606l-0.06643,0.03388l0.15782,-0.00686l0.04283,-0.01427l0.14036,-0.0108l0.12639,-0.062l1.70858,-0.36612l3.19267,-0.79817l0.25454,-0.12727l0.17565,-0.03903l0.15181,-0.09661l0.375,-0.125l0.65411,-0.05032l0.13646,-0.07797l0.10408,0.05947l0.39003,-0.03001l0.78215,0.69982l0.91125,0.52071l0.09488,0.3795l0.08933,0.07993l-0.03082,0.15411l0.15911,0.63646v0.25l-0.20833,0.83333l0.02083,0.16667l-0.09028,0.11111l-0.03472,0.13889l-0.14583,0.08333l-0.54167,0.66667l-0.5,0.375l-0.06547,0.02756l-0.04778,0.05256l-0.375,0.25l-0.86542,0.30908l-0.75357,0.75357l-0.04775,0.02865l-0.0307,0.04647l-1.5,1.375l-0.03759,0.02039l-0.02475,0.03487l-1.75,1.5l-0.27527,0.13763l-0.23367,0.20029l-1.25,0.625l-0.22849,0.05078l-0.20274,0.11696l-0.875,0.25l-0.23145,0.00771l-0.21833,0.07721l-2.625,0.25l-0.03003,-0.00454l-0.02887,0.00945l-3.43384,0.24528l-0.93419,0.11677l-0.0734,-0.0089l-0.07039,0.02267l-1.875,0.125l-0.08374,-0.0151l-0.08255,0.02064h-2l-0.07293,-0.01823l-0.07387,0.01391l-2.125,-0.125l-0.01541,-0.00482l-0.0159,0.00279l-1.75,-0.125l-0.11367,-0.0372l-0.11921,0.00953l-2.25,-0.375l-0.13198,-0.05738l-0.14383,-0.0048l-1.6382,-0.46805l-1.87896,-0.35231l-1.36825,-0.24878l-0.1004,-0.04542l-0.11017,-0.00235l-1.375,-0.375l-0.06195,-0.03475l-0.07082,-0.00545l-1.5,-0.5l-0.1037,-0.06599l-0.12108,-0.02119l-0.83437,-0.37083l-0.43629,-0.07271l-0.27632,-0.12014l-0.29747,-0.04798l-0.875,-0.375l-0.05985,-0.04549l-0.07339,-0.01631l-0.93429,-0.46714l-0.80747,-0.34606l-0.10362,-0.07874l-0.12569,-0.03372l-1.125,-0.625l-0.03123,-0.02921l-0.04091,-0.01245l-0.6022,-0.36132l-0.85191,-0.48681l-0.01973,-0.01891l-0.02616,-0.00796l-0.625,-0.375l-0.21762,-0.21762l-0.2639,-0.15834l-0.5,-0.5l-0.04378,-0.07297l-0.0699,-0.04853l-0.875,-1l-0.10288,-0.20061l-0.15941,-0.15941l-0.375,-0.625l-0.00796,-0.02616l-0.01891,-0.01973l-0.5,-0.875l-0.03933,-0.13987l-0.08792,-0.11568l-0.375,-0.875l-0.01689,-0.10473l-0.05695,-0.0895l-0.375,-1.125l-0.0191,-0.24827l-0.08989,-0.23221l-0.22723,-1.81785l-0.57587,-2.07313l-0.00086,-0.03334l-0.0157,-0.02943l-0.22671,-0.90686l-0.108,-0.32399l-1.24731,3.18463l-0.59421,2.0203l-0.13018,0.22167l-0.08073,0.32292l-0.16394,0.09368l-0.27765,0.47277l-0.02884,0.00685c0.03043,-3.04019 -0.74869,-6.3927 -2.12946,-9.11972l0.03206,-0.15721l2.25046,-4.70552l2.29815,-5.86759l2.44139,-6.39413l0.01533,-0.07666v-0.00245l0.00245,-0.00981l0.0461,-0.23049l0.02441,-0.05152l0.23955,-0.95819l2.1875,-1.25l0.44049,0.25171l0.19521,-1.04115l0.04277,-0.09318l0.00212,-0.1025l1.40711,-5.17128l0.62974,-1.1241l2.43895,-0.6318l0.45692,0.45639l2.87464,-6.10859l0.09207,-0.11275l0.04431,-0.13865l1.625,-2.625l0.06249,-0.06078l0.06007,-0.15148l0.16456,-0.06699l0.63654,-0.6191l0.81396,0.02863l0.71846,-0.29247l0.43663,0.3331l0.00659,0.00023c0.00301,-1.4217 0.09765,-2.85314 0.57183,-3.1241l2.15454,-1.23116c1.28049,0.73171 2.05086,1.81004 2.43714,3.05952c0.66384,2.14728 0.19335,4.8 -0.77175,7.06753c-0.84534,1.98615 -1.80149,4.03819 -2.79496,6.12287zM252.2168,227.85752l1.25131,1.70633l0.85328,1.09708l0.02114,0.04784l0.03981,0.03392l0.50474,0.70664l0.3537,0.35369l0.17905,0.29842l1.75898,1.64172l0.02405,0.03712l0.03792,0.02275l0.19274,0.19273l0.02979,-0.00142l0.4593,0.09186l1.75346,0.10959h0.15848l0.43014,-0.04779l-0.05944,-0.05944l-0.15834,-0.2639l-0.21762,-0.21762l-0.71939,-1.19898l-1.363,-2.0445l-0.04165,-0.02499l-0.75,-0.75l-0.00419,-0.007l-0.10594,-0.07062l-0.23739,0.0113l-2.41627,-0.48325l-0.03357,0.01251l-0.60622,-0.29266l-0.60838,-0.28818l-0.01133,-0.03399l-0.73157,-0.60965zM250.62391,225.19496l-0.01564,-0.10052l0.03879,-0.42669l-0.30533,0.17448zM251.71625,221.36914l0.24986,-0.5497l-0.16059,0.05353l-0.13613,0.58989z" fill="#fff700"/><path d="M293.83703,231.99566c-1.11902,3.91979 -2.8008,7.98259 -5.91325,10.4063c-0.12937,0.12846 -0.26692,0.25012 -0.41074,0.36427c-0.45297,0.63815 -1.19787,1.05456 -2.04003,1.05456c-0.00121,0 -0.00242,0 -0.00363,0c-0.04184,0.01692 -0.08387,0.03358 -0.1261,0.05c0.03103,1.25855 -1.25367,2.2923 -2.33236,2.88068c-1.9449,1.06086 -8.59751,1.4395 -9.53791,1.44432c-12.15575,0.06232 -21.45468,-0.88068 -30.75365,-8.85239c-2.20352,-1.889 -4.84421,-2.86549 -5.92521,-5.61772c-1.49304,-3.80129 -2.26224,-7.45033 -2.77657,-11.44062c-2.13064,-2.17332 1.66208,-8.84827 2.37188,-10.61934c3.18332,-7.94293 7.85855,-17.98655 13.75691,-24.30384c1.20074,-1.28602 2.16942,-5.02269 3.54709,-5.80993c0.43488,-0.73685 1.23699,-1.23116 2.15454,-1.23116c1.38071,0 2.5,1.11929 2.5,2.5c0,0.37139 -0.08098,0.72386 -0.22625,1.04072c-0.22174,1.63655 -1.64831,3.42374 -3.03768,5.32731c-5.54247,7.59374 -10.3325,15.68661 -14.07654,24.39731c-0.41883,0.97443 -1.16455,4.14772 -2.36265,6.529c0.03713,0.08625 0.0735,0.17362 0.10913,0.26205c1.41691,3.51576 1.67821,8.69482 2.67318,11.52876c0.52144,1.48523 4.53788,3.65434 5.82074,4.78638c7.16796,6.32529 16.9262,6.9695 26.09785,6.50346c0.45855,-0.0233 3.85214,-0.89405 6.80773,-1.28352c0.03476,-0.47828 0.17821,-0.9941 0.44188,-1.52144c0.48591,-0.97182 2.17878,-1.27367 3.49849,-1.66531c0.70459,-1.11303 1.63461,-2.03854 2.55035,-2.06169c0.48886,-0.76541 0.90382,-1.61585 1.26548,-2.3467c0.02371,-0.04793 0.05034,-0.11351 0.07958,-0.19485c-6.14346,3.68844 -15.2909,7.88827 -21.0163,8.07352c-4.60634,0.14903 -6.98083,-1.84846 -9.3169,-5.33168c-0.09795,-0.14605 -0.64485,-0.67755 -1.15037,-1.18385c-0.35602,-0.22701 -0.65073,-0.54169 -0.8537,-0.9136c-0.19386,-0.35523 -0.30403,-0.76268 -0.30403,-1.19587c0,-0.10297 0.00623,-0.2045 0.01832,-0.30421c-2.69425,-3.1578 -5.40605,-7.99122 -5.6495,-8.38885c-4.9383,-8.0659 4.07991,-24.92254 8.60884,-32.07013c1.62678,-2.5674 1.92762,-5.48097 3.25741,-8.09769c0.04411,-0.14344 0.10078,-0.28137 0.16872,-0.41252c0.41597,-0.80292 1.25451,-1.3516 2.22121,-1.3516c1.38071,0 2.5,1.11929 2.5,2.5c0,0.43328 -0.11022,0.84081 -0.30415,1.19609c0.08769,1.56724 -0.65152,3.27436 -1.70978,5.29694c-4.15457,7.94036 -8.96741,15.71216 -11.06071,24.57951c-1.15713,4.90165 2.10892,9.39095 5.26308,13.04845c0.65832,0.76338 2.87064,1.7803 3.06503,2.75226c0.16145,0.80722 0.19602,1.43824 0.07419,1.93736c0.90388,1.44295 1.7826,2.8776 3.72501,2.93938c3.77072,0.11992 8.04834,-2.37138 11.73197,-3.28144c2.61801,-0.64679 4.83437,-2.0521 6.95918,-3.58892c-1.30847,-0.30846 -2.47446,-0.79594 -3.35508,-1.46285c-1.15555,0.81827 -2.50177,1.43473 -3.27894,1.75607c-4.80581,1.98711 -9.5144,2.40967 -13.35332,-1.63696c-9.10073,-9.59314 -1.99054,-22.8163 2.17294,-33.2177c0.11942,-0.29834 0.22938,-0.60043 0.3385,-0.90268c0.05427,-0.15032 0.12165,-0.29785 0.15161,-0.45483c0.05111,-0.2678 0.06743,-0.54121 0.09032,-0.81288c0.0835,-0.99093 1.27111,-10.08244 3.61345,-9.44361c0.20027,-0.05169 0.41027,-0.0792 0.62669,-0.0792c1.38071,0 2.5,1.11929 2.5,2.5c0,0.56029 -0.18431,1.07753 -0.49562,1.4944c-0.16708,1.09414 -0.81743,2.30428 -1.15315,4.42756c-0.36516,2.30945 -1.0635,4.58831 -1.89265,6.85563c-1.90031,1.82029 -3.08357,4.38317 -3.08357,7.22242c0,0.19189 0.0054,0.38251 0.01607,0.57172c-1.30257,3.42121 -2.3735,6.86583 -2.51607,10.39929c-0.06346,1.57283 -0.00723,2.98472 0.72803,4.38912c2.6467,5.05542 5.48733,6.00887 10.38276,4.05104c1.8999,-0.75983 4.77001,-4.19512 6.76422,-1.53617c0.00023,0.0003 0.00046,0.00061 0.00069,0.00091c0.17417,-0.03123 0.35362,-0.05054 0.53722,-0.0566c0.49045,-0.01619 0.9142,0.80406 1.40455,0.80568c1.87491,0.00621 3.75047,0.04821 5.62478,0c0.12048,-0.0031 0.28213,-0.0309 0.47492,-0.07522c0.45656,-0.49194 1.10875,-0.79978 1.83284,-0.79978c0.26,0 0.51073,0.03969 0.74646,0.11334c1.20461,-0.26521 2.37149,-0.34445 2.77238,0.35711l0.30822,0.53939c0.49135,0.36738 0.81965,0.88751 0.86434,1.5126l0.0586,0.10255c-0.01758,0.03078 -0.03555,0.06137 -0.0539,0.09177c-0.00894,0.40245 -0.13272,0.84374 -0.40049,1.31234c-0.45407,0.79463 -1.35228,1.41211 -2.33668,1.96305c-0.17367,0.66995 -0.35127,1.26714 -0.46992,1.68272z" fill="#000000"/><path d="" fill="#151400"/><path d="" fill="#151400"/><path d="M388.47301,142.32078c-0.19989,0 -0.31986,-0.07991 -0.39188,-0.17584c-0.12429,-0.01773 -0.24858,-0.03546 -0.37287,-0.05319c-5.3897,-1.76298 -11.03003,-3.40936 -15.98332,-6.21184c0,0 -0.43412,-0.24808 -0.18606,-0.6822c0.24807,-0.43412 0.68219,-0.18605 0.68219,-0.18605c4.83285,2.79302 10.43813,4.35693 15.71364,6.10607c0.20249,0.02762 0.405,0.05524 0.60749,0.08286l0.4308,0.62019c0,0 0,0.5 -0.5,0.5z" fill="#bdbdbd"/><path d="M386.59801,147.19578c0,0.5 -0.5,0.5 -0.5,0.5h-0.25c-1.18309,0 -2.36618,0.00069 -3.54927,-0.00243c-3.66431,-0.72018 -9.70376,-2.5778 -12.42928,-5.26901c0,0 -0.35355,-0.35355 0,-0.70711c0.35355,-0.35356 0.7071,0 0.7071,0c2.50182,2.54209 8.41799,4.28726 11.82072,4.98099c1.15024,-0.00339 2.30048,-0.00243 3.45073,-0.00243h0.25c0,0 0.5,0 0.5,0.5z" fill="#bdbdbd"/><path d="M385.92022,162.84718c0.22361,0.44721 -0.2236,0.67082 -0.2236,0.67082l-0.31549,0.15213c-1.72294,0.57403 -3.54438,0.72358 -5.26652,1.25519c-2.08974,0.64509 -4.02302,1.7637 -6.26659,1.77047c-5.62783,0 -9.31387,-1.60173 -14.22361,-4.05278c0,0 -0.44721,-0.22361 -0.2236,-0.67082c0.22361,-0.44721 0.67082,-0.2236 0.67082,-0.2236c4.7758,2.39144 8.30403,3.94721 13.77639,3.94721c2.12617,0.00741 4.00146,-1.12427 5.9834,-1.72953c1.71423,-0.52351 3.52154,-0.67388 5.23348,-1.24481l0.18451,-0.09787c0,0 0.44721,-0.22361 0.67082,0.2236z" fill="#bdbdbd"/><path d="M383.97293,171.33c-0.00921,0.49991 -0.50913,0.49069 -0.50913,0.49069l-0.51691,-0.0223c-3.33678,-0.83471 -5.06394,1.42218 -7.8569,2.97382c-4.72566,2.56851 -11.68341,0.07437 -16.09059,-2.12922c0,0 -0.44721,-0.22361 -0.2236,-0.67082c0.22361,-0.44721 0.67082,-0.2236 0.67082,-0.2236c4.00759,2.00379 10.84485,4.60972 15.15773,2.14949c3.0523,-1.69573 4.88816,-3.99349 8.58507,-3.06981l0.29281,-0.00738c0,0 0.49991,0.00922 0.4907,0.50914z" fill="#bdbdbd"/><path d="M85.87961,86.86888c0.78163,-0.22332 1.20019,0.20691 1.39732,0.5351c0.03792,-0.08548 0.08268,-0.1669 0.13487,-0.24374c0.49181,-0.72403 1.52057,-0.9885 2.39028,-1.08695c0.5009,-0.0567 0.87126,0.53692 1.35948,0.66246c2.28249,0.5869 4.91488,-0.19606 7.30212,0.38972c3.72378,1.36918 7.70372,1.91363 11.69598,2.46254c-4.1097,-2.50795 -8.67973,-4.85802 -13.13241,-6.4744c-2.90163,-1.16066 -5.66373,-2.31234 -8.66342,-3.22053c-0.92657,-0.28053 -3.34096,-1.06361 -4.27841,-0.48258c-3.46979,2.15055 -0.76375,4.01391 0.72171,5.85867c0.42154,0.52351 0.71898,1.07108 0.94463,1.64152c0.04054,-0.01505 0.08313,-0.02902 0.12785,-0.0418zM83.99518,90.05517c-0.21716,-1.09206 -0.35123,-2.295 -1.10628,-3.18276c-0.98189,-1.15445 -2.52355,-1.83729 -2.98725,-3.4394c-0.83551,-2.88676 2.19839,-6.38644 4.89626,-6.61122c4.40169,-0.36675 9.18526,2.38193 13.12087,3.95618c5.07296,1.84776 10.27122,4.60054 14.84207,7.48303c1.2001,0.75681 2.40876,1.65288 3.69456,2.32176c1.23058,0.24522 2.44978,0.53362 3.65017,0.89052c0.30996,-0.1525 0.61744,-0.1525 0.61744,-0.1525l1.2856,0.78576c0.01621,0.04157 0.03207,0.08308 0.04757,0.12453l0.84207,0.62944c0,0 0.96028,0.80023 0.16005,1.7605c-0.13221,0.15866 -0.2688,0.26925 -0.40469,0.34334c0.09713,1.08274 0.06941,2.17933 0.06941,3.35643c0,0 0,0.05507 -0.01156,0.1421c1.34549,0.42409 2.75882,1.20254 3.87074,1.53562c0,0 0.42085,0.12625 0.68867,0.47858c5.99579,2.52045 11.92345,5.39375 17.84439,8.08074c0,0 1.13796,0.51725 0.6207,1.65521c-0.51726,1.13796 -1.65521,0.62071 -1.65521,0.62071c-6.03557,-2.74816 -12.09229,-5.68697 -18.21351,-8.23411l-0.52812,-0.39496c0,0 -0.00554,-0.00554 -0.01531,-0.01619c-1.26502,-0.53996 -3.42684,-1.72384 -4.2878,-1.50691c-0.84886,0.21389 -1.53649,0.84843 -2.34877,1.17481l-0.45535,0.59829c0,0 -0.0781,0.07811 -0.21111,0.16467c1.46238,0.59259 2.91921,1.2351 4.36998,1.90565l0.16718,-0.27258c0,0 0.69338,-1.04006 1.73344,-0.34668c0.91676,0.61118 0.48672,1.49172 0.37188,1.6919c2.47391,1.18865 4.92922,2.42607 7.36332,3.60242c3.026,1.46241 6.03975,3.34801 9.40192,3.88775c0,0 1.23299,0.2055 1.02749,1.43849c-0.2055,1.23299 -1.43849,1.02749 -1.43849,1.02749c-6.03683,-1.03686 -11.68423,-4.41724 -17.30368,-7.41955c-0.12426,0.24853 -0.24852,0.49705 -0.37278,0.74557l-0.35916,0.44987c0,0 -0.10473,0.10472 -0.27812,0.20603c-0.26134,0.53762 -0.50547,1.07781 -0.7561,1.61751c0.08928,0.04188 0.18121,0.09697 0.27534,0.16757c1,0.75 0.25,1.75 0.25,1.75c-1.79877,2.34936 -3.17495,4.44658 -5.39246,6.53447c-0.07711,0.0726 -0.15647,0.14435 -0.23777,0.2154c0.00042,0.10763 0.00185,0.21961 0.00422,0.33547c-1.0349,1.44368 -2.18031,2.80679 -3.43318,4.01565c-0.20655,-0.27957 -0.4263,-0.54967 -0.65512,-0.81332c-0.11068,0.16718 -0.209,0.34062 -0.29266,0.52134l-0.48219,0.7378c-0.10073,0.24312 -0.29029,0.49097 -0.64491,0.6183c-0.2165,0.10581 -0.48986,0.16072 -0.80705,0.06045c-0.32611,-0.06567 -0.53881,-0.24595 -0.67712,-0.44328c-0.24569,-0.27943 -0.29364,-0.58386 -0.26646,-0.84324c-0.59432,-6.8456 -2.64548,-13.30336 -3.60577,-20.09793c-2.06062,-0.0599 -4.12312,-0.13858 -6.15643,0.02962c-2.22877,0.18436 -4.42055,0.94472 -6.60493,1.37318c-0.28952,0.00128 -0.57904,0.00256 -0.86856,0.00385c-0.53929,0.42632 -1.0337,0.28727 -1.34767,0.10248l-0.1439,0.01711c0,0 -1.24236,0.13804 -1.3804,-1.10432c-0.02286,-0.20574 -0.00786,-0.3812 0.03308,-0.53076c-3.09534,-4.02489 -4.61728,-8.79802 -5.51856,-13.74789zM97.73234,89.5161c-1.83018,-0.4688 -3.62517,-0.29842 -5.50933,-0.32032c-0.56297,-0.00655 -1.14151,0.09314 -1.68856,-0.03996c-0.39074,-0.09507 -1.10853,-1.06176 -1.00023,-0.67449c1.32564,4.7405 3.01544,9.40197 4.44131,14.12353c1.86625,-0.43995 3.7357,-0.99475 5.64438,-1.15482c2.12857,-0.1785 4.28821,-0.08646 6.44412,-0.02648c0.13987,-0.13475 0.33506,-0.24777 0.60581,-0.31545c0.61451,-0.15363 0.99547,0.08198 1.22179,0.3518c1.20065,0.00985 2.39706,-0.01696 3.58321,-0.13305c1.73199,-0.1695 3.23362,-0.56943 4.97483,-0.6247c0.00924,-0.01004 0.01446,-0.01526 0.01446,-0.01526l1.29465,-1.15171c0.8475,-0.33729 1.60358,-0.94738 2.46424,-1.22019c0.00029,-1.48023 0.11395,-2.86602 -0.20592,-4.24541c-1.59743,-0.03084 -3.01411,-0.48727 -4.35712,-1.14427c-5.98061,-1.20964 -12.23198,-1.35915 -17.92763,-3.40922zM111.72118,103.8147c-1.06214,0.10801 -2.13272,0.14303 -3.2073,0.1431c0.83161,5.67674 2.39308,11.12693 3.20747,16.77521c1.17639,-1.24902 2.66954,-2.35198 4.08332,-3.46361c0.92369,-1.45322 1.73047,-2.95041 2.41425,-4.39306c0.02898,-0.13963 0.08668,-0.28942 0.18223,-0.44868c0.02596,-0.04325 0.0526,-0.08371 0.07985,-0.12154l0.00979,-0.01453c0.20519,-0.44999 0.39804,-0.89322 0.57837,-1.32658c0,0 0.15833,-0.38 0.51134,-0.61298c0.55406,-1.1603 1.04573,-2.34138 1.70754,-3.48257c-1.46433,-0.73936 -2.93028,-1.42645 -4.40427,-2.01308l-0.625,-0.25c0,0 -0.96571,-0.38628 -0.78296,-1.33501c-1.26021,0.13285 -2.41432,0.40704 -3.75463,0.54334z" fill="#000000"/><path d="M158.59801,197.82078c-0.04347,0 -0.08642,-0.00222 -0.12875,-0.00655l-1.35942,-0.12358l0.00367,-0.04038l-0.09929,0.02795c-0.91113,-0.23154 -1.66034,-0.57995 -2.41962,-0.93195c-0.08112,-0.01583 -0.16135,-0.03332 -0.24077,-0.05224c-1.93705,0.45669 -4.01064,0.34608 -6.15733,-0.02921l-0.04704,-0.03268l-0.00534,0.0196l-1.3488,-0.36785c-0.29057,-0.07227 -0.54096,-0.24621 -0.71122,-0.48186c-0.47512,0.07378 -0.93378,0.15154 -1.36109,0.22333c0,0.01514 0,0.03029 0,0.04543v0.25c0,0 0,0.18736 -0.07254,0.41701c0.10289,-0.0274 0.21101,-0.04201 0.32254,-0.04201c0.56238,0 1.03802,0.37138 1.19504,0.88228c0.59834,0.03011 1.16743,0.09575 1.61723,0.11928c1.74547,0.09132 3.2764,0.7514 4.84887,1.25212l0.94357,-0.31453c0.67057,-0.20156 1.39357,-0.17541 2.10444,-0.01132l0.15004,-0.5001l1.2231,0.36693c0.47761,0.13137 0.84079,0.53902 0.90691,1.04031c2.24006,-0.13125 4.30613,-0.4738 6.81945,0.30116c0.01289,-0.01344 0.02601,-0.02641 0.03935,-0.03893c1.70233,0.55378 3.36676,1.15926 4.86078,2.04325c1.05504,0.62426 2.18224,1.32965 3.35882,2.07076c0.28408,0.22332 0.56843,0.44673 0.85413,0.66896c0.25707,0.11895 0.51438,0.23706 0.77158,0.35502c2.40026,1.50759 4.95256,3.07417 7.48189,4.35091l0.3926,0.34352c0.10313,0.08929 0.1915,0.19518 0.26096,0.31351c0.7121,0.42531 1.44323,0.80774 2.22341,1.08212c0,0 1.17474,0.42718 0.74756,1.60192c-0.42718,1.17474 -1.60192,0.74756 -1.60192,0.74756c-1.16552,-0.43472 -2.2317,-1.10059 -3.2926,-1.77685l-0.9574,-0.34815l0.07657,-0.21055c-0.15454,-0.0965 -0.30952,-0.19194 -0.46523,-0.28563c-1.1947,-0.34647 -2.30272,-0.86957 -3.36133,-1.49895c-2.43721,-0.79764 -4.88812,-1.58943 -7.32511,-2.3629c-0.91841,-0.29149 -2.05567,-0.13439 -2.78919,-0.7592c-1.59177,-1.35586 -1.32272,-3.14069 -0.12857,-4.0711c-0.07708,-0.038 -0.1545,-0.07543 -0.23227,-0.11226c-0.11543,-0.00556 -0.57231,-0.04756 -0.89359,-0.36452c-0.11696,0.4522 -0.27607,0.88082 -0.57037,1.23376c-0.09131,0.1095 -0.24602,0.19414 -0.44002,0.26072c0.00119,0.00389 0.00238,0.00779 0.00356,0.01171c0.35918,1.19728 -0.83809,1.55647 -0.83809,1.55647c-3.05177,0.90214 -6.11097,0.98701 -9.16886,1.06042c-0.12447,0.38745 -0.43286,0.69247 -0.82238,0.81226l-1.47266,0.49088l-0.08329,-0.24986c-0.51221,0.25681 -1.04665,0.45234 -1.6065,0.54701l-0.75,0.125c0,0 -1.23299,0.2055 -1.43849,-1.02749c-0.00301,-0.01806 -0.00571,-0.0359 -0.00811,-0.05351l-0.27624,-0.13811l-0.77506,0.51671c-0.2012,0.13841 -0.44494,0.21942 -0.7076,0.21942c-0.69036,0 -1.25,-0.55964 -1.25,-1.25c0,-0.04347 0.00222,-0.08642 0.00655,-0.12875l0.06043,-0.66476c-0.48105,-1.28503 -1.08426,-2.36353 -1.55786,-3.76819c-0.256,-0.75926 -0.7633,-1.67258 -0.37624,-2.37414c0.23236,-0.42117 0.5804,-0.7016 0.99406,-0.88442c0.00646,-0.1167 0.02894,-0.22913 0.06526,-0.33514c-0.0956,0.0196 -0.201,0.0304 -0.31721,0.0304c-1.25,0 -1.25,-1.25 -1.25,-1.25c0,-1.875 0,-4 0,-5.875c0,0 0,-1.16926 1.13087,-1.24605c0.20654,0.06774 0.41603,0.12894 0.62826,0.18335c0.09913,0.02542 0.19886,0.04935 0.29916,0.07178c0.44171,0.36614 0.44171,0.99092 0.44171,0.99092c0,0.12706 0,0.25412 0,0.38117c0.04159,0.00413 0.08258,0.0103 0.12287,0.0184l0.83355,0.15156c-0.2997,-0.18952 -0.77363,-0.62391 -0.53669,-1.38884c0.30594,0.04066 0.61625,0.0675 0.93028,0.07985c0.92603,0.31553 1.97245,1.77422 2.7126,2.39518c2.08757,1.7514 5.05311,2.14473 7.1465,3.81944c0.94776,0.75821 1.98898,1.35044 3.08253,1.8471c-0.13032,0.04606 -0.27056,0.07112 -0.41665,0.07112zM145.36432,200.14817c0.14901,0.14252 0.31096,0.30916 0.44511,0.46499c0.04764,-0.12103 0.11362,-0.23284 0.19451,-0.332c-0.24042,-0.02561 -0.45948,-0.06738 -0.63962,-0.133zM153.67452,203.27777c-0.12785,-0.02337 -0.25731,-0.04741 -0.38854,-0.07207c-0.05237,0.02817 -0.10486,0.05617 -0.15747,0.08404c0.18197,-0.00396 0.36398,-0.00789 0.54601,-0.01197z" fill="#dce2a8"/><path d="M156.05191,207.98983c0,0 0.09151,0.02496 0.21724,0.08633c0.74992,-0.80696 1.68974,-1.41888 2.76463,-1.67567c0.79244,-0.18931 1.80002,-0.71758 2.43538,-0.20757c0.18709,0.15018 0.31138,0.34718 0.39196,0.57184c0.69658,-0.15748 1.51811,-0.03064 2.58192,0.58174c0.37661,0.21679 0.78636,0.44973 1.10729,0.75063c0.14963,-0.08315 0.29933,-0.16606 0.4491,-0.24872c0,0 0.8905,-0.48573 1.50468,0.22011c0.34038,0.02313 0.73295,0.18747 0.98183,0.73501c0.51726,1.13796 -0.6207,1.65521 -0.6207,1.65521c-0.72724,0.33043 -1.4214,0.7034 -2.09662,1.1013c-0.33435,0.90196 -0.82231,1.74235 -1.24239,2.22292c-1.08711,1.24364 -2.86839,1.7115 -4.32004,2.31566c-0.19463,0.081 -0.38633,0.16417 -0.57548,0.2491c-0.32451,0.55167 -0.6415,1.10469 -1.03775,1.49565c-1.35887,1.34076 -3.10452,1.80062 -4.93321,1.66368l0.08136,0.1356l-1.23238,0.73942c-0.1917,0.1196 -0.41815,0.18871 -0.66074,0.18871c-0.69036,0 -1.25,-0.55964 -1.25,-1.25c0,-0.30872 0.11192,-0.5913 0.29739,-0.80938c-0.12788,-0.08994 -0.24937,-0.21773 -0.3551,-0.39587c-0.2658,0.54629 -0.80427,0.91111 -1.64909,0.76636c0.1307,0.19752 0.20679,0.43431 0.20679,0.68889c0,0.69036 -0.55964,1.25 -1.25,1.25c-0.43239,0 -0.8135,-0.21954 -1.03795,-0.55323l-0.41299,-0.59655c-0.87886,0.55326 -2.04008,0.82898 -2.86371,0.31991c-0.12682,-0.07838 -0.24177,-0.16951 -0.34751,-0.27051l-0.03596,0.0411l-0.99468,-0.87035c-0.26472,-0.22921 -0.43219,-0.56773 -0.43219,-0.94537c0,-0.0815 0.0078,-0.16118 0.02269,-0.23833c-1.70215,-0.62993 -3.56354,-2.52027 -4.88124,-3.78314c-0.20726,-0.16554 -0.40947,-0.35305 -0.60847,-0.56877c-0.03607,-0.03234 -0.07144,-0.06372 -0.10611,-0.09403l-0.04495,-0.07593c-0.23752,-0.27717 -0.47104,-0.59744 -0.70379,-0.97167c0,0 -0.64312,-1.07186 0.42875,-1.71498c0.28578,-0.17147 0.54108,-0.22102 0.76183,-0.20149c0.5812,-0.0273 0.93707,0.41724 1.06761,0.61829c0.59389,-0.83856 1.98186,-1.09226 2.81551,-1.21385c1.40953,-0.20559 3.10317,0.02226 4.80857,0.2019c0.4934,-0.19754 0.92436,-0.35743 1.1694,-0.46959c0.46562,-0.21312 0.86773,-0.73761 1.36955,-0.71327c0.09669,-0.07785 0.1686,-0.11781 0.1686,-0.11781l1.10515,-0.61397c0.18429,-0.10704 0.39844,-0.16833 0.6269,-0.16833c0.59619,0 1.0949,0.41739 1.21985,0.97589c0.07692,-0.05277 0.15491,-0.10463 0.23406,-0.15547c0,0 0.08626,-0.0549 0.22513,-0.10861c1.25298,-0.97137 2.79319,-1.02517 4.64986,-0.54277zM154.09801,214.19578c0,-0.08487 0.00846,-0.16775 0.02457,-0.24787l0.23109,-1.27098c0.00249,-0.11261 0.00831,-0.22589 0.01737,-0.33962c-0.07907,-0.18972 -0.11897,-0.38951 -0.1016,-0.60403c0.01576,-0.1947 0.12377,-0.36669 0.29257,-0.52029c0.08179,-0.31658 0.18664,-0.6313 0.31301,-0.9397c-0.14227,-0.02833 -0.27603,-0.04863 -0.40201,-0.06141v0.10889h-0.40019c-0.01704,0.01048 -0.03404,0.02096 -0.05102,0.03145c-0.0356,1.38897 -0.89876,1.85962 -2.75368,3.33357c-0.08076,0.11786 -0.16765,0.23445 -0.26183,0.34896l-0.11821,0.22938c0,0 -0.2345,0.35175 -0.63532,0.50976c-0.14444,0.11855 -0.2948,0.23325 -0.44884,0.34561l0.15431,0.21218l-0.13029,0.09475c0.43009,0.22182 0.71624,0.67467 0.84039,1.18267c0.18308,-0.18759 0.37067,-0.28138 0.37067,-0.28138l0.71045,-0.35434c0.81163,-0.44253 1.61957,-0.89225 2.42481,-1.34676c-0.04932,-0.13431 -0.07625,-0.27945 -0.07625,-0.43087zM144.80908,215.04274c0.17253,0.14637 0.38021,0.2843 0.58607,0.42646c-0.00073,-0.19765 -0.00401,-0.39328 -0.00702,-0.58893l-0.82734,-0.03548c0.08419,0.0631 0.16701,0.12899 0.24829,0.19795z" fill="#dce2a8"/><path d="M186.24694,210.43818c-0.09504,0.22177 -0.21454,0.38238 -0.34552,0.49719c0.04399,0.01608 0.08795,0.032 0.13188,0.04778c-0.00657,0.0103 -0.01331,0.02063 -0.02023,0.031c-0.69338,1.04006 -1.73343,0.34669 -1.73343,0.34669c-0.45212,-0.30141 -0.90668,-0.60162 -1.3635,-0.90054c-1.53028,-0.47079 -3.9501,-1.17789 -4.56976,-2.01575c-0.06537,-0.08839 -0.12527,-0.1798 -0.18057,-0.27373l-0.05449,0.04238l-0.86817,-1.1162c-0.07854,-0.09901 -0.14238,-0.2102 -0.18825,-0.33028c-1.2451,-0.75628 -2.50095,-1.50203 -3.76443,-2.23618c-2.04815,-0.97877 -4.11657,-1.9154 -6.20795,-2.81761c-0.32228,0.63106 -0.66018,1.2491 -1.10951,1.85784l-0.60443,0.53157c-0.08169,0.2723 -0.16337,0.54459 -0.24506,0.81689c0.0169,0.0429 0.03203,0.08833 0.04517,0.13644c6.7595,1.97841 12.97987,4.9899 19.51856,7.60451c0,0 1.1606,0.46424 0.69636,1.62483c-0.46424,1.1606 -1.62483,0.69636 -1.62483,0.69636c-4.04978,-1.62047 -7.97477,-3.39846 -11.98513,-4.9807c-5.05594,2.33766 -8.68439,7.64115 -13.68822,10.40981c-2.48227,1.37347 -5.21835,1.70688 -7.98163,1.77757c-0.00192,0.00258 -0.00385,0.00516 -0.00577,0.00773l-1.125,0.5c0,0 -0.67156,0 -1.03021,-0.49224c-0.59626,-0.0029 -1.19104,-0.00861 -1.78205,-0.00931c-5.33682,-0.56343 -8.69451,-5.5252 -12.79879,-8.48814c-1.90043,-1.37196 -4.80198,-2.24462 -6.16396,-4.29486c-0.78621,-1.18352 -0.70824,-2.98559 -0.84379,-4.34107l0.54693,-1.3925c0,0 0.50551,-0.84252 1.36714,-0.58545c0.75595,-2.11766 1.7146,-4.09371 2.33184,-6.32062c1.97547,-2.70359 3.40272,-6.13901 6.46573,-7.88912c0.57331,-0.32757 1.15626,-0.59489 1.74693,-0.80749c-0.14323,-0.07223 -1.08123,-0.59375 -0.60272,-1.64646c0.51726,-1.13796 1.65521,-0.6207 1.65521,-0.6207c4.98765,2.26937 10.20692,4.00833 15.14536,6.38447c2.976,1.43191 4.65499,3.90767 7.90815,5.08567c7.38776,2.95432 14.48732,6.24247 21.38655,10.18644l1.20248,0.60123c0.42281,0.20043 0.7152,0.63114 0.7152,1.13015c0,0.04901 -0.00282,0.09736 -0.00831,0.1449c0.15932,0.26198 0.23517,0.62397 0.03224,1.09749zM176.97331,206.34841c-0.04382,-0.02235 -0.08765,-0.04467 -0.13149,-0.06697c0.04392,0.02683 0.08787,0.05364 0.13185,0.08043c-0.00015,-0.00448 -0.00027,-0.00897 -0.00036,-0.01347zM153.9354,194.44927c-3.5898,-1.68863 -7.30547,-3.08934 -10.97634,-4.59486c-0.08683,-0.00364 -0.17368,-0.00605 -0.26055,-0.00722c0.0245,0.13273 0.0245,0.2236 0.0245,0.2236c-0.00404,1.83962 0.14084,3.6358 0.39381,5.40579c0.03839,0.00734 0.06009,0.01325 0.06009,0.01325c4.74464,1.29488 8.8461,0.82002 13.64594,1.20995c0.08827,0.00717 0.17654,0.01463 0.2648,0.02238c0.34685,0.21837 0.70273,0.42058 1.066,0.60943c-1.34695,-1.03601 -2.61751,-2.12933 -4.21825,-2.88232zM156.62317,199.19179c-4.57253,-0.38068 -8.58711,-0.01988 -13.04041,-1.02529c0.5958,2.95353 1.44071,5.85745 2.33754,8.79509l0.00451,0.08419c5.57861,-1.17655 11.22246,-2.12111 16.76761,-2.72312c0.08407,-0.28024 0.16814,-0.56047 0.25221,-0.8407c-0.01453,-0.58588 0.47816,-0.99645 0.47816,-0.99645l0.55023,-0.41472c0.32739,-0.4276 0.58626,-0.87209 0.82273,-1.32713c-0.58497,-0.24366 -1.17178,-0.48489 -1.7605,-0.72385c-2.13748,-0.30715 -4.27534,-0.65013 -6.41207,-0.82801zM151.06653,213.90992c1.25183,-2.51293 2.7229,-4.48018 4.73388,-6.14814c-6.85751,1.07574 -13.75425,2.60107 -20.38702,4.36459c3.305,2.6353 6.58814,7.17643 10.87189,7.57097c0.80469,-0.00105 1.62578,0.01506 2.4519,0.01939c1.0417,-1.8469 1.33991,-3.82061 2.32935,-5.8068zM133.80618,202.05141l-1.10112,0.61207c0,0 -0.90296,0.50164 -1.52324,-0.22794c-0.55211,1.383 -1.06891,2.79024 -1.35398,4.35885l-0.62877,1.1119c0.01554,0.02612 0.03184,0.05084 0.04895,0.07404c0.76808,1.04206 2.02691,1.73146 3.27498,2.38135l0.74612,-0.24686c3.34763,-0.91281 6.7692,-1.76871 10.22523,-2.54108c-0.84906,-2.87427 -1.65904,-5.70377 -2.26063,-8.57351c-2.52795,0.96857 -5.01235,1.83916 -7.42754,3.05118zM159.02396,208.49726c-4.48324,2.86589 -5.23913,7.09283 -7.33873,11.1363c1.8063,-0.14197 3.57162,-0.50705 5.17537,-1.40248c4.40182,-2.4577 7.71779,-6.69266 11.87501,-9.37879c-1.74937,-0.62885 -3.52429,-1.20508 -5.3415,-1.70055l-0.2515,-0.3634c-1.17843,0.12607 -2.36132,0.26795 -3.54707,0.42455c0.1905,0.79445 -0.57159,1.28437 -0.57159,1.28437zM132.63984,199.84016c2.65152,-1.32055 5.36389,-2.26146 8.12884,-3.33861c-0.33211,-2.06199 -0.53414,-4.15674 -0.54526,-6.3148c-0.61751,0.18667 -1.23273,0.45603 -1.84324,0.82235c-2.62571,1.57545 -3.75189,4.55803 -5.53427,6.86087c-0.21044,0.785 -0.46989,1.53565 -0.74964,2.27201z" fill="#000000"/><path d="M133.55342,196.93258c-1.16501,-1.96683 0.96683,-2.43789 1.72752,-3.30839c1.17086,-1.33987 1.73696,-2.07519 2.72019,-2.7534l-0.10126,-0.11573l0.99544,-0.87101c0.22046,-0.19494 0.51026,-0.31327 0.82769,-0.31327c0.69036,0 1.25,0.55964 1.25,1.25v1.25c-0.00483,1.0876 0.76214,3.77576 0.1234,4.62713c-0.43302,0.57718 -1.36644,0.46426 -2.04684,0.70445c-2.01628,0.71177 -3.97528,1.23669 -5.70156,2.54341c0,0 -1,0.75 -1.75,-0.25c-0.75,-1 0.25,-1.75 0.25,-1.75c0.56378,-0.41958 1.13268,-0.74665 1.70542,-1.0132z" fill="#dce2a8"/><path d="M219.91121,111.79197c1.94502,-0.56629 7.15935,-2.51379 7.98716,0.79747c0.4654,1.8616 -0.87251,2.90542 -2.31902,3.1567c-5.97322,1.03766 -11.19703,2.14099 -16.2088,5.54596c-0.12467,0.0847 -0.27179,0.15546 -0.43469,0.21153c-0.29635,0.12378 -0.62162,0.19215 -0.96286,0.19215c-0.22761,0 -0.44813,-0.03042 -0.65769,-0.08741c-1.13115,-0.19118 -2.15682,-0.92764 -1.84146,-2.34675c-0.00056,-0.02187 -0.00085,-0.04382 -0.00085,-0.06584c0,-0.7263 0.30972,-1.38026 0.80429,-1.83701c2.65383,-4.00154 9.9494,-4.49405 13.6339,-5.56679z" fill="#fff700"/><path d="M222.88645,120.08278c-2.18652,0.58264 -4.94168,1.58458 -7.20309,2.65359c0.93136,-0.63605 1.66245,-1.18048 1.91578,-1.30632c1.31269,-0.65205 2.76935,-1.32573 4.14989,-1.79869c0.32049,-0.1098 0.72579,0.16685 1.13741,0.45142zM198.85498,139.58471c4.02179,-0.89373 4.11457,1.20693 2.92713,3.43379c-0.13224,0.5642 -0.45557,1.0548 -0.89799,1.39982c-1.16458,1.55706 -2.70656,2.86339 -3.62319,2.83313c-0.60678,-0.02003 -1.11595,-0.08024 -1.53877,-0.17446c-1.57592,2.19976 -4.15476,4.21341 -5.51472,0.13353c-0.03482,-0.10445 -0.04984,-0.21533 -0.04815,-0.33122c-0.58674,0.09948 -1.22546,-0.06608 -1.91173,-0.63798c-2.40451,-2.00376 0.39737,-4.10426 1.21458,-5.88655c2.13852,-4.66398 4.44944,-7.87926 8.3233,-11.38196c0.78832,-0.71279 3.72188,-4.22799 4.86661,-3.75663c0.10509,-0.01347 0.21222,-0.02041 0.32097,-0.02041c1.38071,0 2.5,1.11929 2.5,2.5c0.21378,0.31475 0.08985,0.74629 -0.22603,1.22517c0.71391,-0.32822 1.45836,-0.65499 2.14939,-0.98194c0.69363,-0.32818 4.87256,-2.97537 5.84548,-1.27277l1.23116,2.15454c-0.59038,1.03318 -1.44135,1.83074 -2.43595,2.49919c-2.29735,1.544 -5.36102,2.39909 -7.74971,3.87746c-1.54671,0.95727 -4.76631,2.806 -6.23486,4.78852z" fill="#fff700"/><path d="M223.96537,113.55774c0.00529,0.04762 0.00855,0.09361 0.00994,0.13805c0.09593,0.00017 0.18932,0.01115 0.27902,0.03178l1.06916,0.09719c0.48913,0.0389 0.89895,0.35938 1.06733,0.7993c1.27447,0.47688 1.87419,1.44305 1.00982,3.20139c1.44732,1.21266 2.92202,2.35141 4.44737,3.49533l0.25888,0.24112c0,0 0.88388,0.88388 0,1.76777c-0.17408,0.17409 -0.34817,0.2796 -0.5155,0.33679c0.0243,0.02692 0.04841,0.05398 0.07234,0.08119l0.06816,0.06425c0,0 0.88388,0.88388 0,1.76777c-0.88388,0.88389 -1.76776,0 -1.76776,0l-0.01662,-0.01697c0.01686,0.16707 0.0255,0.33657 0.0255,0.50808c0,1.92711 -1.09023,3.59959 -2.68756,4.43429c-0.17195,0.11894 -0.35944,0.21773 -0.5657,0.29218c-0.05208,0.0188 -0.13556,0.03364 -0.2473,0.0448c-0.47336,0.14861 -0.97705,0.22873 -1.49944,0.22873c-0.58853,0 -1.15331,-0.10168 -1.67774,-0.28844c-4.44739,-0.24967 -11.63396,-0.9781 -12.19726,-1.33656c-1.61125,-1.02534 -3.33438,-3.93325 -2.61842,-6.08114c0.35011,-1.05033 1.35759,-1.98638 2.74583,-2.74712c0.02658,-0.43033 0.27089,-0.80173 0.62411,-1.0054l1.12564,-0.67538c0.14408,-0.12995 0.30251,-0.24113 0.47213,-0.33617c0.83792,-0.97453 1.77576,-1.91148 2.79235,-2.70026c-0.01095,-0.06655 -0.01665,-0.13488 -0.01665,-0.20454c0,-0.28596 0.09602,-0.54948 0.25758,-0.7601l0.74242,-0.9899l0.00338,0.00253l0.00324,-0.01127c0.2939,-0.37789 0.58779,-0.75579 0.8817,-1.13368c0,0 0.76742,-0.98669 1.75411,-0.21926c0.17349,0.13493 0.29275,0.27665 0.37149,0.41859c0.27593,-0.09244 0.56261,-0.19203 0.84384,-0.31986l1.50421,-0.2294c0,0 1.24236,-0.13804 1.38039,1.10431z" fill="#afa100"/><path d="M204.98831,117.71586c-0.16621,-0.21224 -0.2653,-0.47959 -0.2653,-0.77008c0,-0.41415 0.20142,-0.78127 0.51164,-1.00872l0.98836,-0.74128l0.03476,0.04634l0.07788,-0.12163c0.15079,-0.06927 0.32972,-0.13354 0.51791,-0.18121c-0.00367,-0.03901 -0.00554,-0.07853 -0.00554,-0.11849c0,-0.61444 0.44333,-1.12533 1.02756,-1.23027l1.22729,-0.24546l0.01095,0.05476l0.11102,-0.07295c0.52685,-0.00142 1.0537,-0.00285 1.58055,-0.00427c0.76005,-0.28698 1.52589,-0.54174 2.24045,-0.80155c4.42533,-1.60902 9.47328,-3.7286 14.19316,-2.2734c0.36305,0.34739 0.72611,0.69476 1.08916,1.04215c0.74722,-0.38441 1.40374,0.27211 1.40374,0.27211c3.82014,3.83617 5.16006,6.97978 6.21685,12.26374l-0.52306,0.90017c4.69737,-0.51162 8.88071,-0.02777 13.92171,0.47618l0.37562,-0.0062c0,0 0.07411,0 0.18624,0.01805c0.18169,-0.02499 0.31314,-0.01184 0.31314,-0.01184c0.41666,0.04166 0.83334,0.08334 1.25,0.125l0.12562,-0.0062c0,0 1.25,0 1.25,1.25c0,1.25 -1.25,1.25 -1.25,1.25l-0.37438,-0.0062c-0.41666,-0.04166 -0.83334,-0.08334 -1.25,-0.125c0,0 -0.02614,-0.00262 -0.07047,-0.01088c-0.10872,0.01708 -0.18016,0.01708 -0.18016,0.01708l-0.62438,-0.0062c-2.9844,-0.29852 -5.62763,-0.59786 -8.26364,-0.67256c2.23177,0.80978 4.89007,1.31285 6.76302,1.30376l0.19683,-0.08768c0,0 1.21268,-0.30318 1.51585,0.9095c0.30317,1.21268 -0.9095,1.51585 -0.9095,1.51585l-0.80317,0.16232c-3.29841,-0.0134 -8.18389,-1.28644 -10.94337,-3.08494c0,0 -0.31727,-0.21151 -0.48453,-0.57613c-0.39414,0.03789 -0.79214,0.08314 -1.19501,0.13643c0.76669,0.49587 1.22293,1.57455 0.87291,3.14964c-0.03148,0.14165 -0.07554,0.282 -0.1307,0.42022c-0.02629,0.39104 -0.1425,0.75743 -0.32812,1.07869c-0.54909,2.71798 -6.00081,2.62061 -7.6684,3.09539c-4.52712,1.28893 -8.68548,-0.31188 -12.70996,-2.30727c-1.88761,1.13815 -3.83981,2.27982 -5.15993,4.40307c-1.23691,1.98941 -2.73655,3.67051 -4.2156,5.37625c-1.34392,0.7697 -2.49205,1.84242 -3.35127,3.12499c-1.36723,1.23107 -2.39308,2.83393 -2.91828,4.64936c-1.4824,1.56597 -3.1319,3.00874 -4.7747,4.02036c-2.45223,1.51006 -4.25204,-1.14555 -3.46435,-3.50861c0.07575,-0.22726 0.20691,-0.46358 0.38164,-0.70646c-1.00206,1.19699 -1.97193,2.0718 -2.64167,1.90436c-2.08951,-0.52238 -2.02509,-2.93231 -1.35397,-4.84853c-1.19569,0.91971 -2.40435,0.90903 -3.40076,-1.08379c-0.92139,-1.84279 1.94027,-5.19034 2.5996,-6.56028c3.03029,-6.29619 6.84442,-10.67364 12.35756,-14.91294c0.49419,-0.38 2.96628,-2.28107 5.2867,-3.42933c-0.04373,-0.02681 -0.08802,-0.05689 -0.1328,-0.09049c-1,-0.75 -0.25,-1.75 -0.25,-1.75c0.33383,-0.44511 0.65985,-0.91157 0.99273,-1.37736c0.00063,-0.07775 0.00836,-0.15381 0.02258,-0.22756zM223.89394,119.69328c-0.17213,-0.05906 -0.33209,-0.13945 -0.48321,-0.2354l-0.04477,0.0806l-0.40547,-0.22527c-3.10649,0.96224 -6.87219,1.34986 -9.32797,2.53348c-0.47644,0.22963 -3.23337,1.19431 -4.01237,1.93613c-0.05324,0.17951 -0.1261,0.35059 -0.21609,0.51076c0.12628,0.57304 1.5669,0.8235 2.23558,1.19042c0.96685,0.53052 1.96383,1.00426 2.96654,1.46488c1.75346,-0.87075 3.27156,-1.2636 3.76068,-0.40764c0.73685,0.43488 1.23116,1.23699 1.23116,2.15454c0,0.1787 -0.01875,0.35301 -0.05438,0.52109c1.93669,0.81094 3.91057,1.38537 6.14869,1.22891c0.26518,-0.01854 0.69556,-0.11838 1.21702,-0.26551c0.07493,-1.03294 0.09184,-2.05932 0.19366,-3.09648c-0.03371,-0.04766 -0.06634,-0.09954 -0.09768,-0.15595c-0.60706,-1.0927 0.48565,-1.69975 0.48565,-1.69975l0.99302,-0.54854c-0.33882,-0.42625 -0.62605,-0.91701 -0.79729,-1.40136c-0.58689,-0.16012 -1.17575,-0.56412 -1.69974,-1.21437c-0.44908,-0.55729 -0.69232,-1.36772 -1.03277,-1.9635c-0.16682,-0.09846 -0.3212,-0.21573 -0.46024,-0.34891c-0.20043,0.02401 -0.40047,0.01032 -0.6,-0.05813zM194.47301,136.75828c-0.24007,-1.6805 6.42236,-7.69838 7.76884,-5.34204c0.10727,0.06331 0.20941,0.13441 0.30563,0.21252c0.68639,-1.13699 1.71133,-2.82249 2.71728,-4.1744c-0.12136,-0.0959 -0.23935,-0.19322 -0.35331,-0.29192c-2.06884,1.19324 -4.31437,2.29518 -5.96142,3.70684c-2.69232,2.30755 -4.48317,4.99688 -6.20828,7.98775c-0.19878,0.34463 -0.75688,1.60532 -1.52245,3.073c1.17,-1.32243 2.42019,-2.62889 3.62648,-3.80524c-0.16613,-0.3577 -0.2931,-0.80892 -0.37276,-1.36651zM195.11641,145.21292c-0.73039,0.90659 -1.97605,2.83485 -3.22462,4.40787c1.63115,-1.81078 5.1494,-3.88083 6.06445,-5.25618c0.7264,-1.0918 1.87682,-2.76762 3.1612,-4.56481c-2.16873,1.63838 -4.30488,3.30782 -6.00103,5.41312z" fill="#000000"/><path d="M222.28072,123.01936c-0.13174,-0.0558 -0.26407,-0.11014 -0.39695,-0.16299c0,0 -1.1606,-0.46424 -0.69636,-1.62483c0.46424,-1.1606 1.62483,-0.69636 1.62483,-0.69636c0.83106,0.33412 1.64661,0.71286 2.43008,1.14703l1.16789,0.46716c0.47474,0.17726 0.81279,0.63486 0.81279,1.17141c0,0.69035 -0.55964,1.25 -1.25,1.25c-0.04771,0 -0.09479,-0.00267 -0.14111,-0.00787l-1.23327,-0.12332l0.03098,-0.30987l-0.37085,-0.14834l0.0211,-0.05275c-0.02474,-0.00331 -0.04941,-0.00684 -0.074,-0.01062l-0.01958,0.03168c-0.03036,-0.01687 -0.06078,-0.03366 -0.09124,-0.05038c-0.40627,-0.07498 -0.78765,-0.21755 -1.12205,-0.45353l-0.30902,-0.13196c0,0 -0.1963,-0.09815 -0.38327,-0.29445z" fill="#ff0000"/><path d="M229.59801,126.19578c-1.25,0 -1.25,-1.25 -1.25,-1.25c0,-0.45834 0,-1.54166 0,-2c0,0 0,-1.25 1.25,-1.25c1.25,0 1.25,1.25 1.25,1.25c0,0.45834 0,0.91666 0,1.375v0.625c0,0 0,1.25 -1.25,1.25z" fill="#000000"/><path d="M221.93295,119.26416c-0.69338,-1.04006 0.34669,-1.73343 0.34669,-1.73343l0.30095,-0.19663c0.81887,-0.62688 1.72379,-1.15819 2.67818,-1.54891c0,0 1.1606,-0.46424 1.62483,0.69636c0.46424,1.1606 -0.69636,1.62483 -0.69636,1.62483c-0.74424,0.28869 -1.44654,0.70484 -2.07181,1.20109l-0.44905,0.30338c0,0 -1.04006,0.69338 -1.73344,-0.34669z" fill="#000000"/><path d="M204.00877,141.38148c0,0 -0.18569,-0.46423 0.27855,-0.64993c0.46424,-0.1857 0.64993,0.27854 0.64993,0.27854c0.18778,0.4754 0.45213,0.97297 0.77004,1.46122c-0.28947,0.16261 -0.57001,0.33922 -0.84073,0.5289c-0.34886,-0.5356 -0.6419,-1.08478 -0.85778,-1.61873z" fill="#151400"/><path d="M199.7758,147.09718c0,0 0.22361,-0.44721 0.67082,-0.2236c0.31332,0.15666 0.29737,0.42307 0.25973,0.56856c-0.36802,0.53946 -0.68461,1.1168 -0.94273,1.72496c-0.30935,-0.61253 -0.35315,-1.30153 0.01217,-2.06992z" fill="#151400"/></g></g></svg>